<?xml version="1.0" encoding="utf-8"?>
<!-- Generator: Adobe Illustrator 16.0.0, SVG Export Plug-In . SVG Version: 6.00 Build 0)  -->
<!DOCTYPE svg PUBLIC "-//W3C//DTD SVG 1.1//EN" "http://www.w3.org/Graphics/SVG/1.1/DTD/svg11.dtd">
<svg version="1.1" id="Layer_1" xmlns="http://www.w3.org/2000/svg" xmlns:xlink="http://www.w3.org/1999/xlink" x="0px" y="0px"
	 width="864px" height="864px" viewBox="0 0 864 864" enable-background="new 0 0 864 864" xml:space="preserve">
<path d="M604.224,337.248l-28.031,28.032c13.151,24.192,20.64,51.744,20.64,81.12c0,93.504-76.128,169.632-169.632,169.632
	S257.568,539.904,257.568,446.4c0-93.504,76.128-169.632,169.632-169.632c29.376,0,56.928,7.488,81.12,20.64l28.031-28.032
	c-31.775-19.68-69.119-31.008-109.151-31.008c-114.72,0-208.032,93.312-208.032,208.032c0,114.72,93.312,208.031,208.032,208.031
	S635.232,561.12,635.232,446.4C635.232,406.368,623.904,369.024,604.224,337.248z M526.368,415.2l-33.696,33.6
	c-1.248,35.136-30.048,63.168-65.472,63.168c-36.192,0-65.568-29.376-65.568-65.567c0-35.425,28.032-64.225,63.168-65.472
	l33.696-33.6c-9.888-3.168-20.352-4.896-31.296-4.896c-57.312,0-103.968,46.656-103.968,103.968
	c0,57.312,46.655,103.968,103.968,103.968c57.312,0,103.968-46.656,103.968-103.968C531.168,435.552,529.536,424.992,526.368,415.2z
	 M698.784,283.488l-28.032,28.032c22.176,39.936,34.848,85.92,34.848,134.88C705.6,599.904,580.704,724.8,427.2,724.8
	c-153.504,0-278.4-124.896-278.4-278.399c0-153.504,124.896-278.4,278.4-278.4c48.96,0,94.944,12.672,134.88,34.848l28.032-28.032
	C542.496,146.112,486.72,129.6,427.2,129.6c-174.72,0-316.8,142.08-316.8,316.8c0,174.72,142.08,316.8,316.8,316.8
	c174.72,0,316.8-142.08,316.8-316.8C744,386.88,727.488,331.104,698.784,283.488z M657.178,284.304l-36.653-4.071L439.949,460.8
	c-7.498,7.498-19.651,7.498-27.149,0c-7.497-7.497-7.497-19.651,0-27.148l180.566-180.566l-4.07-36.653l101.827-101.827
	l13.574,54.307l54.308,13.574L657.178,284.304z"/>
<text transform="matrix(1 0 0 1 868.5 434.5)" fill="#EF8111" font-family="'MyriadPro-Regular'" font-size="12">v</text>
</svg>
