<svg xmlns="http://www.w3.org/2000/svg" width="864" height="864" viewBox="0 0 864 864"><path fill="#231F20" d="M648 499.2c-36.854 0-70.27 14.43-95.175 37.812L460.8 468V362.592C526.215 351.197 576 294.278 576 225.6c0-76.877-62.323-139.2-139.2-139.2s-139.2 62.323-139.2 139.2c0 68.678 49.786 125.597 115.2 136.992v105.092l-98.966 70.99c-18.192-17.845-41.32-30.68-67.17-36.2-96.433-20.582-180.72 58.802-168.72 154.022 7.813 62.045 57.916 112.138 119.96 119.962 95.223 12 174.605-72.288 154.023-168.73-2.235-10.492-5.73-20.517-10.225-29.973l94.78-67.997 87.505 65.626c-9.64 18.94-15.188 40.312-15.188 63.017C508.8 715.28 571.12 777.6 648 777.6s139.2-62.32 139.2-139.198S724.877 499.2 648 499.2zm-432 48.02c23.146 0 41.914 18.77 41.914 41.913 0 23.146-18.768 41.914-41.914 41.914s-41.914-18.77-41.914-41.914c0-23.154 18.768-41.914 41.914-41.914zm62.4 163.18H153.6v-18.816c0-25.72 18.048-48.384 43.776-48.384h37.258c25.718 0 43.766 22.665 43.766 48.384V710.4zm158.4-575.98c23.146 0 41.914 18.767 41.914 41.913s-18.77 41.914-41.914 41.914c-23.145 0-41.913-18.768-41.913-41.914 0-23.155 18.767-41.914 41.913-41.914zM374.4 297.6v-18.816c0-25.72 18.048-48.384 43.773-48.384h37.258c25.722 0 43.77 22.666 43.77 48.384V297.6H374.4zM648 547.22c23.146 0 41.914 18.77 41.914 41.913 0 23.146-18.768 41.914-41.914 41.914s-41.914-18.77-41.914-41.914c0-23.154 18.768-41.914 41.914-41.914zm62.4 163.18H585.6v-18.816c0-25.72 18.05-48.384 43.776-48.384h37.258c25.718 0 43.77 22.665 43.77 48.384L710.4 710.4z"/></svg>