<svg xmlns="http://www.w3.org/2000/svg" width="864" height="864" viewBox="0 0 864 864"><path fill="#231F20" d="M589.92 351.744c-21.6 0-39.264 17.568-39.264 39.264v26.112c0 21.696 17.664 39.36 39.264 39.36h91.68V351.744h-91.68zm26.208 72c-10.848 0-19.584-8.832-19.584-19.68 0-10.85 8.736-19.584 19.584-19.584s19.68 8.736 19.68 19.584c0 10.848-8.832 19.68-19.68 19.68zM652.8 211.2H211.2c-37.114 0-67.2 30.086-67.2 67.2v326.4c0 26.506 21.494 48 48 48h441.6c26.506 0 48-21.494 48-48V475.68h-91.68c-32.16 0-58.464-26.312-58.464-58.464v-26.208c0-32.15 26.304-58.464 58.464-58.464h91.68V297.6c0-21.207-17.19-38.4-38.397-38.4H201.6c-5.28 0-9.6-4.32-9.6-9.6 0-5.28 4.32-9.6 9.6-9.6h441.6c31.812 0 57.6 25.786 57.6 57.6v295.2c17.376-12.19 28.8-32.352 28.8-55.2V288c0-42.413-34.387-76.8-76.8-76.8zm-62.88 140.544c-21.6 0-39.264 17.568-39.264 39.264v26.112c0 21.696 17.664 39.36 39.264 39.36h91.68V351.744h-91.68zm26.208 72c-10.848 0-19.584-8.832-19.584-19.68 0-10.85 8.736-19.584 19.584-19.584s19.68 8.736 19.68 19.584c0 10.848-8.832 19.68-19.68 19.68zm-26.208-72c-21.6 0-39.264 17.568-39.264 39.264v26.112c0 21.696 17.664 39.36 39.264 39.36h91.68V351.744h-91.68zm26.208 72c-10.848 0-19.584-8.832-19.584-19.68 0-10.85 8.736-19.584 19.584-19.584s19.68 8.736 19.68 19.584c0 10.848-8.832 19.68-19.68 19.68z"/></svg>