<svg xmlns="http://www.w3.org/2000/svg" width="864" height="864" viewBox="0 0 864 864"><path d="M330.936 286.29c11.06 3.592 17.127 15.467 13.536 26.536-3.59 11.06-15.466 17.126-26.534 13.536-11.07-3.59-17.127-15.466-13.536-26.535s15.475-17.136 26.534-13.536zm132.99 37c13.525 0 24.498-10.963 24.498-24.5 0-13.525-10.963-24.5-24.5-24.5-13.525 0-24.498 10.964-24.498 24.5s10.963 24.5 24.5 24.5zM393.45 428.055c4.263 10.416 16.167 15.398 26.583 11.136s15.398-16.165 11.136-26.58c-4.263-10.417-16.167-15.4-26.583-11.138-10.416 4.262-15.4 16.167-11.136 26.583zm13.297-290.64c113.165 0 206.966 82.78 224.218 191.088l54.355 95.923c9.033 15.936-2.478 35.692-20.795 35.692h-36.672V579.34c0 33.668-31.48 58.475-64.214 50.622l-41.127-5.684V700.8c0 21.207-17.194 38.4-38.4 38.4h-124.8c-21.206 0-38.4-17.193-38.4-38.4V574.752c-82.857-33.85-141.264-115.21-141.264-210.25 0-125.424 101.673-227.087 227.097-227.087zm72.595 209.606c2.698-.863 5.28-1.967 7.757-3.244l21.868 13.92 13.862-13.862-13.92-21.87c1.286-2.476 2.38-5.058 3.245-7.756l25.276-5.616V288.99l-25.275-5.617c-.864-2.698-1.97-5.28-3.245-7.757l13.92-21.87-13.862-13.86-21.87 13.92c-2.476-1.287-5.058-2.382-7.756-3.246l-5.615-25.277h-19.604l-5.616 25.277c-2.697.864-5.28 1.968-7.757 3.245l-21.87-13.92-13.86 13.862 13.92 21.87c-1.287 2.476-2.38 5.058-3.245 7.756l-25.277 5.616v19.602l25.277 5.616c.864 2.698 1.968 5.28 3.244 7.757l-13.92 21.87 13.86 13.86 21.87-13.92c2.477 1.288 5.06 2.382 7.757 3.246l5.616 25.278h19.604l5.615-25.277zm-120.51 104.017l21.227-3.64c1.507 1.806 3.167 3.447 4.934 4.954l-3.82 21.228 15.033 6.297 12.45-17.606c2.305.2 4.647.23 6.99.047L427.934 480l15.072-6.183-3.64-21.226c1.807-1.506 3.448-3.167 4.955-4.934l21.227 3.82 6.298-15.033-17.606-12.45c.2-2.305.23-4.647.047-6.99l17.683-12.287-6.172-15.09-21.227 3.638c-1.506-1.805-3.167-3.447-4.933-4.954l3.82-21.226-15.033-6.298-12.45 17.606c-2.306-.202-4.647-.23-6.99-.048l-12.288-17.683-15.09 6.174 3.638 21.226c-1.805 1.517-3.446 3.177-4.954 4.944l-21.226-3.82-6.298 15.033 17.606 12.45c-.2 2.305-.23 4.647-.048 6.99l-17.683 12.287 6.193 15.093zm-94.51-123.504l7.66 15.015 21.57-5.578c1.68 1.7 3.505 3.283 5.482 4.704l-2.112 22.157 16.032 5.204 11.3-19.18c2.428.01 4.838-.212 7.2-.596l14.197 17.184 15.016-7.66-5.576-21.582c1.698-1.68 3.283-3.504 4.703-5.482l22.157 2.112 5.203-16.032-19.18-11.29c.01-2.43-.203-4.838-.597-7.2l17.185-14.198-7.66-15.014-21.58 5.578c-1.68-1.7-3.505-3.283-5.482-4.704l2.112-22.157-16.032-5.204-11.3 19.18c-2.428-.01-4.838.21-7.2.595L303.232 246.2l-15.014 7.662 5.577 21.58c-1.7 1.68-3.283 3.505-4.704 5.482l-22.157-2.112-5.203 16.032 19.18 11.3c-.01 2.428.202 4.837.596 7.2l-17.185 14.19z"/></svg>