<svg xmlns="http://www.w3.org/2000/svg" width="864" height="864" viewBox="0 0 864 864"><path fill="#231F20" d="M604.224 337.248l-28.027 28.032c13.147 24.192 20.64 51.748 20.64 81.124 0 93.504-76.128 169.632-169.632 169.632S257.568 539.904 257.568 446.4c0-93.504 76.128-169.632 169.632-169.632 29.376 0 56.928 7.488 81.12 20.64l28.027-28.032c-31.77-19.68-69.115-31.008-109.147-31.008-114.72 0-208.032 93.312-208.032 208.032 0 114.72 93.312 208.027 208.032 208.027S635.232 561.12 635.232 446.4c0-40.032-11.328-77.376-31.008-109.152zM526.368 415.2l-33.696 33.6c-1.248 35.136-30.048 63.168-65.472 63.168-36.192 0-65.568-29.376-65.568-65.563 0-35.43 28.032-64.23 63.168-65.472l33.696-33.6c-9.888-3.168-20.352-4.896-31.296-4.896-57.312 0-103.968 46.656-103.968 103.968 0 57.312 46.65 103.968 103.968 103.968 57.312 0 103.968-46.656 103.968-103.968 0-10.853-1.632-21.413-4.8-31.205zm172.416-131.712l-28.032 28.032c22.176 39.936 34.848 85.92 34.848 134.88 0 153.504-124.896 278.4-278.4 278.4-153.504 0-278.4-124.896-278.4-278.396 0-153.504 124.896-278.4 278.4-278.4 48.96 0 94.944 12.672 134.88 34.848l28.032-28.032C542.496 146.112 486.72 129.6 427.2 129.6c-174.72 0-316.8 142.08-316.8 316.8s142.08 316.8 316.8 316.8S744 621.12 744 446.4c0-59.52-16.512-115.296-45.216-162.912zm-41.606.816l-36.65-4.07L439.95 460.8c-7.497 7.498-19.65 7.498-27.148 0-7.497-7.497-7.497-19.647 0-27.146l180.566-180.566-4.07-36.653 101.827-101.827 13.574 54.307 54.308 13.574-101.827 101.814z"/></svg>