<svg xmlns="http://www.w3.org/2000/svg" viewBox="0 0 90 90"><path d="M20.612 18.503c0-5.097 4.132-9.228 9.228-9.228s9.228 4.132 9.228 9.228c0 5.097-4.132 9.228-9.228 9.228s-9.228-4.13-9.228-9.227zm9.52 56.396c0 2.397-2.057 4.313-4.504 4.08-2.133-.2-3.7-2.114-3.7-4.256V53.366c0 1.755-1.813 3.162-3.59 3.162-1.963 0-3.587-1.664-3.587-3.33V37.984c0-3.964 3.215-7.178 7.18-7.178h16.587c3.964 0 7.178 3.214 7.178 7.178v15.212c0 1.667-1.625 3.33-3.587 3.33-1.777 0-3.59-1.406-3.59-3.16v21.357c0 2.142-1.567 4.055-3.7 4.257-2.447.233-4.503-1.683-4.503-4.08h-.184zM69.025 47c.62 1.744 2.268 3 4.224 3 2.485 0 4.5-2.015 4.5-4.5s-2.015-4.5-4.5-4.5c-1.956 0-3.605 1.256-4.224 3H60.75V18h8c.09 0 .18-.01.267-.027C69.63 19.73 71.284 21 73.25 21c2.485 0 4.5-2.015 4.5-4.5s-2.015-4.5-4.5-4.5c-1.966 0-3.62 1.27-4.233 3.027-.087-.016-.176-.027-.267-.027h-9.5c-.828 0-1.5.672-1.5 1.5V44h-8c-.828 0-1.5.672-1.5 1.5s.672 1.5 1.5 1.5h8v27.5c0 .828.672 1.5 1.5 1.5h9.5c.09 0 .18-.01.267-.027C69.63 77.73 71.284 79 73.25 79c2.485 0 4.5-2.015 4.5-4.5s-2.015-4.5-4.5-4.5c-1.966 0-3.62 1.27-4.233 3.027-.087-.016-.176-.027-.267-.027h-8V47h8.276z"/></svg>