<svg xmlns="http://www.w3.org/2000/svg" viewBox="0 0 90 90"><path d="M46.78 15h-1.54c-.823 0-1.49-.667-1.49-1.49v-.05c0-1.91-1.55-3.46-3.46-3.46h-.08c-1.91 0-3.46 1.55-3.46 3.46v.05c0 .823-.667 1.49-1.49 1.49h-1.54c-1.64 0-2.97 1.33-2.97 2.97v.06c0 1.64 1.33 2.97 2.97 2.97h13.06c1.64 0 2.97-1.33 2.97-2.97v-.06c0-1.64-1.33-2.97-2.97-2.97zm-6.53 0c-.828 0-1.5-.672-1.5-1.5s.672-1.5 1.5-1.5 1.5.672 1.5 1.5-.672 1.5-1.5 1.5zm6.678 58H21.75c-2.21 0-4-1.79-4-4V21c0-2.21 1.79-4 3-4h8.104c-.068.332-.104.676-.104 1.03 0 2.74 2.23 4.97 4.97 4.97h13.06c2.74 0 4.97-2.23 4.97-5.03 0-.332-.036-.656-.098-.97h6.098c3.21 0 5 1.79 5 4v30.05c-.332-.02-.662-.05-1-.05-1.383 0-2.72.195-4 .527V28h-35v40H45.8c.11 1.758.494 3.44 1.128 5zM61.75 54c-7.18 0-13 5.82-13 13s5.82 13 13 13 13-5.82 13-13-5.82-13-13-13zm8.495 10.33l-8 9c-.394.442-.943.67-1.496.67-.44 0-.88-.144-1.25-.438l-5-4c-.862-.69-1.002-1.948-.312-2.81.69-.864 1.95-1.004 2.81-.313l3.518 2.812 6.74-7.58c.732-.826 1.997-.9 2.822-.167s.9 1.998.167 2.824z"/></svg>