<svg xmlns="http://www.w3.org/2000/svg" viewBox="0 0 90 90"><path d="M57.5 25.5c0 7.18-5.82 13-13 13s-13-5.82-13-13 5.82-13 13-13 13 5.82 13 13zm-13 22c.8 0 1.805 0 2.405-.6.6-.6 1.59-2.2 1.595-3.4.005-1.4-2.442-1.6-4-1.6-1.558 0-4.005.2-4 1.6.005 1.2.995 2.8 1.595 3.4.6.6 1.605.6 2.405.6zm33 31.5h-11L63 64l-1 15H27l-1-15-3.5 15h-11l6.298-28.133c.724-3.233 3.365-5.685 6.643-6.167L36 43l5.797 13.3.67-6.635c.02-.207.192-.365.4-.365h3.27c.206 0 .378.156.398.36l.74 6.475L53 43l11.56 1.7c3.277.482 5.918 2.934 6.642 6.167L77.5 79zm-18-18l-2-4-6 4h8z"/></svg>