<svg xmlns="http://www.w3.org/2000/svg" viewBox="0 0 90 90"><path d="M69 26h-4v2c0 2.76-2.24 5-5 5s-5-2.24-5-5v-2H36v2c0 2.76-2.24 5-5 5s-5-2.24-5-5v-2h-4c-2.76 0-5 2.24-5 5v37c0 2.76 2.24 5 5 5h47c2.76 0 5-2.24 5-5V31c0-2.76-2.24-5-5-5zm1 42c0 .55-.45 1-1 1H22c-.55 0-1-.45-1-1V39c0-.55.45-1 1-1h47c.55 0 1 .45 1 1v29zM34 52h-7c-1.105 0-2-.895-2-2v-7c0-1.105.895-2 2-2h7c1.105 0 2 .895 2 2v7c0 1.105-.895 2-2 2zm0 14h-7c-1.105 0-2-.895-2-2v-7c0-1.105.895-2 2-2h7c1.105 0 2 .895 2 2v7c0 1.105-.895 2-2 2zm15-14h-7c-1.105 0-2-.895-2-2v-7c0-1.105.895-2 2-2h7c1.105 0 2 .895 2 2v7c0 1.105-.895 2-2 2zm0 14h-7c-1.105 0-2-.895-2-2v-7c0-1.105.895-2 2-2h7c1.105 0 2 .895 2 2v7c0 1.105-.895 2-2 2zm15-14h-7c-1.105 0-2-.895-2-2v-7c0-1.105.895-2 2-2h7c1.105 0 2 .895 2 2v7c0 1.105-.895 2-2 2zm0 14h-7c-1.105 0-2-.895-2-2v-7c0-1.105.895-2 2-2h7c1.105 0 2 .895 2 2v7c0 1.105-.895 2-2 2zM34 21v7c0 1.66-1.34 3-3 3s-3-1.34-3-3v-7c0-1.66 1.34-3 3-3s3 1.34 3 3zm29 0v7c0 1.66-1.34 3-3 3s-3-1.34-3-3v-7c0-1.66 1.34-3 3-3s3 1.34 3 3z"/></svg>