<svg xmlns="http://www.w3.org/2000/svg" viewBox="0 0 90 90"><path d="M61.893 41.458c-1.983-3.45-5.055-7.355-9.488-9.458h.66c.827 0 1.5-.672 1.5-1.5s-.673-1.5-1.5-1.5h-2.22c3.352-1.99 6.53-4.76 6.53-7.52 0-2.32-1.65-4.32-3.9-4.797-.487-2.98-3.036-5.184-6.08-5.184-1.75 0-3.394.742-4.57 2.052-.924-.518-1.956-.79-3.014-.79-3.412 0-6.188 2.777-6.188 6.19 0 3.15 3.864 7.358 7.48 10.047h-3.168c-.83 0-1.5.67-1.5 1.5s.67 1.5 1.5 1.5h.66c-4.434 2.102-7.506 6.007-9.49 9.457-3.556 6.187-5.596 14.34-5.596 22.372 0 9.226 9.043 15.67 21.99 15.67 12.948 0 21.99-6.444 21.99-15.67.002-8.03-2.038-16.185-5.595-22.372zm-10.717 9.894c-.788.263-1.636-.162-1.9-.946-.327-.98-1.514-2.127-3.775-2.127-1.86 0-2.963 1.245-3.09 2.477-.16 1.537 1.11 2.74 3.398 3.22 4.65.974 6.014 4.09 5.768 6.464-.254 2.463-2.128 4.398-4.575 4.976v1.727c0 .828-.67 1.5-1.5 1.5s-1.5-.672-1.5-1.5v-1.665c-2.908-.495-4.565-2.385-5.12-4.042-.264-.786.16-1.636.945-1.9.79-.26 1.636.163 1.9.947.327.98 1.514 2.127 3.775 2.127 1.86 0 2.964-1.246 3.092-2.478.16-1.537-1.11-2.74-3.4-3.22-4.65-.974-6.013-4.09-5.767-6.464.254-2.462 2.128-4.397 4.575-4.975v-1.727c0-.828.672-1.5 1.5-1.5s1.5.672 1.5 1.5v1.665c2.91.496 4.566 2.386 5.122 4.043.263.785-.16 1.635-.946 1.9z"/></svg>