<svg xmlns="http://www.w3.org/2000/svg" viewBox="0 0 90 90"><path d="M78 81H13v-6h65v6zM45.5 9L8.91 35h6.534l30.053-21.09L75.49 35H82L45.5 9zM49 64.42V39.58c1.15-.5 2.08-1.43 2.58-2.58H39.42c.5 1.15 1.43 2.08 2.58 2.58v24.84c-1.15.5-2.08 1.43-2.58 2.58h12.16c-.5-1.15-1.43-2.08-2.58-2.58zm-18 0V39.58c1.15-.5 2.08-1.43 2.58-2.58H21.42c.5 1.15 1.43 2.08 2.58 2.58v24.84c-1.15.5-2.08 1.43-2.58 2.58h12.16c-.5-1.15-1.43-2.08-2.58-2.58zm36 0V39.58c1.15-.5 2.08-1.43 2.58-2.58H57.42c.5 1.15 1.43 2.08 2.58 2.58v24.84c-1.15.5-2.08 1.43-2.58 2.58h12.16c-.5-1.15-1.43-2.08-2.58-2.58zM70.5 35l-25-18-25 18h50zM73 69H18v4h55v-4z"/></svg>