<svg xmlns="http://www.w3.org/2000/svg" viewBox="0 0 90 90"><path d="M55.5 76.5c0 1.104-.896 2-2 2h-16c-1.104 0-2-.896-2-2s.896-2 2-2h16c1.104 0 2 .896 2 2zm-2 3h-16c-1.316 0-2.335 1.27-1.897 2.652.264.833 1.107 1.348 1.98 1.348h.03c1.156 0 2.212.653 2.73 1.686l.02.042c.697 1.392 2.12 2.272 3.677 2.272h2.92c1.557 0 2.98-.88 3.676-2.272l.02-.042c.518-1.033 1.574-1.686 2.73-1.686h.03c.873 0 1.716-.515 1.98-1.348.44-1.38-.58-2.652-1.896-2.652zm-8-64c1.104 0 2-.896 2-2v-8c0-1.104-.896-2-2-2s-2 .896-2 2v8c0 1.104.896 2 2 2zm-21.213 7.615c.39.39.902.586 1.414.586s1.025-.194 1.415-.585c.78-.78.78-2.047 0-2.828l-5.657-5.657c-.78-.78-2.048-.78-2.828 0-.78.78-.78 2.047 0 2.828l5.657 5.657zM19.5 41.5c0-1.104-.896-2-2-2h-8c-1.104 0-2 .896-2 2s.896 2 2 2h8c1.104 0 2-.896 2-2zm4.787 18.385l-5.657 5.657c-.78.78-.78 2.047 0 2.828.39.39.902.586 1.414.586s1.024-.195 1.414-.586l5.657-5.657c.78-.78.78-2.047 0-2.828-.78-.78-2.048-.78-2.828 0zm42.426 0c-.78-.78-2.047-.78-2.828 0s-.78 2.047 0 2.828l5.657 5.657c.39.39.902.586 1.414.586s1.023-.195 1.414-.586c.78-.78.78-2.047 0-2.828l-5.657-5.657zM81.5 39.5h-8c-1.104 0-2 .896-2 2s.896 2 2 2h8c1.104 0 2-.896 2-2s-.896-2-2-2zM65.3 23.7c.51 0 1.022-.194 1.413-.585l5.657-5.657c.78-.78.78-2.047 0-2.828s-2.047-.78-2.828 0l-5.657 5.657c-.78.78-.78 2.047 0 2.828.39.39.902.586 1.414.586zm-9.8 47.8c0 1.104-.896 2-2 2h-16c-1.104 0-2-.896-2-2 0-1.065.835-1.928 1.885-1.988C36.14 58.258 24.5 55.752 24.5 42.5c0-11.598 9.402-21 21-21s21 9.402 21 21c0 13.25-11.64 15.758-12.885 27.012 1.05.06 1.885.923 1.885 1.988zM40.89 27.11c-.31-.767-1.183-1.136-1.953-.827-5.11 2.07-8.986 6.498-10.365 11.842-.207.803.276 1.62 1.078 1.827.125.033.25.048.375.048.668 0 1.277-.45 1.452-1.125 1.142-4.428 4.352-8.096 8.586-9.81.768-.312 1.138-1.186.828-1.955z"/></svg>