<svg xmlns="http://www.w3.org/2000/svg" viewBox="0 0 90 90"><path d="M58.72 31.232c.374 1.153-.257 2.39-1.41 2.764-1.153.374-2.39-.258-2.764-1.41-.374-1.153.258-2.39 1.41-2.764 1.152-.375 2.39.257 2.764 1.41zm-14.065-.108c0-1.41-1.143-2.552-2.552-2.552-1.41 0-2.552 1.143-2.552 2.552 0 1.41 1.144 2.552 2.553 2.552 1.41 0 2.552-1.142 2.552-2.552zm3.63 10.696c-1.086-.444-2.326.075-2.77 1.16-.444 1.085.075 2.325 1.16 2.77 1.085.443 2.325-.076 2.77-1.16.443-1.086-.076-2.326-1.16-2.77zm23.43-3.85c0 9.9-6.084 18.374-14.715 21.9V73c0 2.21-1.79 4-4 4H40c-2.21 0-4-1.79-4-4v-7.97l-4.284.59c-3.41.82-6.69-1.765-6.69-5.272v-12.42h-3.82c-1.907 0-3.106-2.057-2.165-3.717l5.663-9.99C26.5 22.936 36.27 14.313 48.06 14.313c13.064 0 23.655 10.59 23.655 23.655zm-30.633.81h2.042l.585-2.632c.28-.09.55-.204.807-.338l2.278 1.45 1.444-1.444-1.45-2.278c.132-.258.247-.527.337-.808l2.633-.585v-2.042l-2.633-.585c-.09-.28-.204-.55-.338-.808l1.45-2.278-1.445-1.444-2.278 1.45c-.258-.133-.527-.248-.808-.338l-.586-2.633h-2.042l-.585 2.633c-.28.09-.55.204-.808.338l-2.28-1.45-1.443 1.444 1.45 2.278c-.133.258-.248.527-.338.808l-2.634.585v2.042l2.633.585c.09.28.203.55.337.808l-1.45 2.278 1.444 1.444 2.28-1.45c.257.133.526.248.807.338l.585 2.633zm12.613 6.63l-1.842-1.28c.02-.243.016-.487-.005-.727l1.834-1.297-.656-1.566-2.21.398c-.158-.184-.33-.357-.517-.515l.378-2.21-1.572-.644-1.28 1.84c-.244-.018-.488-.015-.728.006L45.8 37.582l-1.565.656.398 2.21c-.184.158-.357.33-.514.517l-2.212-.38-.643 1.573 1.842 1.28c-.02.244-.016.488.005.728l-1.834 1.297.656 1.566 2.21-.4c.158.185.33.358.517.515l-.378 2.21 1.57.645 1.28-1.842c.244.02.488.016.728-.005l1.297 1.834 1.566-.656-.398-2.21c.184-.157.357-.328.514-.516l2.21.38.645-1.573zm7.41-12.77c.04-.246.063-.497.062-.75l1.998-1.177-.542-1.67-2.308.22c-.148-.206-.313-.396-.49-.57l.58-2.25-1.563-.797-1.478 1.79c-.246-.04-.497-.063-.75-.062l-1.177-1.998-1.67.542.22 2.308c-.206.148-.396.313-.57.49l-2.25-.58-.797 1.563 1.79 1.478c-.04.246-.063.497-.062.75L50.1 33.104l.542 1.67 2.308-.22c.148.206.313.396.49.57l-.58 2.25 1.563.797 1.48-1.79c.245.04.496.064.75.063l1.176 1.998 1.67-.54-.22-2.31c.205-.147.395-.312.57-.49l2.247.582.798-1.564-1.79-1.478z"/></svg>