<svg xmlns="http://www.w3.org/2000/svg" viewBox="0 0 90 90"><path d="M33 59c0 4.97-4.03 9-9 9s-9-4.03-9-9 4.03-9 9-9 9 4.03 9 9zm5 22c0-5.523-4.477-10-10-10h-8c-5.523 0-10 4.477-10 10v4h28v-4zm28.5-31c-4.97 0-9 4.03-9 9s4.03 9 9 9 9-4.03 9-9-4.03-9-9-9zm14 31c0-5.523-4.477-10-10-10h-8c-5.523 0-10 4.477-10 10v4h28v-4zM71 12v24c0 3.314-2.686 6-6 6h-2.25L64 47s-5.666-1.077-8.352-5H38.352C35.666 45.923 30 47 30 47l1.25-5H27c-3.314 0-6-2.686-6-6V12c0-3.314 2.686-6 6-6h38c3.314 0 6 2.686 6 6zm-18.378 5.624c-.556-1.657-2.213-3.547-5.122-4.042v-1.665c0-.828-.672-1.5-1.5-1.5s-1.5.672-1.5 1.5v1.727c-2.448.578-4.32 2.513-4.575 4.975-.246 2.372 1.117 5.49 5.768 6.463 2.288.48 3.56 1.683 3.4 3.22-.13 1.23-1.23 2.478-3.093 2.478-2.262 0-3.448-1.145-3.776-2.126-.264-.784-1.11-1.208-1.9-.946-.784.264-1.208 1.113-.945 1.9.555 1.656 2.212 3.546 5.12 4.04v1.666c0 .828.673 1.5 1.5 1.5s1.5-.672 1.5-1.5v-1.727c2.45-.578 4.322-2.513 4.576-4.975.246-2.373-1.117-5.49-5.768-6.464-2.288-.48-3.56-1.683-3.4-3.22.13-1.23 1.23-2.478 3.093-2.478 2.263 0 3.45 1.146 3.777 2.127.264.784 1.11 1.21 1.9.946.784-.264 1.208-1.113.945-1.9zM66.5 50c-4.97 0-9 4.03-9 9s4.03 9 9 9 9-4.03 9-9-4.03-9-9-9zm14 31c0-5.523-4.477-10-10-10h-8c-5.523 0-10 4.477-10 10v4h28v-4z"/></svg>