<svg xmlns="http://www.w3.org/2000/svg" viewBox="0 0 90 90"><path d="M16 45c0-4.97 4.03-9 9-9s9 4.03 9 9-4.03 9-9 9-9-4.03-9-9zm49 9c4.97 0 9-4.03 9-9s-4.03-9-9-9-9 4.03-9 9 4.03 9 9 9zm4 3h-8c-5.523 0-10 4.477-10 10v5.684c0 .633-.3 1.23-.808 1.606l-4.786 3.242c-.348.236-.807.23-1.147-.018l-4.45-3.224c-.51-.378-.81-.973-.81-1.606V67c0-5.523-4.477-10-10-10h-8c-5.523 0-10 4.477-10 10v13.03c0 1.364 1.106 2.47 2.47 2.47h.06c1.364 0 2.47-1.106 2.47-2.47V88h18V76.495l5 3.515 3.785 2.517c1.342.892 3.088.892 4.43 0L51 80.01l5-3.515V88h18v-7.97c0 1.364 1.106 2.47 2.47 2.47h.06c1.364 0 2.47-1.106 2.47-2.47V67c0-5.523-4.477-10-10-10zm-4-40c0 7.732-9.402 14-21 14-1.24 0-2.45-.086-3.63-.223-2.987 3.22-8.87 3.723-8.87 3.723 1.02-1.88 1.688-3.692 1.912-5.424C27.19 26.646 23 22.154 23 17c0-7.732 9.402-14 21-14s21 6.268 21 14zm-26.5 0c0-1.657-1.343-3-3-3s-3 1.343-3 3 1.343 3 3 3 3-1.343 3-3zm9 0c0-1.657-1.343-3-3-3s-3 1.343-3 3 1.343 3 3 3 3-1.343 3-3zm9 0c0-1.657-1.343-3-3-3s-3 1.343-3 3 1.343 3 3 3 3-1.343 3-3z"/></svg>