<svg xmlns="http://www.w3.org/2000/svg" width="864" height="864" viewBox="0 0 864 864"><path d="M604.224 337.248l-28.03 28.032c13.15 24.192 20.64 51.744 20.64 81.12 0 93.504-76.13 169.632-169.633 169.632S257.57 539.904 257.57 446.4 333.696 276.768 427.2 276.768c29.376 0 56.928 7.488 81.12 20.64l28.03-28.032c-31.774-19.68-69.118-31.008-109.15-31.008-114.72 0-208.032 93.312-208.032 208.032 0 114.72 93.312 208.03 208.032 208.03s208.032-93.31 208.032-208.03c0-40.032-11.328-77.376-31.008-109.152zM526.368 415.2l-33.696 33.6c-1.248 35.136-30.048 63.168-65.472 63.168-36.192 0-65.568-29.376-65.568-65.567 0-35.424 28.032-64.224 63.168-65.47l33.696-33.6c-9.888-3.17-20.352-4.897-31.296-4.897-57.312 0-103.968 46.656-103.968 103.968 0 57.313 46.655 103.97 103.968 103.97 57.312 0 103.968-46.657 103.968-103.97 0-10.848-1.632-21.408-4.8-31.2zm172.416-131.712l-28.032 28.032c22.176 39.936 34.848 85.92 34.848 134.88 0 153.504-124.896 278.4-278.4 278.4-153.504 0-278.4-124.896-278.4-278.4 0-153.503 124.896-278.4 278.4-278.4 48.96 0 94.944 12.673 134.88 34.85l28.032-28.033C542.496 146.112 486.72 129.6 427.2 129.6c-174.72 0-316.8 142.08-316.8 316.8s142.08 316.8 316.8 316.8S744 621.12 744 446.4c0-59.52-16.512-115.296-45.216-162.912zm-41.606.816l-36.653-4.07L439.95 460.8c-7.5 7.498-19.652 7.498-27.15 0-7.497-7.497-7.497-19.65 0-27.148l180.566-180.566-4.07-36.653 101.827-101.827 13.574 54.307 54.308 13.574-101.827 101.817z"/><text transform="translate(868.5 434.5)" fill="#EF8111" font-family="'MyriadPro-Regular'" font-size="12">v</text></svg>