<svg xmlns="http://www.w3.org/2000/svg" viewBox="0 0 90 90"><path d="M72.04 19H17.96C15.773 19 14 17.227 14 15.04v-.08c0-2.187 1.773-3.96 3.96-3.96h54.08c2.187 0 3.96 1.773 3.96 3.96v.08c0 2.187-1.773 3.96-3.96 3.96zm.96 2v33c0 2.76-2.24 5-5 5H46v9.26l13.516 5.405c1.025.41 1.524 1.574 1.114 2.6-.41 1.025-1.57 1.523-2.6 1.115L46 72.567V77c0 1.104-.896 2-2 2s-2-.896-2-2v-4.413l-12.02 4.89c-.246.102-.5.15-.752.15-.79 0-1.537-.472-1.854-1.248-.416-1.024.075-2.19 1.1-2.607L42 68.268V59H22c-2.76 0-5-2.24-5-5V21h56zM35 42h-6v10h6V42zm13-14h-6v24h6V28zm13 6h-6v18h6V34z"/></svg>