<svg xmlns="http://www.w3.org/2000/svg" viewBox="0 0 90 90"><path d="M19.26 31.18c-5.06 0-9.17 4.11-9.17 9.17 0 5.07 4.11 9.17 9.17 9.17 5.07 0 9.17-4.1 9.17-9.17 0-5.06-4.1-9.17-9.17-9.17zm-4.07 21.4C9.56 52.58 5 57.14 5 62.77v4.73h13.98l2.69-12.53c.19-.85.51-1.66.93-2.39h-7.41zm55.55-21.4c-5.07 0-9.17 4.11-9.17 9.17 0 5.07 4.1 9.17 9.17 9.17 5.06 0 9.17-4.1 9.17-9.17 0-5.06-4.11-9.17-9.17-9.17zm4.07 21.4h-6.47c.42.73.74 1.53.93 2.37l2.69 12.55H85v-4.73c0-5.63-4.56-10.19-10.19-10.19zm-18.7-17.944c0 5.874-4.76 10.636-10.635 10.636S34.84 40.51 34.84 34.636 39.6 24 45.473 24 56.11 28.762 56.11 34.636zm-10.636 18c.655 0 1.477 0 1.968-.49.49-.492 1.3-1.8 1.305-2.783.004-1.145-1.998-1.31-3.273-1.31-1.275 0-3.277.165-3.273 1.31.005.982.815 2.29 1.306 2.782.49.49 1.314.49 1.968.49zM21.03 67.5l2.598-12.11c.592-2.644 2.753-4.65 5.435-5.045l9.457-1.39 4.743 10.88.55-5.428c.014-.17.155-.3.325-.3h2.676c.168 0 .31.13.326.296l.605 5.297 4.684-10.746 9.456 1.39c2.682.395 4.843 2.402 5.435 5.047l2.6 12.11H21.03z"/></svg>