<svg xmlns="http://www.w3.org/2000/svg" viewBox="0 0 90 90"><path d="M67 35.93h-6.28V30.3c0-10.897-5.02-17.3-15.044-17.3-10.023 0-15.042 6.403-15.042 17.298v5.63H24c-2.76 0-5 2.24-5 5v28.17c0 2.304 1.568 4.304 3.805 4.856C27.61 75.14 36.305 76.93 45 76.93c8.766 0 17.987-1.71 23.063-2.825C70.363 73.6 72 71.572 72 69.22V40.93c0-2.763-2.24-5-5-5zM51.476 51.21c-.788.263-1.636-.162-1.9-.946-.327-.98-1.514-2.127-3.775-2.127-1.86 0-2.963 1.246-3.09 2.478-.16 1.537 1.11 2.74 3.398 3.22 4.65.974 6.014 4.09 5.768 6.464-.254 2.46-2.128 4.396-4.575 4.974V67c0 .828-.67 1.5-1.5 1.5s-1.5-.672-1.5-1.5v-1.665c-2.908-.495-4.565-2.385-5.12-4.042-.264-.786.16-1.636.945-1.9.79-.26 1.636.163 1.9.947.327.98 1.514 2.127 3.775 2.127 1.86 0 2.964-1.246 3.092-2.478.16-1.538-1.11-2.74-3.4-3.22-4.65-.975-6.013-4.092-5.767-6.465.254-2.462 2.128-4.397 4.575-4.975v-1.727c0-.828.672-1.5 1.5-1.5s1.5.672 1.5 1.5v1.665c2.91.495 4.566 2.385 5.122 4.042.263.787-.16 1.636-.946 1.9zm1.722-15.28H38.155v-7.135c0-5.434 2.998-8.273 7.52-8.273 4.524 0 7.522 2.84 7.522 8.273v7.134z"/></svg>