<svg xmlns="http://www.w3.org/2000/svg" viewBox="0 0 90 90"><path d="M54.72 45c0 2.8 1.4 8.4 7 8.4s7-4.2 8.4-4.2c.49 0 .98.168 1.4.504V63.2s-7-1.4-9.8-1.4c-2.8 0-4.2 1.4-4.2 2.8s4.2 2.8 4.2 8.4-5.6 7-8.4 7-8.4-1.4-8.4-7 4.2-7 4.2-8.4c0-1.4-1.4-2.8-4.2-2.8-2.8 0-9.8 1.4-9.8 1.4s1.4-7 1.4-9.8c0-2.8-1.4-4.2-2.8-4.2s-2.8 4.2-8.4 4.2-7-5.6-7-8.4 1.4-8.4 7-8.4 7 4.2 8.4 4.2c1.4 0 2.8-1.4 2.8-4.2 0-2.8-1.4-9.8-1.4-9.8s7 1.4 9.8 1.4c2.8 0 4.2-1.4 4.2-2.8s-4.2-2.8-4.2-8.4 5.6-7 8.4-7 8.4 1.4 8.4 7-4.2 7-4.2 8.4 1.4 2.8 4.2 2.8c2.8 0 9.8-1.4 9.8-1.4v13.496c-.42.336-.91.504-1.4.504-1.4 0-2.8-4.2-8.4-4.2s-7 5.6-7 8.4z"/></svg>