<svg xmlns="http://www.w3.org/2000/svg" viewBox="0 0 90 90"><path d="M45 16c-16.016 0-29 12.984-29 29s12.984 29 29 29 29-12.984 29-29-12.984-29-29-29zm0 53.236c-13.385 0-24.236-10.85-24.236-24.236S31.614 20.764 45 20.764 69.236 31.614 69.236 45 58.386 69.236 45 69.236zm9.943-17.713c.772.79.76 2.056-.028 2.83-2.112 2.07-4.78 3.366-7.658 3.783v2.29c0 1.103-.896 2-2 2s-2-.897-2-2v-2.292C36.597 57.16 31.46 51.426 31.46 44.5s5.137-12.66 11.797-13.634v-2.29c0-1.105.896-2 2-2s2 .895 2 2v2.287c2.97.43 5.708 1.793 7.85 3.976.773.788.762 2.054-.027 2.827s-2.054.762-2.828-.027c-1.857-1.894-4.34-2.937-6.994-2.937-5.4 0-9.796 4.395-9.796 9.796s4.395 9.795 9.796 9.795c2.58 0 5.016-.994 6.857-2.8.79-.773 2.053-.76 2.828.028z"/></svg>