<svg xmlns="http://www.w3.org/2000/svg" viewBox="0 0 90 90"><path d="M838.91 448c0 1.104-.897 2-2 2H814c-1.104 0-2-.896-2-2s.896-2 2-2h3.09v-8.728h-1.817c-1.104 0-2-.896-2-2s.896-2 2-2h1.818v-3.727c0-6.366 5.18-11.546 11.547-11.546 3.827 0 7.398 1.89 9.553 5.06.62.913.384 2.157-.53 2.778-.913.62-2.156.383-2.778-.53-1.408-2.07-3.742-3.31-6.244-3.31-4.16 0-7.546 3.386-7.546 7.547v3.727h8.182c1.104 0 2 .896 2 2s-.896 2-2 2h-8.182V446h15.818c1.104 0 2 .896 2 2zM855 436c0 16.016-12.984 29-29 29s-29-12.984-29-29 12.984-29 29-29 29 12.984 29 29zm-4.764 0c0-13.385-10.85-24.236-24.236-24.236s-24.236 10.85-24.236 24.236 10.85 24.236 24.236 24.236 24.236-10.85 24.236-24.236zM57.91 57c0 1.104-.897 2-2 2H33c-1.104 0-2-.896-2-2s.896-2 2-2h3.09v-8.728h-1.817c-1.104 0-2-.896-2-2s.896-2 2-2h1.818v-3.727C36.09 32.18 41.27 27 47.638 27c3.827 0 7.398 1.892 9.553 5.06.62.914.384 2.158-.53 2.78-.913.62-2.156.382-2.778-.53-1.41-2.073-3.743-3.31-6.245-3.31-4.16 0-7.546 3.385-7.546 7.546v3.727h8.183c1.104 0 2 .896 2 2s-.896 2-2 2H40.09V55h15.82c1.104 0 2 .896 2 2zM74 45c0 16.016-12.984 29-29 29S16 61.016 16 45s12.984-29 29-29 29 12.984 29 29zm-4.764 0c0-13.385-10.85-24.236-24.236-24.236S20.764 31.614 20.764 45 31.614 69.236 45 69.236 69.236 58.386 69.236 45z"/></svg>