<svg xmlns="http://www.w3.org/2000/svg" viewBox="0 0 90 90"><path d="M54.897 81.652C54.633 82.485 53.79 83 52.915 83h-.03c-1.155 0-2.21.653-2.728 1.686l-.02.042C49.44 86.12 48.016 87 46.46 87h-2.92c-1.557 0-2.98-.88-3.676-2.272l-.02-.042C39.325 83.653 38.27 83 37.113 83h-.03c-.873 0-1.716-.515-1.98-1.348-.44-1.38.58-2.652 1.896-2.652h16c1.316 0 2.335 1.27 1.897 2.652zm-31.11-22.267l-5.657 5.657c-.78.78-.78 2.047 0 2.828.39.39.902.586 1.414.586s1.024-.195 1.414-.586l5.657-5.657c.78-.78.78-2.047 0-2.828-.78-.78-2.048-.78-2.828 0zM19 41c0-1.104-.896-2-2-2H9c-1.104 0-2 .896-2 2s.896 2 2 2h8c1.104 0 2-.896 2-2zm26-26c1.104 0 2-.896 2-2V5c0-1.104-.896-2-2-2s-2 .896-2 2v8c0 1.104.896 2 2 2zm19.8 8.2c.51 0 1.022-.194 1.413-.585l5.657-5.657c.78-.78.78-2.047 0-2.828s-2.047-.78-2.828 0l-5.657 5.657c-.78.78-.78 2.047 0 2.828.39.39.902.586 1.414.586zm-41.013-.585c.39.39.902.586 1.414.586s1.025-.194 1.415-.585c.78-.78.78-2.047 0-2.828l-5.657-5.657c-.78-.78-2.048-.78-2.828 0-.78.78-.78 2.047 0 2.828l5.657 5.657zM81 39h-8c-1.104 0-2 .896-2 2s.896 2 2 2h8c1.104 0 2-.896 2-2s-.896-2-2-2zM66.213 59.385c-.78-.78-2.047-.78-2.828 0s-.78 2.047 0 2.828l5.657 5.657c.39.39.902.586 1.414.586s1.023-.195 1.414-.586c.78-.78.78-2.047 0-2.828l-5.657-5.657zM53 74H37c-1.104 0-2 .896-2 2s.896 2 2 2h16c1.104 0 2-.896 2-2s-.896-2-2-2zm2-3c0 1.104-.896 2-2 2H37c-1.104 0-2-.896-2-2 0-1.065.835-1.928 1.885-1.988C35.64 57.758 24 55.252 24 42c0-11.598 9.402-21 21-21s21 9.402 21 21c0 13.25-11.64 15.758-12.885 27.012 1.05.06 1.885.923 1.885 1.988zm-2.013-34.103c-.68-2.037-2.76-4.373-6.455-4.88v-2.414c0-.828-.672-1.5-1.5-1.5s-1.5.672-1.5 1.5v2.458c-3.068.595-5.437 2.976-5.75 6.002-.293 2.823 1.35 6.536 6.942 7.707 3.04.636 4.794 2.346 4.574 4.46-.178 1.72-1.7 3.46-4.267 3.46-3.046 0-4.655-1.582-5.108-2.936-.263-.785-1.112-1.21-1.898-.947s-1.21 1.113-.947 1.898c.682 2.037 2.762 4.373 6.455 4.88V59c0 .828.672 1.5 1.5 1.5s1.5-.672 1.5-1.5v-2.458c3.068-.594 5.437-2.975 5.75-6 .293-2.824-1.35-6.537-6.942-7.708-3.04-.637-4.794-2.347-4.574-4.462.178-1.72 1.7-3.458 4.267-3.458 3.047 0 4.657 1.58 5.11 2.935.262.784 1.108 1.21 1.897.946.786-.263 1.21-1.112.947-1.9z"/></svg>