<svg xmlns="http://www.w3.org/2000/svg" viewBox="0 0 90 90"><path d="M75 18H48v-5c0-1.657-1.343-3-3-3s-3 1.343-3 3v5H15c-1.657 0-3 1.343-3 3v40c0 1.657 1.343 3 3 3h16.29l-7.483 12.006c-.876 1.406-.447 3.257.96 4.133.493.307 1.04.453 1.583.453 1 0 1.98-.5 2.55-1.413L38.357 64H52.64l9.46 15.18c.57.912 1.548 1.413 2.55 1.413.542 0 1.09-.146 1.584-.454 1.406-.877 1.835-2.728.96-4.134L59.71 64H75c1.657 0 3-1.343 3-3V21c0-1.657-1.343-3-3-3zM61.755 42.854l-2.78-3.89-14.99 10.72-3.262-9.428L24.56 52.48l-2.413-3.19 20.558-15.546 3.31 9.57L56.65 35.71l-2.782-3.888 13.497-1.314-5.61 12.346z"/></svg>