<svg xmlns="http://www.w3.org/2000/svg" viewBox="0 0 90 90"><path d="M71.016 25.055H58V23c0-3.31-2.69-6-6-6H39c-3.31 0-6 2.69-6 6v2.055H20.016c-4.418 0-8 3.582-8 8V64.46c0 4.42 3.582 8 8 8h51c4.418 0 8-3.58 8-8V33.056c0-4.42-3.582-8-8-8zM37 23c0-1.103.897-2 2-2h13c1.103 0 2 .897 2 2v2.055H37V23zm15.975 20.416c-1.054.35-2.18-.215-2.53-1.262-.43-1.278-1.976-2.77-4.93-2.77-2.424 0-3.86 1.62-4.025 3.223-.207 2 1.45 3.567 4.437 4.192 6.124 1.282 7.92 5.39 7.596 8.52-.336 3.238-2.788 5.806-6.006 6.57v2.222c0 1.104-.896 2-2 2s-2-.896-2-2V61.96c-3.82-.658-5.99-3.15-6.72-5.33-.352-1.048.213-2.182 1.26-2.532 1.047-.352 2.182.215 2.532 1.262.427 1.278 1.975 2.77 4.927 2.77 2.425 0 3.86-1.62 4.026-3.223.207-2-1.45-3.567-4.437-4.192-6.124-1.283-7.92-5.392-7.596-8.52.336-3.24 2.788-5.807 6.006-6.572v-2.22c0-1.105.896-2 2-2s2 .895 2 2v2.15c3.82.66 5.99 3.15 6.72 5.33.35 1.05-.215 2.182-1.26 2.533z"/></svg>