<svg xmlns="http://www.w3.org/2000/svg" viewBox="0 0 90 90"><path d="M79.372 34.166l.022-.013-10.192-17.765.22-.047c.92-.198 1.578-1.013 1.578-1.955v-.908c0-1.274-1.176-2.224-2.422-1.955l-47 10.137c-.92.198-1.578 1.013-1.578 1.955v.908c0 1.237 1.11 2.158 2.313 1.966L11.606 45.152l.022.013H9.156c0 6.347 6.684 11.492 14.93 11.492 8.244 0 14.928-5.145 14.928-11.492h-2.12l.022-.013-11.13-19.4L43 22.038v51.6c-8.36.646-10.383 4.375-10.383 4.375h25.818S56.403 74.27 48 73.635V20.96l15.58-3.36-9.494 16.553.022.013h-2.12c0 6.347 6.683 11.492 14.928 11.492 8.245 0 14.93-5.145 14.93-11.492H79.37zm-64.315 11l9.203-16.043 9.203 16.043H15.057zm42.48-11l9.202-16.044 9.203 16.044H57.536z"/></svg>