<svg xmlns="http://www.w3.org/2000/svg" viewBox="0 0 90 90"><path d="M61.32 50H27.68c-2.08 0-3.812-1.595-3.985-3.668l-.514-6.166C23.084 39 24.005 38 25.175 38h38.653c1.17 0 2.09 1 1.993 2.166l-.514 6.166C65.133 48.405 63.4 50 61.32 50zM61 52H28l4 30h25l4-30zM44.67 22.99c3.726 0 6.745-3.02 6.745-6.745S48.395 9.5 44.67 9.5s-6.743 3.02-6.743 6.745c0 3.724 3.02 6.744 6.744 6.744zM60 36l-1.477-6.595c-.375-1.677-1.746-2.95-3.446-3.2l-5.997-.88-2.97 6.813-.383-3.358c-.01-.106-.1-.187-.206-.187h-1.696c-.108 0-.197.082-.207.19l-.348 3.44-3.008-6.898-5.997.882c-1.7.25-3.07 1.522-3.446 3.2L29.34 36H60zM42.596 25.583c.002.623.516 1.453.827 1.764.31.31.833.31 1.248.31.416 0 .938 0 1.25-.31.31-.31.824-1.14.826-1.764.003-.726-1.267-.83-2.075-.83-.808 0-2.077.103-2.074.83z"/></svg>