<svg xmlns="http://www.w3.org/2000/svg" viewBox="0 0 90 90"><path d="M72 25H50v-4c0-2.76-2.24-5-5-5s-5 2.24-5 5v4H18c-3.314 0-6 2.686-6 6v36c0 3.314 2.686 6 6 6h54c3.314 0 6-2.686 6-6V31c0-3.314-2.686-6-6-6zm-27-6c1.105 0 2 .895 2 2s-.895 2-2 2-2-.895-2-2 .895-2 2-2zM32 33.5c4.616 0 8.357 3.742 8.357 8.357s-3.74 8.357-8.357 8.357-8.357-3.742-8.357-8.357S27.383 33.5 32 33.5zM45 66H19v-3.714C19 57.156 23.157 53 28.286 53h7.43C40.842 53 45 57.157 45 62.286V66zm26-19H52v-3h19v3zm1-7H47v-3h25v3z"/></svg>