<svg xmlns="http://www.w3.org/2000/svg" viewBox="0 0 90 90"><path d="M28 44.5c0 1.38-1.12 2.5-2.5 2.5h-5c-1.38 0-2.5-1.12-2.5-2.5s1.12-2.5 2.5-2.5h5c1.38 0 2.5 1.12 2.5 2.5zm0-16c0-1.38-1.12-2.5-2.5-2.5h-5c-1.38 0-2.5 1.12-2.5 2.5s1.12 2.5 2.5 2.5h5c1.38 0 2.5-1.12 2.5-2.5zm0 32c0-1.38-1.12-2.5-2.5-2.5h-5c-1.38 0-2.5 1.12-2.5 2.5s1.12 2.5 2.5 2.5h5c1.38 0 2.5-1.12 2.5-2.5zM72 20v49c0 4.418-3.582 8-8 8H29c-4.418 0-8-3.582-8-8v-4h4.5c2.48 0 4.5-2.02 4.5-4.5S27.98 56 25.5 56H21v-7h4.5c2.48 0 4.5-2.02 4.5-4.5S27.98 40 25.5 40H21v-7h4.5c2.48 0 4.5-2.02 4.5-4.5S27.98 24 25.5 24H21v-4c0-4.418 3.582-8 8-8h35c4.418 0 8 3.582 8 8zM40.286 35.714c0 4.26 3.454 7.714 7.714 7.714s7.714-3.454 7.714-7.714S52.26 28 48 28s-7.714 3.454-7.714 7.714zM60 54.57C60 49.84 56.162 46 51.43 46H44.57C39.838 46 36 49.838 36 54.57V58h24v-3.43z"/></svg>