<svg xmlns="http://www.w3.org/2000/svg" viewBox="0 0 90 90"><path d="M44.5 16.5c-16.016 0-29 12.984-29 29s12.984 29 29 29 29-12.984 29-29-12.984-29-29-29zm0 53.236c-13.385 0-24.236-10.85-24.236-24.236S31.114 21.264 44.5 21.264 68.736 32.114 68.736 45.5 57.886 69.736 44.5 69.736zm10.946-24.99c.93-1.31 1.483-2.952 1.483-4.735 0-4.29-3.2-7.767-7.147-7.767h-1.14v-6.007c0-.342-.28-.62-.62-.62H45.95c-.342 0-.62.28-.62.62v6.007h-3.315v-6.007c0-.342-.28-.62-.62-.62h-2.072c-.342 0-.62.28-.62.62v6.007h-6.837c-.343 0-.62.278-.62.62v2.093c0 .32.238.597.557.626 2.334.214 3.585 1.78 3.585 3.704V52.13c0 1.73-.893 3.104-2.845 3.292-.277.027-.507.224-.56.498l-.395 2.112c-.07.377.22.726.603.726h6.51v6.007c0 .342.28.62.62.62h2.072c.342 0 .62-.28.62-.62v-6.007h3.315v6.007c0 .342.28.62.62.62h2.072c.34 0 .62-.28.62-.62v-6.007h2.796c3.947 0 7.146-3.43 7.146-7.664.004-2.642-1.24-4.97-3.136-6.348zm-13.432-7.532h5.075c1.887 0 3.417 1.53 3.417 3.418 0 1.888-1.53 3.418-3.418 3.418h-5.076v-6.836zm6.732 16.78h-6.732v-6.837h6.732c1.888 0 3.418 1.53 3.418 3.418 0 1.888-1.53 3.418-3.418 3.418z"/></svg>