<svg xmlns="http://www.w3.org/2000/svg" viewBox="0 0 90 90"><path d="M80 19c.55 0 1-.45 1-1v-3c0-.55-.45-1-1-1H48v-1.83c0-1.63-1.22-3.08-2.84-3.17-1.73-.09-3.16 1.29-3.16 3v2H10c-.55 0-1 .45-1 1v3c0 .55.45 1 1 1h2v39h-2c-.55 0-1 .45-1 1v3c0 .55.45 1 1 1h21.29l-7.4 11.87c-.86 1.38-.59 3.24.73 4.17.53.38 1.13.55 1.73.55 1 0 1.98-.5 2.55-1.41L38.36 63h14.28l9.46 15.18c.57.91 1.55 1.41 2.55 1.41.6 0 1.2-.17 1.73-.55 1.32-.93 1.59-2.79.73-4.17L59.71 63H80c.55 0 1-.45 1-1v-3c0-.55-.45-1-1-1h-2V19h2zM42 51H19V26h23v25zm29-2H49v-3h22v3zm0-9H49v-3h22v3zm0-9H49v-3h22v3z"/></svg>