<svg xmlns="http://www.w3.org/2000/svg" viewBox="0 0 90 90"><path d="M59.01 16.716v50.688c0 1.844-2.417 2.582-3.412 1.03-5.693-8.873-11.316-13.526-31.063-14.512l6.234 20.265H21.45l-6.305-20.495C8.97 53.41 4.04 48.307 4.04 42.06c0-6.43 5.217-11.66 11.646-11.66 27.08 0 33.446-4.637 39.91-14.715.997-1.55 3.414-.813 3.414 1.03zm16.038 27.8c0 4.857-1.634 9.318-4.093 12.693 0 0-.985 1.348-2.62 1.348-1.683 0-3.17-1.413-3.17-3.186 0-1.047.628-1.898.628-1.898 1.17-1.71 2.884-4.34 2.884-8.958s-1.714-7.248-2.884-8.96c0 0-.627-.85-.627-1.897 0-1.774 1.486-3.187 3.17-3.187 1.634 0 2.62 1.35 2.62 1.35 2.46 3.375 4.092 7.836 4.092 12.693zM72.683 26.13s-1.438-1.028-1.438-2.64c0-1.812 1.49-3.197 3.186-3.197 1.092 0 2.097.77 2.097.77 3.85 2.88 10.01 10.26 10.01 23.453s-6.16 20.574-10.01 23.454c0 0-1.006.77-2.097.77-1.696 0-3.186-1.386-3.186-3.2 0-1.61 1.438-2.638 1.438-2.638 4.482-3.307 7.482-9.917 7.482-18.386s-3-15.08-7.48-18.386z"/></svg>