<svg xmlns="http://www.w3.org/2000/svg" viewBox="0 0 90 90"><path d="M17.855 27.193c0-5.097 4.132-9.228 9.228-9.228s9.228 4.132 9.228 9.228c0 5.097-4.13 9.228-9.227 9.228s-9.228-4.13-9.228-9.227zm33.84 33.058c-.764 1.248-2.63 1.397-3.98.778l-8.26-3.945c-1.1-.525-1.91-1.51-2.21-2.692l-1.666-6.568-.004 35.59c0 2.144-1.568 4.056-3.7 4.258-2.447.232-4.503-1.684-4.503-4.082 0 2.398-2.056 4.314-4.503 4.082-2.133-.202-3.7-2.115-3.7-4.257V62.055c0 1.755-1.813 3.162-3.59 3.162-1.963 0-3.587-1.664-3.587-3.33V46.673c0-3.964 3.214-7.178 7.178-7.178h17.017c2.766 0 6.047 1.403 6.575 4.832.35 2.263.872 7.947.872 7.947.038.344.248.645.556.8l6.677 3.376c1.054.54 1.782 2.245.828 3.8zM68.24 45.564H55.324c-1.062 0-1.885 1.026-1.53 2.14.212.674.893 1.09 1.6 1.09h.024c.933 0 1.785.526 2.202 1.36l.017.034c.562 1.124 1.71 1.834 2.968 1.834h2.357c1.257 0 2.406-.71 2.968-1.833l.017-.034c.417-.834 1.27-1.36 2.202-1.36h.024c.706 0 1.386-.417 1.6-1.09.35-1.114-.47-2.14-1.534-2.14zm1.542-3.988c0 .892-.723 1.615-1.615 1.615H55.25c-.89 0-1.614-.723-1.614-1.615 0-.86.674-1.556 1.522-1.605-1.005-9.085-10.402-11.108-10.402-21.806 0-9.363 7.59-16.953 16.953-16.953S78.66 8.8 78.66 18.165c0 10.698-9.397 12.72-10.402 21.806.847.05 1.522.745 1.522 1.605zM57.988 5.74c-.25-.62-.955-.917-1.577-.668-4.125 1.672-7.253 5.246-8.366 9.56-.167.648.223 1.308.87 1.475.1.027.203.04.303.04.54 0 1.03-.364 1.172-.91.92-3.573 3.512-6.534 6.93-7.92.62-.25.92-.956.668-1.577z"/></svg>