<svg xmlns="http://www.w3.org/2000/svg" viewBox="0 0 90 90"><path d="M47.444 12.693v-1.827c0-1.35-1.094-2.444-2.444-2.444s-2.444 1.094-2.444 2.444v1.827C22.152 13.723 5.773 27.56 4.18 44.967c1.983-1.424 4.993-2.333 8.364-2.333 5.246 0 9.617 2.2 10.606 5.12h.435c1.014-2.9 5.372-5.082 10.595-5.082 3.38 0 6.392.917 8.376 2.348v24.51c0 3.414-2.778 6.192-6.192 6.192s-6.192-2.778-6.192-6.192c0-1.35-1.094-2.444-2.444-2.444s-2.444 1.094-2.444 2.444c0 6.11 4.97 11.08 11.08 11.08s11.08-4.97 11.08-11.08V44.98c1.983-1.43 4.993-2.346 8.372-2.346 5.246 0 9.617 2.2 10.606 5.12h.435c1.014-2.9 5.372-5.082 10.595-5.082 3.373 0 6.385.91 8.37 2.336-1.573-17.426-17.96-31.283-38.378-32.315z"/></svg>