<svg xmlns="http://www.w3.org/2000/svg" viewBox="0 0 90 90"><path d="M56.756 45.412c0 6.484-5.256 11.74-11.74 11.74s-11.74-5.256-11.74-11.74 5.256-11.74 11.74-11.74 11.74 5.256 11.74 11.74zM63.28 74.11c0-7.204-5.84-13.045-13.046-13.045H39.798c-7.204 0-13.045 5.84-13.045 13.045v5.218h36.525V74.11zM53.58 18.707l-8.068-8.675-8.066 8.675 1.445 1.346 4.65-5.004v14.66h3.945V15.05l4.65 5 1.444-1.345zM71.954 53.48l8.675-8.07-8.676-8.065-1.346 1.445 5.004 4.65h-14.66v3.945H75.61l-5 4.65 1.344 1.444zm-52.53-1.446l-5-4.65H29.08V43.44H14.42l5.004-4.65-1.346-1.445-8.675 8.066 8.675 8.07 1.346-1.446z"/></svg>