<svg xmlns="http://www.w3.org/2000/svg" viewBox="0 0 90 90"><path d="M45.516 13.016c-1.728 0-3.42.145-5.074.412.725.273 1.63.42 2.864.36 4.246-.2 6.877.608 3.84 1.823s-2.47 2.506-1.053 2.607c1.417.1 4.72-1.41 5.816-.08 1.13 1.372-1.27 3.624.16 6.057 2.13 3.62-5.152 4.45-6.992 7.165-1.775 2.618-2.776 5.423-.752 9.183s2.5 1.49 6.06 1.9c7.015.813 4.915 6.306 13.56 8.026 3.306.657 1.033 7.84-4.77 11.303-5.593 3.336-3.827 7.163-11.775 9.715-1.91.613-3.362.26-1.884-1.864 2.867-4.12 2.618-8.714 0-10.77-2.618-2.056-5.553-2.504-4.845-5.67.71-3.166 3.45-4.274 3.644-7.12.188-2.745-4.167-12.088-9.61-10.238-3.11 1.057-9.122-2.898-8.804-8.077.37-6.018 4.978-6.94 3.943-10.52-.003-.01 0-.022 0-.033-9.455 5.436-15.827 15.63-15.827 27.32 0 17.397 14.103 31.5 31.5 31.5s31.5-14.103 31.5-31.5-14.103-31.5-31.5-31.5z"/></svg>