<svg xmlns="http://www.w3.org/2000/svg" viewBox="0 0 90 90"><path d="M40.054 50.65c5.473 5.432 11.808 10.622 14.295 8.116 3.56-3.587 5.752-6.708 13.654-.406 7.902 6.305 1.867 10.548-1.582 14.024-3.98 4.01-18.887.28-33.663-14.383-14.776-14.666-18.62-29.544-14.636-33.556 3.45-3.476 7.648-9.54 14.008-1.685 6.363 7.85 3.26 10.067-.302 13.655-2.486 2.505 2.75 8.8 8.224 14.234zm7.936-25.92s-1.65-.258-2.807.9c-1.19 1.19-1.242 3.24.012 4.492.74.74 1.786.9 1.786.9 2.038.38 5.108 1.028 8.375 4.294 3.266 3.266 3.913 6.336 4.295 8.374 0 0 .158 1.045.9 1.786 1.252 1.253 3.302 1.202 4.492.012 1.156-1.156.9-2.807.9-2.807-.648-4.125-2.648-8.435-6.082-11.87-3.435-3.433-7.745-5.432-11.87-6.08zm15.487 2.464c5.988 5.988 8.54 12.784 7.71 18.29 0 0-.29 1.745.85 2.884 1.28 1.282 3.313 1.208 4.513.01.77-.772.94-2.027.94-2.027.686-4.758-.178-14.332-9.508-23.66S49.08 12.495 44.32 13.18c0 0-1.254.167-2.026.94-1.2 1.2-1.273 3.23.01 4.513 1.138 1.14 2.882.85 2.882.85 5.507-.832 12.303 1.72 18.29 7.71z"/></svg>