<svg xmlns="http://www.w3.org/2000/svg" viewBox="0 0 90 90"><path d="M48.194 70.018c1.365-.723 1.915-2.39 1.186-3.764 0 0-1.358-2.552-2.106-3.94-.38 1.796-1.43 2.4-3.905 4.543l1.07 2.016c.485.906 2.367 1.89 3.754 1.145zm-7.188-3.243l3.81-3.3c1.278-1.12 1.214-3.026.118-4.084-1.056-1.07-2.735-1.06-3.78-.146l-3.81 3.31c-1.175 1.013-1.27 2.776-.262 3.94.877 1 2.63 1.385 3.924.28zm13.377-.035c1.453-.778 1.868-2.46 1.188-3.775l-4.308-8.046 1.225-.772 4.793 9.046c.715 1.347 2.375 1.86 3.754 1.155 1.435-.775 1.893-2.443 1.186-3.775l-4.983-9.384 1.27-.76s3.295 6.343 4.482 8.603c.733 1.368 2.43 1.86 3.755 1.145 1.392-.736 1.912-2.395 1.185-3.773-3.732-7.068-2.92-5.58-4.442-8.074-4.492-6.237-11.04-10.52-17.49-15.86l-11.46 5.382c-2.368 1.088-4.86-.044-5.84-2.07-1.073-2.232-.13-4.834 2.042-5.885l2.742-1.287-8.808-.025-9.33 12.77 6.08 5.59c.256-.562.635-1.067 1.108-1.478l6.828-5.93c1.82-1.554 4.576-1.396 6.188.44.795.925 1.174 2.063 1.083 3.235 1.594-.36 3.213.21 4.257 1.402 1.28 1.476 1.444 3.55.464 5.154 1.022.165 1.94.674 2.613 1.45 1.502 1.74 1.42 4.25-.044 5.85 1.003-.147 2.19.384 2.75 1.244 0 0 2.905 5.278 3.96 7.28.477.91 2.372 1.886 3.753 1.148zm-17.967-5.255l6.08-5.27c1.143-.984 1.287-2.743.248-3.942-.985-1.146-2.746-1.296-3.912-.278-.142.124-6.164 5.337-6.295 5.474-.967 1.035-.982 2.642-.033 3.738.9 1.042 2.675 1.35 3.912.277zm-5.34-4.642l8.34-7.23c1.16-.993 1.29-2.75.26-3.94-1.026-1.17-2.767-1.278-3.913-.28l-7.615 6.59c-1.765 1.113-2.008 3.407-.983 4.584.852 1 2.648 1.38 3.91.276zm-7.744-6.218c-1.035-1.197-.885-2.96.25-3.94l6.83-5.93c1.144-.977 2.903-.888 3.924.28 1.025 1.192.916 2.925-.25 3.94l-6.84 5.93c-1.07.937-2.825.964-3.914-.28zM46.24 30.58l-12.39 5.814c-1.457.68-3.064.013-3.708-1.313-.694-1.45-.06-3.077 1.296-3.738l12.468-5.848c1.733-.632 3.463-.917 5.59-.917 4.286 0 13.086 2.307 17.14 3.458l7.282 12.42-4.176 2.63c-1 .96-1.818 3.664-4.008 5.103-4.483-6.075-12.32-12.408-19.494-17.61zm21.524-5.087l7.656-4.68 9.21 15.404-7.958 4.463-8.908-15.187zM4.908 35.318l10.758-15.646 7.914 6.345L13.07 40.6l-8.162-5.282z"/></svg>