<svg xmlns="http://www.w3.org/2000/svg" viewBox="0 0 90 90"><path d="M76.902 30.612l-4.31-4.14-22.68 23.606c-.563.588-1.343.92-2.158.922h-.004c-.814 0-1.593-.33-2.158-.916L33.768 37.837l-16.843 17.73c-.59.62-1.382.933-2.175.933-.742 0-1.485-.273-2.066-.825-1.2-1.14-1.25-3.04-.108-4.24l19-20c.563-.594 1.345-.932 2.163-.935h.01c.815 0 1.594.33 2.16.916l11.835 12.26 20.523-21.36-4.31-4.14 17.24-4.99-4.296 17.426zM14.75 60.5c-.69 0-1.36-.1-2-.29V77h9V56.29l-1.93 2.03c-1.31 1.39-3.16 2.18-5.07 2.18zm9 16.5h9V44.71l-9 9.47V77zm18.97-24.14l-7.97-8.25V77h9V53.74c-.37-.26-.71-.55-1.03-.88zM47.76 55c-.69 0-1.36-.1-2.01-.3V77h9V50.82l-1.95 2.03C51.49 54.21 49.65 55 47.76 55zm8.99-6.26V77h9V39.37l-9 9.37zm15.96-16.61l-4.96 5.16V77h9V36.01l-4.04-3.88z"/></svg>