<svg xmlns="http://www.w3.org/2000/svg" viewBox="0 0 90 90"><path d="M21.75 53c-3.55 0-6.43 2.878-6.43 6.43 0 3.55 2.88 6.428 6.43 6.428s6.43-2.878 6.43-6.43c0-3.55-2.88-6.428-6.43-6.428zm10 22.143c0-3.945-3.198-7.143-7.143-7.143h-5.714c-3.945 0-7.143 3.198-7.143 7.143V78h20v-2.857zM21.75 53c-3.55 0-6.43 2.878-6.43 6.43 0 3.55 2.88 6.428 6.43 6.428s6.43-2.878 6.43-6.43c0-3.55-2.88-6.428-6.43-6.428zm10 22.143c0-3.945-3.198-7.143-7.143-7.143h-5.714c-3.945 0-7.143 3.198-7.143 7.143V78h20v-2.857zM45.75 11c-3.55 0-6.43 2.878-6.43 6.43s2.88 6.428 6.43 6.428 6.43-2.878 6.43-6.43S49.3 11 45.75 11zm10 22.143c0-3.945-3.198-7.143-7.143-7.143h-5.714c-3.945 0-7.143 3.198-7.143 7.143V36h20v-2.857zM45.75 11c-3.55 0-6.43 2.878-6.43 6.43s2.88 6.428 6.43 6.428 6.43-2.878 6.43-6.43S49.3 11 45.75 11zm10 22.143c0-3.945-3.198-7.143-7.143-7.143h-5.714c-3.945 0-7.143 3.198-7.143 7.143V36h20v-2.857zM70.75 53c-3.55 0-6.43 2.878-6.43 6.43 0 3.55 2.88 6.428 6.43 6.428s6.43-2.878 6.43-6.43c0-3.55-2.88-6.428-6.43-6.428zm10 22.143c0-3.945-3.198-7.143-7.143-7.143h-5.714c-3.945 0-7.143 3.198-7.143 7.143V78h20v-2.857zM70.75 53c-3.55 0-6.43 2.878-6.43 6.43 0 3.55 2.88 6.428 6.43 6.428s6.43-2.878 6.43-6.43c0-3.55-2.88-6.428-6.43-6.428zm10 22.143c0-3.945-3.198-7.143-7.143-7.143h-5.714c-3.945 0-7.143 3.198-7.143 7.143V78h20v-2.857zM59.674 61.75c-.463.802-1.304 1.25-2.167 1.25-.425 0-.854-.107-1.248-.335l-10.01-5.778-10.01 5.778c-.392.228-.822.335-1.247.335-.863 0-1.704-.448-2.167-1.25-.69-1.195-.28-2.725.915-3.415l10.01-5.778V41c0-1.38 1.12-2.5 2.5-2.5s2.5 1.12 2.5 2.5v11.557l10.01 5.778c1.194.69 1.604 2.22.914 3.415z"/></svg>