<svg xmlns="http://www.w3.org/2000/svg" viewBox="0 0 90 90"><path d="M51.73 52.45l-2.122-2.12c-1.172-1.173-1.172-3.072 0-4.244l9.9-9.9c1.17-1.17 3.07-1.17 4.242 0l2.12 2.122c1.173 1.172 1.173 3.07 0 4.243l-9.898 9.9c-1.172 1.17-3.07 1.17-4.243 0zm-4.243-7.07L58.8 34.064 48.194 23.458 36.88 34.772l2.828 2.828-21.213 21.214c-.78-.78-2.047-.78-2.828 0L12.13 62.35c-.78.78-.78 2.047 0 2.828l4.95 4.95c.782.78 2.048.78 2.83 0l3.535-3.536c.78-.78.78-2.047 0-2.828L44.658 42.55l2.83 2.83zm-1.415-26.87l-2.12-2.122c-1.173-1.172-3.072-1.172-4.244 0l-9.9 9.9c-1.17 1.17-1.17 3.07 0 4.242l2.122 2.12c1.172 1.173 3.07 1.173 4.243 0l9.9-9.898c1.17-1.172 1.17-3.072 0-4.243zM75.75 67.02v-.04c0-1.094-.886-1.98-1.98-1.98H48.73c-1.094 0-1.98.886-1.98 1.98v.04c0 1.094-.886 1.98-1.98 1.98h-2.04c-1.094 0-1.98.886-1.98 1.98v2.04c0 1.094.886 1.98 1.98 1.98h37.04c1.094 0 1.98-.886 1.98-1.98v-2.04c0-1.094-.886-1.98-1.98-1.98h-2.04c-1.094 0-1.98-.886-1.98-1.98z"/></svg>