<svg xmlns="http://www.w3.org/2000/svg" viewBox="0 0 90 90"><path d="M55 44c0-.552-.448-1-1-1H41c-.552 0-1 .448-1 1v32c0 .552.448 1 1 1h13c.552 0 1-.448 1-1V44zm25.547-14.75L70.61 11.92c-.475-.825-1.255-.887-1.73-.062l-9.935 17.424c-.476.824-.086 1.718.866 1.718H63v44.5c0 .55.696 1.5 1.246 1.5h11c.55 0 .754-.95.754-1.5V31h3.68c.953 0 1.343-.925.867-1.75zm-64.26.94c0-3.945 3.196-7.142 7.14-7.142s7.14 3.197 7.14 7.14c0 3.945-3.196 7.142-7.14 7.142s-7.14-3.197-7.14-7.14zM23.65 74c0 2-1.242 3.252-3.135 3.072-1.65-.156-2.515-1.723-2.515-3.38V57.164c0 1.358-1.626 2.446-3 2.446-1.52 0-3-1.286-3-2.576V45.263C12 42.196 14.237 40 17.304 40h2.446l4 7 4-7h2.39c3.066 0 5.86 2.196 5.86 5.264v11.771c0 1.29-1.48 2.577-3 2.577-1.374 0-3-1.088-3-2.446v16.526c0 1.658-1.143 3.224-2.794 3.38-1.893.18-3.414-1.072-3.414-3.072h-.14z"/></svg>