<svg xmlns="http://www.w3.org/2000/svg" viewBox="0 0 90 90"><path d="M55.44 19.18l1.48-2.04c1.3-1.79 3.81-2.18 5.59-.88l4.85 3.54c1.78 1.3 2.17 3.81.87 5.59l-1.59 2.17c-2.96-3.65-6.8-6.56-11.2-8.38zm-33.08 8.38c2.96-3.65 6.8-6.56 11.2-8.38l-1.48-2.04c-1.3-1.79-3.81-2.18-5.59-.88l-4.85 3.54c-1.78 1.3-2.17 3.81-.87 5.59l1.59 2.17zM63.5 45.5c0 10.477-8.523 19-19 19s-19-8.523-19-19 8.523-19 19-19 19 8.523 19 19zm-6.5 0c0-.828-.672-1.5-1.5-1.5h-9.01c-.425-.56-1.076-.932-1.82-.983L40.94 32.66c-.187-.518-.76-.792-1.28-.6-.52.186-.788.76-.6 1.278l3.725 10.35c-.48.456-.785 1.097-.785 1.812 0 1.38 1.12 2.5 2.5 2.5.815 0 1.532-.396 1.99-1h9.01c.828 0 1.5-.672 1.5-1.5zm5.83 21.81c1.84 2.88 2.35 5.7 1.05 6.79-1.4 1.18-4.46-.09-7.16-2.85-.3-.31-.6-.64-.89-.99l-.49-.58C52.03 71.18 48.36 72 44.5 72s-7.53-.82-10.84-2.32l-.49.58c-.29.35-.59.68-.89.99-2.7 2.76-5.76 4.03-7.16 2.85-1.3-1.09-.79-3.91 1.05-6.79.34-.54.74-1.08 1.17-1.62C21.62 60.83 18 53.59 18 45.5c0-6.13 2.08-11.77 5.58-16.26 2.88-3.72 6.75-6.64 11.2-8.39 3.01-1.2 6.29-1.85 9.72-1.85s6.71.65 9.72 1.85c4.45 1.75 8.32 4.67 11.2 8.39C68.92 33.73 71 39.37 71 45.5c0 8.09-3.62 15.33-9.34 20.19.43.54.83 1.08 1.17 1.62zM65.5 45.5c0-11.58-9.42-21-21-21s-21 9.42-21 21 9.42 21 21 21 21-9.42 21-21z"/></svg>