<svg xmlns="http://www.w3.org/2000/svg" viewBox="0 0 90 90"><path d="M71.75 54V25c0-2.21-1.79-4-4-4h-44c-2.21 0-4 1.79-4 4v29l-9 11v1c0 1.657 1.343 3 3 3h64c1.657 0 3-1.343 3-3v-1l-9-11zm-33 9l2-3h10l2 3h-14zm30-13c0 .552-.448 1-1 1h-44c-.552 0-1-.448-1-1V25c0-.552.448-1 1-1h44c.552 0 1 .448 1 1v25zm-8-16.5c0 1.38-1.12 2.5-2.5 2.5-.185 0-.364-.023-.537-.06L52.4 43.243c.217.37.35.796.35 1.256 0 1.38-1.12 2.5-2.5 2.5s-2.5-1.12-2.5-2.5c0-.404.105-.78.275-1.118l-6.18-7.46c-.19.046-.388.078-.595.078-.16 0-.315-.018-.467-.047l-5.376 7.304c.212.368.343.788.343 1.243 0 1.38-1.12 2.5-2.5 2.5s-2.5-1.12-2.5-2.5 1.12-2.5 2.5-2.5c.19 0 .373.025.55.065l5.335-7.246c-.24-.385-.384-.835-.384-1.32 0-1.38 1.12-2.5 2.5-2.5s2.5 1.12 2.5 2.5c0 .436-.12.84-.317 1.198l6.135 7.41c.217-.064.443-.108.682-.108.185 0 .364.023.537.06l5.313-7.304c-.217-.37-.35-.796-.35-1.256 0-1.38 1.12-2.5 2.5-2.5s2.5 1.12 2.5 2.5z"/></svg>