<svg xmlns="http://www.w3.org/2000/svg" viewBox="0 0 90 90"><path d="M27.75 29c0 3.866-3.134 7-7 7s-7-3.134-7-7 3.134-7 7-7 7 3.134 7 7zm37 0c0 3.866 3.134 7 7 7s7-3.134 7-7-3.134-7-7-7-7 3.134-7 7zm-39 32V44.445c0-3.007-2.438-5.445-5.445-5.445h-.11c-3.007 0-5.445 2.438-5.445 5.445V62c0 3.314 2.686 6 6 6h9c1.105 0 2 .895 2 2v14c0 1.657 1.343 3 3 3h1c1.657 0 3-1.343 3-3V67c0-3.314-2.686-6-6-6h-7zm46.555-22h-.11c-3.007 0-5.445 2.438-5.445 5.445V61h-7c-3.314 0-6 2.686-6 6v16.535C53.75 85.45 55.3 87 57.215 87h.07c1.914 0 3.465-1.55 3.465-3.465V70c0-1.105.895-2 2-2h9c3.314 0 6-2.686 6-6V44.445c0-3.007-2.438-5.445-5.445-5.445zM62.75 54v-3c0-.552-.448-1-1-1h-31c-.552 0-1 .448-1 1v3c0 .552.448 1 1 1h31c.552 0 1-.448 1-1zM43.55 2.983c-7.29 0-13.198 4.677-13.198 10.446 0 3.436 2.107 6.476 5.344 8.38-.317 1.736-1.325 3.78-2.734 5.19 3.442-.257 6.47-1.244 8.455-3.274.697.09 1.407.15 2.135.15 7.29 0 13.2-4.678 13.2-10.447S50.84 2.982 43.55 2.982zM37.364 15.49c-1.14 0-2.062-.922-2.062-2.06s.924-2.063 2.063-2.063c1.14 0 2.062.923 2.062 2.062s-.923 2.06-2.062 2.06zm6.188 0c-1.138 0-2.06-.922-2.06-2.06s.922-2.063 2.06-2.063 2.063.923 2.063 2.062-.923 2.06-2.062 2.06zm6.188 0c-1.14 0-2.062-.922-2.062-2.06s.923-2.063 2.062-2.063c1.14 0 2.062.923 2.062 2.062s-.923 2.06-2.062 2.06z"/></svg>