<svg xmlns="http://www.w3.org/2000/svg" viewBox="0 0 90 90"><path d="M45.28 57.025c-3.566 0-6.973-1.53-9.347-4.196-2.407-2.704-3.5-6.192-3.078-9.823.675-5.796 5.387-10.4 11.204-10.95.41-.037.82-.057 1.22-.057 2.048 0 4.06.502 5.856 1.456l-5.737 9.01c-.39.61-.415 1.383-.067 2.018.35.635 1.015 1.03 1.738 1.03h10.684c-.508 6.496-5.89 11.51-12.474 11.51zm3.788-14.495l5.72-8.98c2.84 2.15 4.647 5.442 4.932 8.98H49.068zM65.75 14h-39c-3.314 0-6 2.686-6 6v49c0 3.314 2.686 6 6 6h39c3.314 0 6-2.686 6-6V20c0-3.314-2.686-6-6-6zm-19.5 59.25c-.966 0-1.75-.784-1.75-1.75 0-.967.784-1.75 1.75-1.75S48 70.533 48 71.5c0 .966-.784 1.75-1.75 1.75zM64.75 68h-37V21h37v47z"/></svg>