<svg xmlns="http://www.w3.org/2000/svg" viewBox="0 0 90 90"><path d="M48.18 35.417c0 4.97-4.03 9-9 9-4.972 0-9-4.03-9-9s4.028-9 9-9c4.97 0 9 4.03 9 9zM77.456 77.62c-1.17 1.173-2.707 1.76-4.242 1.76s-3.07-.587-4.242-1.76c0 0-15.282-15.297-15.403-15.447-4.276 2.73-9.35 4.317-14.8 4.317-15.22 0-27.556-12.337-27.556-27.556S23.552 11.378 38.77 11.378s27.556 12.337 27.556 27.556c0 5.45-1.588 10.524-4.317 14.8.15.12 15.447 15.403 15.447 15.403 2.344 2.342 2.344 6.14 0 8.484zM60.585 38.935c0-12.048-9.767-21.815-21.815-21.815s-21.815 9.766-21.815 21.814c0 6.953 3.257 13.142 8.324 17.137.658-4.883 4.833-8.652 9.898-8.652h8c4.857 0 8.902 3.464 9.808 8.055 4.65-4 7.6-9.924 7.6-16.54z"/></svg>