<svg xmlns="http://www.w3.org/2000/svg" viewBox="0 0 90 90"><path d="M21 11c-3.55 0-6.43 2.878-6.43 6.43s2.88 6.427 6.43 6.427 6.43-2.878 6.43-6.43S24.55 11 21 11zm10 22.143C31 29.198 27.802 26 23.857 26h-5.714C14.198 26 11 29.198 11 33.143V36h20v-2.857zM21 11c-3.55 0-6.43 2.878-6.43 6.43s2.88 6.427 6.43 6.427 6.43-2.878 6.43-6.43S24.55 11 21 11zm10 22.143C31 29.198 27.802 26 23.857 26h-5.714C14.198 26 11 29.198 11 33.143V36h20v-2.857zM45 53c-3.55 0-6.43 2.878-6.43 6.43 0 3.55 2.88 6.428 6.43 6.428s6.43-2.878 6.43-6.43C51.43 55.88 48.55 53 45 53zm10 22.143C55 71.198 51.802 68 47.857 68h-5.714C38.198 68 35 71.198 35 75.143V78h20v-2.857zM45 53c-3.55 0-6.43 2.878-6.43 6.43 0 3.55 2.88 6.428 6.43 6.428s6.43-2.878 6.43-6.43C51.43 55.88 48.55 53 45 53zm10 22.143C55 71.198 51.802 68 47.857 68h-5.714C38.198 68 35 71.198 35 75.143V78h20v-2.857zM70 11c-3.55 0-6.43 2.878-6.43 6.43s2.88 6.427 6.43 6.427 6.43-2.878 6.43-6.43S73.55 11 70 11zm10 22.143C80 29.198 76.802 26 72.857 26h-5.714C63.198 26 60 29.198 60 33.143V36h20v-2.857zM70 11c-3.55 0-6.43 2.878-6.43 6.43s2.88 6.427 6.43 6.427 6.43-2.878 6.43-6.43S73.55 11 70 11zm10 22.143C80 29.198 76.802 26 72.857 26h-5.714C63.198 26 60 29.198 60 33.143V36h20v-2.857zM61.56 70.307c-.64 0-1.266-.304-1.653-.87-.624-.91-.39-2.156.52-2.78l.156-.106c.91-.625 2.155-.398 2.782.51.628.908.4 2.154-.51 2.782l-.168.116c-.345.235-.74.35-1.128.35zm-33.236-.08c-.39 0-.782-.114-1.128-.35l-.208-.147c-.894-.65-1.09-1.9-.44-2.794.65-.894 1.9-1.09 2.793-.44l.117.08c.912.624 1.145 1.87.52 2.78-.39.566-1.016.87-1.653.87zm38.563-4.587c-.47 0-.942-.165-1.322-.5-.828-.73-.907-1.995-.176-2.823l.092-.104c.735-.822 2.022-.92 2.846-.187.824.735.92 1.972.187 2.797l-.05.055-.076.086c-.398.447-.95.676-1.503.676zm-43.87-.108c-.55 0-1.1-.227-1.495-.67l-.143-.163c-.728-.833-.64-2.097.19-2.822.834-.728 2.096-.64 2.823.192l.118.132c.735.825.662 2.09-.164 2.824-.38.34-.856.506-1.33.506zm47.937-5.696c-.318 0-.64-.075-.94-.235-.975-.52-1.343-1.73-.822-2.706l.085-.162c.514-.98 1.723-1.354 2.7-.84.98.512 1.355 1.722.842 2.7l-.1.187c-.36.672-1.052 1.056-1.766 1.056zm-51.973-.124c-.714 0-1.405-.384-1.765-1.058l-.104-.198c-.506-.98-.122-2.188.86-2.694.982-.51 2.188-.123 2.695.858l.08.15c.52.974.15 2.186-.823 2.706-.3.16-.624.236-.94.236zm54.534-6.486c-.156 0-.314-.018-.473-.057-1.072-.26-1.732-1.342-1.472-2.416l.032-.127c.267-1.07 1.364-1.757 2.43-1.496 1.072.267 1.735 1.31 1.472 2.383l-.02.08-.025.105c-.223.914-1.04 1.528-1.943 1.528zm-57.06-.134c-.9 0-1.717-.61-1.94-1.52l-.05-.2c-.26-1.073.4-2.154 1.473-2.414 1.075-.264 2.155.4 2.415 1.472l.045.185c.264 1.073-.39 2.156-1.464 2.42-.162.038-.322.057-.48.057zm57.953-6.895h-.015c-1.104-.008-1.994-.91-1.985-2.015v-.302c0-1.104.896-2 2-2s2 .896 2 2v.33c-.01 1.102-.903 1.987-2 1.987zm-58.814-.168c-1.104 0-2-.866-2-1.97v-.22c.012-1.097.905-1.98 2-1.98h.022c1.104.013 1.99.918 1.98 2.022v.116c-.002 1.106-.897 2.03-2.002 2.03zm39.932-27.495c-.237 0-.477-.043-.71-.132l-.18-.068c-1.034-.39-1.555-1.545-1.165-2.578.39-1.033 1.544-1.554 2.578-1.164l.19.072c1.032.394 1.55 1.55 1.157 2.58-.304.8-1.063 1.29-1.87 1.29zm-21.033-.007c-.806 0-1.565-.49-1.87-1.29-.393-1.03.125-2.187 1.157-2.58l.21-.08c1.037-.376 2.185.156 2.564 1.194.378 1.037-.155 2.186-1.193 2.564l-.158.06c-.233.09-.474.132-.71.132zm14.158-1.71c-.08 0-.16-.006-.24-.016l-.195-.022c-1.097-.132-1.88-1.127-1.75-2.224.132-1.096 1.13-1.868 2.224-1.75l.196.025c1.097.133 1.88 1.13 1.747 2.226-.122 1.016-.985 1.76-1.983 1.76zm-7.286-.002c-1 0-1.862-.746-1.983-1.763-.13-1.097.653-2.092 1.75-2.224l.194-.023c1.1-.135 2.093.65 2.225 1.746.13 1.097-.65 2.093-1.748 2.225l-.197.024c-.082.01-.162.014-.24.014z"/></svg>