<svg xmlns="http://www.w3.org/2000/svg" viewBox="0 0 90 90"><path d="M66 15H24c-1.657 0-3 1.343-3 3v54c0 1.657 1.343 3 3 3h42c1.657 0 3-1.343 3-3V18c0-1.657-1.343-3-3-3zm-30 8.99c0-.547.443-.99.99-.99h16.02c.547 0 .99.443.99.99v1.02c0 .547-.443.99-.99.99H36.99c-.547 0-.99-.443-.99-.99v-1.02zm-7 9c0-.547.443-.99.99-.99h30.02c.547 0 .99.443.99.99v.02c0 .547-.443.99-.99.99H29.99c-.547 0-.99-.443-.99-.99v-.02zm0 7c0-.547.443-.99.99-.99h30.02c.547 0 .99.443.99.99v.02c0 .547-.443.99-.99.99H29.99c-.547 0-.99-.443-.99-.99v-.02zm0 6c0-.547.443-.99.99-.99h30.02c.547 0 .99.443.99.99v.02c0 .547-.443.99-.99.99H29.99c-.547 0-.99-.443-.99-.99v-.02zm0 6c0-.547.443-.99.99-.99h30.02c.547 0 .99.443.99.99v.02c0 .547-.443.99-.99.99H29.99c-.547 0-.99-.443-.99-.99v-.02zm0 7.02v-.02c0-.547.443-.99.99-.99h30.02c.547 0 .99.443.99.99v.02c0 .547-.443.99-.99.99H29.99c-.547 0-.99-.443-.99-.99zm31.293 7.697C59.586 66 59.586 66 58 66c-.838 0-1.462.208-2.184.448-.775.26-1.654.552-2.816.552-1.618 0-2.123-1.01-2.395-1.553-.22-.438-.223-.447-.605-.447-.944 0-1 1.983-1 2.003L47 67c0-1.384.627-4 3-4 1.618 0 2.123 1.01 2.395 1.553.22.438.223.447.605.447.838 0 1.462-.208 2.184-.448C55.96 64.292 56.838 64 58 64c2.176 0 2.456.042 3.707 1.293l-1.414 1.414z"/></svg>