<svg xmlns="http://www.w3.org/2000/svg" width="864" height="864" viewBox="0 0 864 864"><path fill-rule="evenodd" clip-rule="evenodd" fill="#EE8222" d="M317 96.4c75.2 72.2 150.3 74.8 225.4-.8.9 1.1 1.9 2.3 2.8 3.4-1.7 11.9-1.4 24.5-5.5 35.6-15.6 42.8-31 85.8-49.5 127.4-31 69.7-48 142.4-54.6 217.9-1.5 17-2.9 34-4.7 55.1-2.2-6.9-4-10-4-13.1-1.9-116.2-36.4-223.3-86.8-326.9-14.2-29.2-19.4-62.8-28.7-94.4 1.9-1.3 3.8-2.8 5.6-4.2z"/><path fill-rule="evenodd" clip-rule="evenodd" fill="#EE8222" d="M334.9 704.2c16.6-22.1 34.6-42.8 51.7-64.4 20.8-26.1 36.7-94.4 43.9-130.7.9 3 2 6 2.6 9 7.9 37.1 27.6 104.6 48.8 131.9 21.7 27.9 43.9 55.3 65.2 83.6 7.1 9.4 12.1 21 20 34.9H298c-1.1-1.8 22.8-45.5 36.9-64.3z"/><path fill="#0F3E65" d="M638.6 846.8H225.4c-8.6 0-16.6-4.2-21.5-11.3-4.8-7.1-5.9-16.1-2.7-24.1l145.9-373.5-138-386c-2.8-8-1.6-16.8 3.2-23.7 4.9-6.9 12.8-11 21.2-11h396.9c8.4 0 16.4 4.1 21.2 11 4.9 6.9 6.1 15.7 3.2 23.7l-138 386 145.9 373.5c3.1 8 2.1 17-2.8 24.1-4.7 7.1-12.7 11.3-21.3 11.3zm-375.2-51.9h337.2L465 447.7c-2.3-5.8-2.4-12.3-.3-18.2L593.6 69.1H270.4l128.9 360.4c2.1 5.9 2 12.4-.3 18.2L263.4 794.9z"/></svg>