<svg xmlns="http://www.w3.org/2000/svg" width="102.8" height="21.4" viewBox="0 0 102.8 21.4"><path fill-rule="evenodd" clip-rule="evenodd" fill="#FFF" d="M61.9 13.2c-1.8 1.3-3.7 1.6-5.7 1.2-1.8-.3-3.1-1.3-4.2-2.7-2-2.5-2-6.2-.1-8.7.8-1 1.7-1.8 2.9-2.3 1.2-.5 2.4-.8 3.6-.6 1.2.2 2.4.6 3.5 1.4V.6c0-.5 0-.5.5-.5h2.1c.3 0 .3.1.3.3v13.8c0 .2-.1.3-.3.3h-2.3c-.2 0-.3-.1-.3-.3v-1zm0-5.9c.1-2.1-1.9-4.2-4.3-4.2-2.3 0-4.2 2-4.2 4.3s1.9 4.3 4.3 4.3c2.3-.1 4.3-2.2 4.2-4.4zM5.6 14.5h-5c-.3 0-.4-.1-.4-.3V12c0-.4 0-.4.4-.4h9.3c.5 0 .9 0 1.3-.4s.4-1 .3-1.5c-.1-.5-.5-.7-1-.8-.3 0-.5-.1-.8-.1h-4c-2 0-4-1.5-4.2-3.8-.1-1.5.3-2.7 1.3-3.8.6-.6 1.3-.9 2.1-1C5.5.1 6 0 6.6 0h7.9c.4 0 .4 0 .4.4v2.1c0 .4 0 .4-.4.4H6.1c-.3 0-.5 0-.8.1-.2.2-.5.3-.7.7-.1.3-.2.6-.2 1 0 .6.4 1 1 1.1.3.1.6.1.9.1H10c.8 0 1.7.2 2.4.6 1 .5 1.6 1.3 1.9 2.4.3.9.3 1.8 0 2.7-.4 1.5-1.5 2.4-2.9 2.8-.4.1-.8.2-1.2.2-1.5-.1-3.1-.1-4.6-.1zM22.6 14.5c-3.9.1-7.2-3.3-7.2-7.2 0-4 3.2-7.3 7.3-7.3 3.9 0 7.1 3.3 7.1 7.3.1 3.7-3.2 7.3-7.2 7.2zm-4.2-7.2c0 2.2 1.8 4.3 4.3 4.3 2.3 0 4.2-2 4.2-4.3S25.2 3 22.6 3c-2.2 0-4.2 2-4.2 4.3zM92.3 7.3V3.4c0-1.9 1.7-3.3 3.3-3.3h6.5c.4 0 .4 0 .4.4V3c0 .2-.1.3-.3.3h-6.1c-.3 0-.4.1-.4.4v7c0 .5.1.6.6.6h5.9c.4 0 .4 0 .4.4v2.5c0 .2-.1.3-.3.3h-6.6c-1.5 0-3.3-1.3-3.3-3.3-.1-1.3-.1-2.6-.1-3.9zM72.4 5.9V.4c0-.4 0-.4.4-.4h2.6c.5 0 .5 0 .5.4v10.2c0 .4.1.5.5.5h4.5c.3 0 .4.1.4.3V14c0 .2-.1.3-.3.3h-5.1c-1.6 0-3.3-1.4-3.3-3.3-.1-1.5-.2-3.3-.2-5.1zM82.5 5.9V.4c0-.4 0-.4.4-.4h2.7c.4 0 .4 0 .4.4v10.4c0 .3.1.4.4.4h4.5c.3 0 .4.1.3.4v2.6c0 .2-.1.3-.3.3h-5.2c-1.6 0-3.3-1.4-3.3-3.3.1-1.7.1-3.5.1-5.3zM31.1 10.6V7.4c.1-2.3 1-4.2 2.8-5.5C35 1.1 36.2.6 37.6.4c.6-.1 1.3-.2 1.9-.2.2 0 .3 0 .3.3v2.4c0 .2-.1.3-.3.3-1.1 0-2.2.2-3.1.7-1.6.7-2.4 2-2.4 3.6-.1 2.2 0 4.4 0 6.6 0 .4 0 .4-.4.4h-2.2c-.2 0-.3-.1-.3-.3v-3.6z"/><path fill-rule="evenodd" clip-rule="evenodd" fill="#0F3E65" d="M79.1 17.8c.4-.1.5-.1.6.3.2.8.5 1.7.8 2.5.1-.4.2-.8.4-1.2.1-.5.3-.9.4-1.4.1-.2.2-.2.4-.2s.3.1.3.3c.2.7.4 1.5.6 2.2 0 .1.1.2.1.4.2-.5.3-1 .4-1.4.1-.4.2-.8.3-1.1.1-.3.2-.4.6-.3 0 .1 0 .2-.1.2l-.9 3c-.1.2-.2.3-.4.3s-.3-.1-.3-.3c-.2-.8-.5-1.6-.8-2.5 0 .1-.1.2-.1.2-.2.7-.4 1.5-.6 2.2 0 .2-.1.3-.3.3-.2 0-.3-.1-.4-.3-.3-.9-.6-1.8-.9-2.8 0-.1-.1-.2-.1-.4zM75.9 20.8c-.3.5-.8.6-1.4.6-.6 0-1-.4-1-1 0-.5.2-.8.6-.9.4-.1.8-.2 1.2-.2.5-.1.6-.1.6-.4 0-.4-.2-.6-.6-.7h-.5c-.3.1-.6.2-.6.6 0 .2-.2.2-.4.2s-.1-.2-.1-.3c.1-.4.4-.7.8-.8.4-.1.8-.1 1.2 0 .5.1.8.5.8 1.1v1.7c0 .2 0 .4.3.4 0 0 .1.1.1.2s-.1.2-.1.2c-.5-.1-.7-.3-.9-.7zm0-1.3c-.3.1-.7.1-1 .2-.2 0-.4.1-.5.2-.4.2-.5.8-.1 1 .2.1.4.2.6.1.8-.1 1.2-.7 1-1.5z"/><path fill-rule="evenodd" clip-rule="evenodd" fill="#EE8222" d="M41.2 20.8c-.3.5-.8.6-1.4.6-.7 0-1-.4-1-1.1 0-.4.2-.6.5-.8l1.2-.3h.2c.2 0 .4-.1.5-.3 0-.3-.1-.6-.3-.7-.3-.1-.7-.2-1 0-.2.1-.3.3-.4.5-.1.2-.2.2-.4.2-.1 0-.1-.2-.1-.3 0-.1 0-.2.1-.2.4-.9 2-.8 2.4-.2.1.2.2.5.2.7v1.7c0 .2 0 .3.2.4.1 0 .1.1.1.2s-.1.1-.2.2c-.3-.1-.4-.2-.6-.6zm0-1.3c-.5.1-1 .2-1.4.3-.3.1-.4.2-.4.5s.2.5.5.6c.4.1.8 0 1.1-.3.2-.3.2-.7.2-1.1zM59 20.1c0 .6-.6 1.2-1.3 1.3-.9.1-1.5-.4-1.7-1.3-.1-.6-.1-1.2.2-1.8.3-.5.9-.7 1.5-.7.6.1 1 .4 1.2 1 .1.2.1.4.1.7 0 .2 0 .3-.3.3h-2.1c-.3 0-.3 0-.3.3.1.8.7 1.1 1.4.9.3-.1.5-.3.6-.6.3-.1.5-.2.7-.1zm-2.5-.9s0 .1 0 0h1.9c.2 0 .2-.1.2-.3-.1-.6-.6-1-1.1-.9-.6.1-1 .6-1 1.2zM24 18.8v-2.1c0-.2.1-.3.3-.3h2.5c.1 0 .2.1.3.2.1.2-.1.3-.3.3h-2c-.3 0-.4.1-.4.3v1c0 .3.1.3.3.3h1.7c.2 0 .3 0 .3.2s-.1.2-.3.2h-1.7c-.2 0-.3.1-.3.3v1.7c0 .2 0 .3-.3.3s-.3-.1-.3-.3c.2-.7.2-1.4.2-2.1zM33.7 18.2c.4-.5 1-.6 1.6-.5.4.1.7.4.7.8 0 .9 0 1.7.1 2.6 0 .2-.1.2-.3.2-.2 0-.2-.1-.2-.2v-1.8-.4c-.1-.5-.3-.7-.7-.7-.4 0-.9.2-1 .6-.1.2-.1.4-.1.6v1.7c0 .2 0 .3-.2.3s-.2-.1-.2-.3v-2.9c0-.2 0-.3.2-.4.1 0 0 .1.1.4 0-.1 0 0 0 0zM45.2 18.2c.4-.5.9-.6 1.5-.5.5.1.8.4.9 1v2.4c0 .2-.1.2-.2.2-.2 0-.2-.1-.2-.2v-1.8-.4c-.1-.5-.2-.7-.6-.7-.4-.1-.9.1-1.1.4-.1.2-.2.5-.2.7V21c0 .2 0 .3-.3.3s-.2-.2-.2-.3v-2.8c0-.2 0-.3.2-.3.3 0 .3.1.3.3-.2-.1-.1-.1-.1 0zM52 17.7c.7 0 1.2.4 1.4 1 0 .1 0 .2-.1.3-.1 0-.3-.1-.4-.1v-.1c-.1-.4-.4-.6-.8-.6s-.8.1-1 .5c-.4.6-.4 1.2-.1 1.8.2.4.6.6 1.1.6.5 0 .7-.3.9-.8.1-.2.2-.3.4-.2.2.1.1.2.1.3-.4 1.3-1.8 1.3-2.5.7-.8-.7-.8-2.2-.1-2.9.2-.4.6-.5 1.1-.5z"/><path fill-rule="evenodd" clip-rule="evenodd" fill="#0F3E65" d="M68 18.9v-2c0-.2-.1-.4.2-.4.3 0 .3.2.3.4v3.6c0 .4 0 .4.4.4h2c.1 0 .3 0 .3.2s0 .2-.2.2h-2.8c-.2 0-.2-.2-.2-.3v-2.1z"/><path fill-rule="evenodd" clip-rule="evenodd" fill="#3D4851" d="M63.8 20c-.5 0-.9-.4-.9-.9s.4-.9.9-.9.9.4.9.9-.4.9-.9.9z"/><path fill-rule="evenodd" clip-rule="evenodd" fill="#EE8222" d="M29.7 19.5V18c0-.2 0-.3.3-.3.2 0 .2.1.2.3v3c0 .2 0 .3-.2.3s-.3-.1-.3-.3v-1.5zM30.2 16.8c0 .2 0 .4-.2.4-.3 0-.2-.2-.2-.4s0-.3.2-.3c.3-.1.2.1.2.3zM43.7 1.5c1.3 1.2 2.6 1.3 3.9 0v.1c0 .2 0 .4-.1.6-.3.7-.5 1.5-.9 2.2-.5 1.2-.8 2.4-.9 3.7 0 .3 0 .6-.1.9 0-.1-.1-.2-.1-.2 0-2-.6-3.8-1.5-5.6-.2-.5-.3-1.1-.3-1.7-.1.1-.1 0 0 0zM44 11.9c.3-.4.6-.7.9-1.1.4-.4.6-1 .8-1.6v.2c.1.6.5 1.1.8 1.6.4.5.8.9 1.1 1.4l.3.6h-4.6s.4-.7.7-1.1z"/><path fill="#0F3E65" d="M49.2 14.4h-7.1c-.1 0-.3-.1-.4-.2-.1-.1-.1-.3 0-.4l2.5-6.4L41.8.8c0-.1 0-.3.1-.4.1-.1.2-.2.4-.2H49c.1 0 .3.1.4.2s.1.3.1.4l-2.4 6.6 2.5 6.4c.1.1 0 .3 0 .4-.1.1-.3.2-.4.2zm-6.5-.9h5.8l-2.3-6v-.3L48.4 1h-5.5l2.2 6.2v.3l-2.4 6z"/></svg>