<svg xmlns="http://www.w3.org/2000/svg" viewBox="0 0 144 108"><path fill="#EF8111" d="M142.6 48.4l-.6-.6.3-1.1-.3-1 .2-3.7.8-4.4V37l-.7-.2-.7.5-.6.6-.6.3-3.8-.3-2-.5-.9-.8-.7.1-4-2.8-.3.3-.2.1h-.2l-.5.2.3-.7v-.2l-.2-.2-.2-.6-1.4 1-1.3-.3-1.5-.8-2.8-.6-1-.8-.8-.3-5.4-.1-1.9-.4-1.1-.1-.8.2-1.4.8-1 .2-1.4-.3-5-2.2.5 1.4 1.2 1.2 1.5.8 1.4.2v.3l-2.8.9-1.3-.1-.6-1.1-.3-1.3-.7-.8-.6-.9-.2-1.5-.8.4-.7.6-1.4 1.4-.3-.5-.6-.8-.2-.6-1.9 1.1-4.5-1.4-3.9 1.1-6.7-2-7.3 1.5-3.3-1h-5.5l-1.4.2-2.2-.8-2.3-.3-4.9.5-3.3.7-1.3-.1-3.2-1.1-1.2-.2-9.4.6-8.4-1.3-3.1-1.4-4.5-.2-4.2 1.4-2.3 3 .1 2.2.6 1.6.1 1.4-1.4 1.6-1.2.7-1.6.6-1.8.4-1.8-.1-.6 2.2.7 2.6 1.3 2.2 1.2 1 1.5.2 1.1.6.9 1 2.9 4.9.3.7-.1 1-.5 1-.7.7-.9.3-.9 7.9v1.8l-.2.6-.8 1.4-.1.5 1.8.6.8.4.3.5-.3.6-.6.3-.8.2-.6.4-.7 1.4-.5 2.1.2 1.8 1.3.9.6-.2 1-1.1.9-.5h.9l1.9.6 1 .2 1.3-.3 1.4-.7 1.2-1 .6-1 1.5.7 3.3.6 1.4.6 1.9 2.1 1.2.9 1.6.2V77l.2-.6.3-.4.5-.1 1 .1 1.3-.2 2.6.1 1.8-.2 2-.6 1.7-.9 1-1.4h-1.2v-.6l1.1-.6 1.1-.2.8.4L45 73h3.5l2.5 1 .6.2 3.5-.5 1.4.2.6 1 .6-.2.6-.4 1.4.7 1-.2.9-.6.9-.5 2.8-.2 1.3-.2 1.2-.9.6.6 1.8-.7 1.4 1 1.4 1.6 1.7 1.3 1.8.2 2.5-1.7 2-.5 1.4-.1.8.2 1 .6.5.5.3.6.5.5.8.2 2.3.2 1.2.3 1-.2 1.7-1.5.8.6.3.6-.4.3-1 .2.1.4.1.2.4.6.7-.4.8-.1h1l1-.1 5-2.6 1.8-.5 2.6.1.6-.1 2.5-1 1-.2 1.8.2 1.9.4 1.9.1 5.4-3 2.7-2.7.2-.6.1-1.3.5-.6 2-.4.4-.2.3-1.4 1.5-3.3 2.6-3.8 1.5-1.4 1.4-.6 1.7-.4 1.6-.8 1.5-.5 1.4.4 1-1.6 2.4-.9.2-1.2-.6-.8-.6-.7z"/></svg>