<svg xmlns="http://www.w3.org/2000/svg" viewBox="0 0 144 144"><path fill="#EF8111" d="M102.2 127.8l.1.5.1.3.1.2.1.1.1.7.1.3.3.5.1.3.1 1 .1.3.2.3.1.2.3 2.5.1.2.1.1.1-.2v-.2l-.1-.7-.2-.4v-1.1l-.2-.5-.1-.7-.1-.3-.1-.1v-.2l-1.3-3.8-.4-2.2-.2-3.2.1-.2-.2.2v.6l-.1.3.1.2v.2l-.1.5v.2l.1.4.1 1.2v.4l-.1.4.4.5v.1l.1.1v.1h-.1V127.2l.1.1-.1.1.3.4zm2.8-14.3l-.1.3-.1.1-.5.4-.3.4-.6 1.3h-.1l-.1-.1-.1-.1-.3-.1.1.2.1.1v.1l-.2.1v.2l-.2.3-.2.3-.1.2v.1l-.2.4v.2l-.1.5-.3.8-.2 1.4-.1.2.1.1h.1l.1-.2.2-.4.2-1 .6-1.8 1-2 1.3-2.1.1-.1-.1-.1v.3zm2.2-3.7l-.1-.1-.1.1-.1.1-.1.1-.1.1h-.2l-.6 1.1v.1h.2v.1l-.1.1v.1l-.3.4-.4.6-.1.4.1.2.1-.2.1-.3.4-.5.4-.7.9-1.1v-.6zm4.9-3.4h-.2v.5l-.1.2-.1.1H111.1l-.1.1-.2.2-.5.2-.1.1-.1.1-.5.3-.1.2-.1.1-.4.3-.1.1h-.2l-.4.1h-.2l-.2.1v.4l.1.1v.1l-.1.1-.1.2-.1.2v.2h.1l.1-.2.1-.2.3-.3.6-.5.3-.3 1-.6.6-.5.3-.2.4-.1.8-.4v-.1l.1-.1v-.5h-.3zm1.4-1.1l-.4.3-.6.6v.1h.2l.2-.1.3-.3.3-.1.1-.1.2-.2.1-.1h.1v-.1h-.5zm15.4-11.5h-.2v.1h.2v.1l-.1.2-.1.1-.2.1-.1.1-.1.2-.4.4v.1H127.6l-.1.1v.2l-.1.2-.8.5-.4.4-.2.2-.1.3h.1l.2-.2 1.5-1.2.5-.2 1.6-1.4-.7-.2-.2-.1zm12.9-21.9l-.2-.1-.3-.4v-.1l.1-.2v-.7l-.1-.2h-.2l-.2.1v-.1l-.1-.3v-.1l-.1-.1v-.5l-.1-.1-.3-.2-.1-.1v-.5l.1-.2-.1-.1-.2-.2-.1-.1v-.6H139.6v-.5l.1-.1v-.2h-.2l-.3-.1h-.2l-.1-.1-.3-.3-.1-.1-.1-.1v-2.1l-.1-.5v-.1l-.3-.4-.1-.2v-.1l-.1-.1-.1-.2-.2-.2-.2-.2-.1-.1-.4-.2h-.1l-.2-.4v-.1l-.1-.1h-.1l-.1-.1-.1-.1v-.9L136 58l-.1-1.5-.1-1.5-.1-1.5-.1-1.5-.1-2.9-.1-1.5-.1-1.5-.1-1.5-.1-1.5-.1-1.5v-.8h-.1l-.2-.1-.3-.2-.2.1h-.4l-.4-.2-.1.1-.1.1-.1.1-.5-.2h-.2l-.1.2-.1.2-.1.1-.2-.1-.2.1h-.2l-.1-.1.1-.1v-.1l-.3.1-.3-.1-.2-.2-.1-.3-.1-.2H129.9l-.2-.1v.1l-.5-.1-.2-.1v-.2h-.2l-.3.1-.1-.1-.1-.1H128l-.1.1h-.2l-.1-.1-.2-.1-.2-.3-.1-.1h-.1l-.3-.1-.7-.1-.4-.4-.2-.3-.1-.1-.1-.1h-.1l-.1-.1V37.5l-.1-.1-.1-.1h-.7l-.2-.1-.4-.3-.2-.1-.3-.1v.3-.1l-.1-.1-.1-.1-.7-.2h-.2l-.2.2-.1.2V37.2l-.1-.1-.1.1-.1.1h-.1l-.1.1-.1-.1V37.6H119.8l-.1-.1h-.4v-.1h-.3l-.1-.1.1-.2-.1-.2-.1-.1-.1-.1-.1-.1h-.1l-.1.1-.1.2h-.1l-.2-.1-.2.1h-.1l-.1.1-.1.1-.1.1H116.8l-.1.1.1.3-.1.1h-.1l-.1-.1-.1-.1h-.1l-.1.1-.1.1-.3.1h-.1l-.6-.4-.1-.1h-.1l-.1.1-.1.1v.1h-.1l-.2.1-.2.1-.4.2h-.7l-.2.1h-.1l-.1.1-.2.4-.1.2-.2.1H111.3l-.1.1v.5l-.3.2-.3-.3-.3-.5-.2-.3h-.2l-.7.1h-.1V38.4h-.1l-.2-.1-.4-.1-.1-.1v-.4l.1-.2v-.1l-.1-.1-.3-.1H107.7l-.1.1-.1.4v.2h-.7l-.3-.2h-.2l-.4.1h-.2l-.1-.1-.6.3-.1-.1-.1-.4v-.2h-.1l-.1-.1h-.2l-.4.1h-.1l-.1.1v.5l-.1.3-.2.2-.2.1-.4-.1v.2l.1.1.1.1v.2l-.2.1v.5l-.1.3-.2.2h-.3l-.3-.1-.2-.3-.1-.3-.1-.3v-.2l.2-.3v-.4l-.1-.1-.1-.1-.1-.1h-.1l-.1.1h-.1v.2l-.2.3-.1.1-.3-.2h-.1l-.2.1-.1.1-.1.1-.1.1-.1.1h-.1l-.6.1-.2-.1-.1-.3v-.3l-.1-.2-.2-.1h-.2l-.7.1-.2-.1-.1-.2v-.5l-.1-.2-.3-.1-.4.1-.4.3-.9.9-.3.3-.5.1-.4-.1-.2-.1-.1-.1V38l.1-.3v-.1l-.1-.1.1-.1v-.1l-.1-.3h-.1l-.4-.1-.5-.1-.4-.2v-.4l-.1-.2v-.7l-.2-.1h-.3l-.5.2H91l-1.4-.2-.3.1-.2.2-.1.2v.4h-.7l-.2-.1-.4-.4-.1-.1-.1-.1-.2-.3-.1-.1H86.6l-.7.3-.1-.1-1.4-.2h-.2l-.8-.5-.2-.1H83l-.2.1h-.4l-.4-.1H81.1l-.2-.1V33.2l-.2-.2-.3-.3-.1-.2-.1-.2V32l-.2-.1h-.4l-.1-.1v-.2l-.1-.1-.2-.1H79l-.1.1-.1.6-.1.2-.2.1h-.2l-.2-.1-.4-.2-.4-.1h-.1l-.1.1-.1.1-.1.1-.2.1-.6-.1-.2-.1-.1-.1-.2-.3-1.7-1.7-.1-.1h-.2l-.1-.1h-.2l-.5.1h-.2V6H49l-2-.3h-5V6.3L41.9 8l-.1 1.7-.1 1.7-.1 1.7-.1 1.7-.1 1.7-.1 1.7-.1 1.7-.1 1.7-.1 1.7-.1 1.7v1.7l-.1 1.7-.1 1.7-.1 1.7.4 2.1v1.7l-.1 1.7-.1 1.7-.1 1.7-.1 1.7-.1 1.7.1 1.9-.1 1.7-.1 1.7-.1 1.7.1 1.9-.1 1.7-.1 1.7-.1 1.7-.1 1.7-.1 1.7-2.3-.1-2.4-.1-2.4-.1-2.4-.1-2.3-.1-2.1.2-2.4-.1-2.2-.1-2.4-.1-2.3-.1-2.4-.1-2.3-.2-2.4-.1-2.3-.1-2.4-.1-2.3-.2h-.5v.2l.2.5v.6l.1.2.2.4-.1.1.1.1.1.1.1.1h.1l.1.1.6.7.2.1h.5l.4.2.3.4.3.5.2.4.2.9.1.2.4.6.1.2V66.9l.1.1h.5l.1.1.2.1.4.2.4.3.2.1h.3l.2.1.5.3.1.1.1.1.1.2.1.1.2.1-.1.2.2.1.2.2.8 1 .1.2.1.2.8.6.2.1.1.1.3.3.2.2.2.1.2.1.1.3.1.4.1.2.3.1.3.5.8.7.4.6.1.1.3.1.6.3.1.1.1.1.1.1.1.1h.1l.1-.1H17.1l.1.2H17.5v.2l.1.2.1-.1.5.6.2.1.2.1.2.1.2.2.1.2V77.9l.1.1h.1l.3.1h.1l.1.1.3.4.1.2v.5l.2.1v.2l-.1.1v.2l.1.2v.5l.1.1.1.1.1.1.1.1V81.3l.1.1.2.1.1.3.1.4.1.2.1.1.2.1.1.1.2.5.1.2v.8l-.1.4-.1.4v.5l.2.7v.5l.1.2v.2l.2.3.1.6v.1l.2.2.2.2.1.2.1.5.2.4.1.2V90.1l.1.2.5.4.1.2V91.2h.2l.9.6.1.2.2-.1h.3l.3.1.2.2.3.2h.1l.1.1.2.5.3.4.2.2.4.2.5.6.4.3 1 .4.7.2.8.1h.1l.1.1v.1l-.1.3.1.1h.2l.5.5.3.2 1 .3h.5v.2l.1.1.5.6.5.3h.1l.1.1.3.3.2.1.1-.1.1-.1h.1l.1.2H36.5l-.1.3.2.1h.7l.6.2.4.1.3-.1.2-.3.1-.4h.1l.1-.2-.1-.4.1-.1.4-.2.1-.1.1-.1.3-.6.1-.1.1-.1.2.1.1-.1.5-.4h.3l.1-.1-.1-.1-.3-.2V95.6l.2-.5V94.8l.1-.1.1-.1H41.7l.1-.1v-.1l-.1-.2v-.1l.1-.2v-.5l.1-.1.1-.1.4-.9.1-.1.1-.1v-.2h.1l-.1-.2.1-.1.1-.1.1-.2.2-.3.1-.2.3-.6V89.9l.1-.1h.7l.4-.2.2-.1v.1h.2l.1-.1.1-.1h.1l1.2.1.3-.4v-.5l.1-.1h.2l.1-.2.1-.1.2.1.1.1.1.1h.2v.2l.1.1h.4l.5.3.1.1.4.2 1-.1.3.1.2-.2.2.1.1.1.1.1H51.7l.1-.1h.2l.2.1h.4l.1-.1h.1v.1l.1.1 1.8.3.6-.1.2-.1.1-.1V89.3h.1l.1.1v.2l-.1.2v.1l.2.1.2-.1.2-.1.2-.1h.1l.1.2.1.1h.4V90.3l.1.1.2.3.1.2.1.3.1.1.1.1.1.1h.3l.1.1v.2l-.1.3v.2h.1l.2-.2.3-.2h.3l.2.2v.3l-.1.4v.2l.1.1h.2l.1.1.2.3.3.2.7.2.3.1.1.2V94.8l.1.1.1.1.1.1.1.1.8.4.3.2.2.3.1.1.5.3.2.2.1.2.2.4-.1.3.1.2.6.5v.2H65l.1.2.1.7.2.5v.3l-.1.3.1.1v.4l.1.1.1.1.1.1.1.2.2.1h.1v.1l-.1.2v.1h.4v.1l.1.1v.1l.1.1.3 1.2.1.3.4.5v.2l.1.1.3.1.1.1v.5l.1.3.2.1.5.2-.3.2-.1.1v.1l.1.1.1.1v.1l.1.5.1.4.3.4.2.3v.2l-.1.2.1.2.2.2.2.1.3.1h.1v.5l.1.1h.2l1.1.6.2.2.1.3V111.3l.2.2.1.1h.1V111.9l.1.2.1.2.1.2.2.2.2.1.2.1.1.1-.1.2.1.2.2.2.2.2.2.1v.2l-.1.2v.1l.1.1.1.1.1.1v.5h.1l.1.1.1.1v.1l.3.1.1.1.1.2.1.2.1.1.2.1h.1V116.6l.1.1.2.3.1.1h.4l.1.1.1.2h.1l.2-.1h.2l.1.2.1.1.2.1.2.1.2.2.1.2v.9l.1.1H78v1l-.1.3v.3l-.1.2v.2l-.2.2-.1.1.3.1.1.1v.1l.1.1.2.2.1.2.1.2v.4l-.2.5v.4l.1.1v.2l-.2.4.2.3v.1l.2.1H78.8l.1.1v.4l.1.1.5.4.1.2.4.4.2.2.2.2.2.2.2.5.1.6.5 1.3v.2l.1.6.1.3.3.1.3.1.1.2.1.3V131.7l-.1.2-.1.2v.1l.2.2H83.1l.1.1h.2l.2-.1h.3l.1.1.1.2.2-.2.4.3.3-.1.1.1h.2l.1-.1.1.1h.1l.1-.1h.2l.2.2.4.2.1.1v.2h.4l.1.1-.1.2v.1h.2l.2.2.1.1h.1l.7-.3.3.2.4.1.3.1.2.3.1-.2.3.1.4.2.3.1-.1.2v.1h.4l.1.1.3.4.1.1.9.4.4.1h.4l.5-.1h.2l.1.3h.1l.2-.1.4-.2h.2l.6.1.7-.1h.9l.2.1v.2h1.3l.2.1.2.2.1.2.1.2.1.2.3.1.5.5.2.1.2.1h.4l.1.1.1.2.1.2h.2v-.2h.1l.1.1v.1l.1.1h.1l.2-.1v-.5l-.1-.3V137.4l.3-.2.2.1.3-.1.1-.1.1-.1v-.2h.6l.7-.1v-1.1l-.1-.3h-.1l-.1.1V136l-.1.1-.1.1-.3.1-.1.1v.1l-.1-.1h-.1v-.1l-.1-.2v-.2l.1-.3v-.2l.2.1h.1l.1-.1v-.2l-.1-.1h-.5l-.1-.1-.1-.1h-.1l-.1-.1-.1-.3v-.4l.1-.3-.2-.2-.1-.1v-.2l.1-.1v-.1l-.1-.1-.1-.1H101.7l-.1-.1v-.3l.1-.3.1-.1.1-.1v-.1l-.1-.1v.1l-.1.1h-.1.4v-.1l.1-.3v-.1h-.4l-.1-.1v-.2l-.1-.1-.2-.1h-.1V130.2l-.4-.1.3-.1.1-.1.1-.2v.1l.1.1v.1l-.1-.4-.3-.8-.1-.8-.3-.8-.1-.5-.1-.2-.1-.2-.1-.1-.2-.1h-.1l-.1-.2v-.7l.1-.1.1.1.5.5.1-.3-.2-.2-.4-.2-.1-.1-.1-.2-.1-.2v-.6l.1-.1.6-.1.1-.1v-.2l-.1-.3.1-.1-.1-.2-.1-.1v-.1h.2l.2-.1.1-.1.1-.1v-.2l-.1-.2v-.2l.1-.1v-.6l.1-.1.1-.1v-.2l-.1-.2-.7.3-.2.1-.2.1h-.3l-.6-.1-.2-.1-.2-.1-.2-.1h-.3l-.6.1-.2-.1-.2-.2h.3l.3.1h.3l.3-.1.1-.2-.1-.1h-.2l-.2.1v-.1l.2-.1-.1-.3-.4-.4h.2l-.1-.3-.4-.4v-.3l.4.2.3.3.9 1.3V120.3h.2l.1-.1v-.2l.2-.3h.1l.1.2.2-.2.1-.1.1-.1-.1-.2.1-.1.2-.3.2-.1v.5h.2l.1.1-.1.1h-.4.1l-.1.1-.4.2.2.1.2-.1.2-.3.7-.3.1-.1v-.3l.4-1.3.1-.2V117l.2-.6.3-.6v-.5l.1-.1.1-.2.1-.2v-.2l-.1-.2-1-.4-.2-.2-.3-.3.1-.1v-.1l.1-.4-.1-.2-.1.1-.1.1h-.1l-.1-.1-.4.1h-.2l-.2-.2-.2-.3.2-.1h.1v.1h.4v-.1h1l.3-.1v.1l-.1.1h.3l.4-.2h.4l.2.1.1.2.1.2h-.2v.1h.3l.2-.2.8-1.3.4-.7.2-.4.1-.1.1-.1v-.4l.1-.5v-.1l-.1-.1h-.1l-.2.2-.5.2-.1.2v.2l-.1.2-.1.1-.1.1-.1.1V109.9l.4 1.1-.2-.1-.2-.1h-.2l-.1-.1.2-.3.4-.5-.2-.1v-.2l.1-.1H104.1l.1.1-.1.1.3-.1.4-.2.4-.3.2-.3h.1l.1.2-.1.4.1.1v.1l.4.1.1-.1.1-.3.1-.3.1-.2v-.2l-.1-.1.3-.4.1-.2h.1v.2l-.1.2-.1.2.2.2-.1.2-.1.2-.1.5.2-.1.4-.1.2-.1.4-.5.2-.2.4-.3.1-.2-.2-.5v-.2l.1-.2.1-.2-.2-.3-.3-.4-.2-.3.2-.2.1.1.2.2.2.1.1-.1v-.2l-.5.1-.3-.2h-.1v-.2l.1-.1.1-.1.1.1.2.3.1.1V106.2H108.5l.1.1v.6l.1.2.1.1.2-.1.2.1 1.2-.7.2-.1.4-.2.2-.1.8-.5v-.3l-.3-.3-.4-.1-.3.1-.1.1-.2.1h-.2l-.1-.2h.1l.6-.3-.1-.2-.1-.1-.1-.1-.1-.1-.2-.1-.3-.2h-.1l-.1.1h-.1l-.1-.1v-.7l-.3-.4-.1-.2-.1-.2v-.3l.1.1h.1v.1l.1-.1h.2l.1.1.1.1v.2l.1.2V103.1l.1.1h.6v.1l.1.3.4-.3.1.2-.1.2-.2.1h-.2l-.2.2.3-.1.4-.2.6-.4-.4-.1-.1-.1v-.6l.1-.1.1-.1v-.2h-.1l-.1.1h-.1l-.1-.1-.1-.2-.1-.2v-.2h.1v.1l.2.3.1-.1.1-.1.2.2.1.2v.2l-.1.1.1.1.3.3.1.1v.1l.2-.1.2-.1.3-.4.2-.1-.1.2.2-.2.1-.1h.5v.1l-.2.4v.1l.1.1h.4l.1-.1h.4v.1h-.1l-.2.1-.5.1-.2.1v.2h.2l.5-.2.6-.3.2-.1.1-.1.4-.3h.2l.2.1.1.2v.2l-.1.1-.2.1-1.5.9-.4.3-.2.3.3-.2.7-.5.6-.2.6-.6 1.1-.3.7-.4 1.3-.9-.4.1-.4.2-1.5.9h-.2v-.6l-.1-.1 1.5-.6.4-.1h1l.5-.1.5-.2 1.2-.9.7-.6.2-.1h.2l.1-.1.6-.5.6-.7.3-.2.8-.7.1-.2v-.4l-.1-.5v-.3l.1-.3-.1-.3-.1-.1.2.1h.2l.1.1.1.2.3-.2.2-.2.7-.9v-.1h.1l.2-.2.1-.1v-.2h.1l.2.1.2-.1.1-.3V93l.1-.3.2-.1h.2l.2.1v-.1l-.5-.2h-.1l-.1-.1-.3-.5v.1h-.3l-.1-.2v-.2l-.2-.1v-.1l.2-.1.1-.1.1-.1.1-.2-.8-.2-.4-.2.1-.3.1-.1.1-.2.1-.2-.4-.2-.1-.2V89l.2-.2-.1-.1h-.4l-.1-.1-.2-.2.1-.1h.6l.4.2.3.3.3.1.3-.3.2-.4.1-.4.1-.1.2-.1.4-.2.2-.1h.2l.1.2.1.1h.2V87.9l.1.2-.1.3-.1.6-.1.5-.2.4-.1.2-.1.1H128.4v.1l.1.1h.2l.6-.1 1.6-.5h.2l.2.1.2.2.2.1.2-.1.1-.1v.2l-.1.2-.1.1H131l-.1.1.1 1.4-.1.1-.1.1h-.1l-.3.1-.3.2-.8.9-.1.2v.1h.3l.2-.1.5-.7.4-.3 3.4-1.7 1.3-.6.9-.6.3-.2.4-.2h1.5l.3.1h.1l.2-.2-.2-.4-.6-.7-.3-.4.1-.5.8-1.3.1-.2v-.2l.1-.1h.5l.2-.4.6-.8-.1-.1V84l.1-.3.1-.3V82.7l-.1-.2v-.2l.1-.2V82l-.1-.3-.2-.2-.2-.1-.1-.2-.1-.5v-.2l.1-.3.2-.3.1-.2V79.4l-.1-.4V78.7h-.1V78.4l.1-.2.1-.2.2-.1v-.1l.1-.6.1-.2.3-.3.1-.2.1-.6.3-.7.1-.2V74.7l-.1-.2v-.2l.1-.1.1-.2.1-.1v-.1l-.1-.2-.1-.1-.2-.3-.1-.3.1-.1h.1l.3-.1.1-.1.1-.7z"/></svg>