<?xml version="1.0" encoding="utf-8"?>
<!-- Generator: Adobe Illustrator 16.0.0, SVG Export Plug-In . SVG Version: 6.00 Build 0)  -->
<!DOCTYPE svg PUBLIC "-//W3C//DTD SVG 1.1//EN" "http://www.w3.org/Graphics/SVG/1.1/DTD/svg11.dtd">
<svg version="1.1" id="Layer_1" xmlns="http://www.w3.org/2000/svg" xmlns:xlink="http://www.w3.org/1999/xlink" x="0px" y="0px"
	 width="864px" height="864px" viewBox="0 0 864 864" enable-background="new 0 0 864 864" xml:space="preserve">
<g>
	<g>
		<path fill-rule="evenodd" clip-rule="evenodd" fill="#EE8222" d="M317,96.4c75.2,72.2,150.3,74.8,225.4-0.8
			c0.9,1.1,1.9,2.3,2.8,3.4c-1.7,11.9-1.4,24.5-5.5,35.6c-15.6,42.8-31,85.8-49.5,127.4c-31,69.7-48,142.4-54.6,217.9
			c-1.5,17-2.9,34-4.7,55.1c-2.2-6.9-4-10-4-13.1c-1.9-116.2-36.4-223.3-86.8-326.9c-14.2-29.2-19.4-62.8-28.7-94.4
			C313.3,99.3,315.2,97.8,317,96.4z"/>
	</g>
	<g>
		<path fill-rule="evenodd" clip-rule="evenodd" fill="#EE8222" d="M334.9,704.2c16.6-22.1,34.6-42.8,51.7-64.4
			c20.8-26.1,36.7-94.4,43.9-130.7c0.9,3,2,6,2.6,9c7.9,37.1,27.6,104.6,48.8,131.9c21.7,27.9,43.9,55.3,65.2,83.6
			c7.1,9.4,12.1,21,20,34.9c-92.2,0-180.7,0-269.1,0C296.9,766.7,320.8,723,334.9,704.2z"/>
	</g>
	<g>
		<path fill="#0F3E65" d="M638.6,846.8H225.4c-8.6,0-16.6-4.2-21.5-11.3c-4.8-7.1-5.9-16.1-2.7-24.1l145.9-373.5l-138-386
			c-2.8-8-1.6-16.8,3.2-23.7c4.9-6.9,12.8-11,21.2-11h396.9c8.4,0,16.4,4.1,21.2,11c4.9,6.9,6.1,15.7,3.2,23.7l-138,386l145.9,373.5
			c3.1,8,2.1,17-2.8,24.1C655.2,842.6,647.2,846.8,638.6,846.8z M263.4,794.9h337.2L465,447.7c-2.3-5.8-2.4-12.3-0.3-18.2
			L593.6,69.1H270.4l128.9,360.4c2.1,5.9,2,12.4-0.3,18.2L263.4,794.9z"/>
	</g>
</g>
</svg>
