<?xml version="1.0" encoding="utf-8"?>
<!-- Generator: Adobe Illustrator 16.0.0, SVG Export Plug-In . SVG Version: 6.00 Build 0)  -->
<!DOCTYPE svg PUBLIC "-//W3C//DTD SVG 1.1//EN" "http://www.w3.org/Graphics/SVG/1.1/DTD/svg11.dtd">
<svg version="1.1" id="Layer_1" xmlns="http://www.w3.org/2000/svg" xmlns:xlink="http://www.w3.org/1999/xlink" x="0px" y="0px"
	 width="102.8px" height="21.4px" viewBox="0 0 102.8 21.4" enable-background="new 0 0 102.8 21.4" xml:space="preserve">
<g>
	<g>
		<path fill-rule="evenodd" clip-rule="evenodd" fill="#FFFFFF" d="M61.9,13.2c-1.8,1.3-3.7,1.6-5.7,1.2c-1.8-0.3-3.1-1.3-4.2-2.7
			c-2-2.5-2-6.2-0.1-8.7c0.8-1,1.7-1.8,2.9-2.3c1.2-0.5,2.4-0.8,3.6-0.6c1.2,0.2,2.4,0.6,3.5,1.4c0-0.4,0-0.6,0-0.9
			c0-0.5,0-0.5,0.5-0.5c0.7,0,1.4,0,2.1,0c0.3,0,0.3,0.1,0.3,0.3c0,4.6,0,9.2,0,13.8c0,0.2-0.1,0.3-0.3,0.3c-0.8,0-1.6,0-2.3,0
			c-0.2,0-0.3-0.1-0.3-0.3C61.9,13.9,61.9,13.6,61.9,13.2z M61.9,7.3C62,5.2,60,3.1,57.6,3.1c-2.3,0-4.2,2-4.2,4.3
			c0,2.3,1.9,4.3,4.3,4.3C60,11.6,62,9.5,61.9,7.3z"/>
	</g>
	<g>
		<path fill-rule="evenodd" clip-rule="evenodd" fill="#FFFFFF" d="M5.6,14.5c-1.7,0-3.3,0-5,0c-0.3,0-0.4-0.1-0.4-0.3
			c0-0.7,0-1.5,0-2.2c0-0.4,0-0.4,0.4-0.4c3.1,0,6.2,0,9.3,0c0.5,0,0.9,0,1.3-0.4c0.4-0.4,0.4-1,0.3-1.5c-0.1-0.5-0.5-0.7-1-0.8
			c-0.3,0-0.5-0.1-0.8-0.1c-1.3,0-2.7,0-4,0c-2,0-4-1.5-4.2-3.8C1.4,3.5,1.8,2.3,2.8,1.2c0.6-0.6,1.3-0.9,2.1-1
			c0.6-0.1,1.1-0.2,1.7-0.2c2.6,0,5.3,0,7.9,0c0.4,0,0.4,0,0.4,0.4c0,0.7,0,1.4,0,2.1c0,0.4,0,0.4-0.4,0.4c-2.8,0-5.6,0-8.4,0
			c-0.3,0-0.5,0-0.8,0.1C5.1,3.2,4.8,3.3,4.6,3.7C4.5,4,4.4,4.3,4.4,4.7c0,0.6,0.4,1,1,1.1c0.3,0.1,0.6,0.1,0.9,0.1
			c1.2,0,2.4,0,3.7,0c0.8,0,1.7,0.2,2.4,0.6c1,0.5,1.6,1.3,1.9,2.4c0.3,0.9,0.3,1.8,0,2.7c-0.4,1.5-1.5,2.4-2.9,2.8
			c-0.4,0.1-0.8,0.2-1.2,0.2C8.7,14.5,7.1,14.5,5.6,14.5z"/>
	</g>
	<g>
		<path fill-rule="evenodd" clip-rule="evenodd" fill="#FFFFFF" d="M22.6,14.5c-3.9,0.1-7.2-3.3-7.2-7.2c0-4,3.2-7.3,7.3-7.3
			c3.9,0,7.1,3.3,7.1,7.3C29.9,11,26.6,14.6,22.6,14.5z M18.4,7.3c0,2.2,1.8,4.3,4.3,4.3c2.3,0,4.2-2,4.2-4.3C26.9,5,25.2,3,22.6,3
			C20.4,3,18.4,5,18.4,7.3z"/>
	</g>
	<g>
		<path fill-rule="evenodd" clip-rule="evenodd" fill="#FFFFFF" d="M92.3,7.3c0-1.3,0-2.6,0-3.9c0-1.9,1.7-3.3,3.3-3.3
			c2.2,0,4.3,0,6.5,0c0.4,0,0.4,0,0.4,0.4c0,0.8,0,1.7,0,2.5c0,0.2-0.1,0.3-0.3,0.3c-1.9,0-3.9,0-5.8,0c-0.1,0-0.2,0-0.3,0
			c-0.3,0-0.4,0.1-0.4,0.4c0,0.3,0,0.7,0,1c0,2,0,4,0,6c0,0.5,0.1,0.6,0.6,0.6c2,0,3.9,0,5.9,0c0.4,0,0.4,0,0.4,0.4
			c0,0.8,0,1.7,0,2.5c0,0.2-0.1,0.3-0.3,0.3c-2.2,0-4.4,0-6.6,0c-1.5,0-3.3-1.3-3.3-3.3C92.3,9.9,92.3,8.6,92.3,7.3z"/>
	</g>
	<g>
		<path fill-rule="evenodd" clip-rule="evenodd" fill="#FFFFFF" d="M72.4,5.9c0-1.8,0-3.6,0-5.5c0-0.4,0-0.4,0.4-0.4
			c0.9,0,1.7,0,2.6,0c0.5,0,0.5,0,0.5,0.4c0,3.3,0,6.7,0,10c0,0.1,0,0.2,0,0.2c0,0.4,0.1,0.5,0.5,0.5c0.5,0,1.1,0,1.6,0
			c1,0,1.9,0,2.9,0c0.3,0,0.4,0.1,0.4,0.3c0,0.9,0,1.7,0,2.6c0,0.2-0.1,0.3-0.3,0.3c-1.7,0-3.4,0-5.1,0c-1.6,0-3.3-1.4-3.3-3.3
			C72.5,9.5,72.4,7.7,72.4,5.9z"/>
	</g>
	<g>
		<path fill-rule="evenodd" clip-rule="evenodd" fill="#FFFFFF" d="M82.5,5.9c0-1.8,0-3.6,0-5.5c0-0.4,0-0.4,0.4-0.4
			c0.9,0,1.8,0,2.7,0c0.4,0,0.4,0,0.4,0.4c0,3.4,0,6.8,0,10.1c0,0.1,0,0.2,0,0.3c0,0.3,0.1,0.4,0.4,0.4c0.3,0,0.6,0,0.9,0
			c1.2,0,2.4,0,3.6,0c0.3,0,0.4,0.1,0.3,0.4c0,0.9,0,1.7,0,2.6c0,0.2-0.1,0.3-0.3,0.3c-1.7,0-3.4,0-5.2,0c-1.6,0-3.3-1.4-3.3-3.3
			C82.5,9.5,82.5,7.7,82.5,5.9z"/>
	</g>
	<g>
		<path fill-rule="evenodd" clip-rule="evenodd" fill="#FFFFFF" d="M31.1,10.6c0-1.1,0-2.1,0-3.2c0.1-2.3,1-4.2,2.8-5.5
			c1.1-0.8,2.3-1.3,3.7-1.5c0.6-0.1,1.3-0.2,1.9-0.2c0.2,0,0.3,0,0.3,0.3c0,0.8,0,1.6,0,2.4c0,0.2-0.1,0.3-0.3,0.3
			c-1.1,0-2.2,0.2-3.1,0.7C34.8,4.6,34,5.9,34,7.5c-0.1,2.2,0,4.4,0,6.6c0,0.4,0,0.4-0.4,0.4c-0.7,0-1.5,0-2.2,0
			c-0.2,0-0.3-0.1-0.3-0.3C31.1,13,31.1,11.8,31.1,10.6C31.1,10.6,31.1,10.6,31.1,10.6z"/>
	</g>
	<g>
		<path fill-rule="evenodd" clip-rule="evenodd" fill="#0F3E65" d="M79.1,17.8c0.4-0.1,0.5-0.1,0.6,0.3c0.2,0.8,0.5,1.7,0.8,2.5
			c0.1-0.4,0.2-0.8,0.4-1.2c0.1-0.5,0.3-0.9,0.4-1.4c0.1-0.2,0.2-0.2,0.4-0.2c0.2,0,0.3,0.1,0.3,0.3c0.2,0.7,0.4,1.5,0.6,2.2
			c0,0.1,0.1,0.2,0.1,0.4c0.2-0.5,0.3-1,0.4-1.4c0.1-0.4,0.2-0.8,0.3-1.1c0.1-0.3,0.2-0.4,0.6-0.3c0,0.1,0,0.2-0.1,0.2
			c-0.3,1-0.6,2-0.9,3c-0.1,0.2-0.2,0.3-0.4,0.3c-0.2,0-0.3-0.1-0.3-0.3c-0.2-0.8-0.5-1.6-0.8-2.5c0,0.1-0.1,0.2-0.1,0.2
			c-0.2,0.7-0.4,1.5-0.6,2.2c0,0.2-0.1,0.3-0.3,0.3c-0.2,0-0.3-0.1-0.4-0.3c-0.3-0.9-0.6-1.8-0.9-2.8C79.2,18.1,79.1,18,79.1,17.8z"
			/>
	</g>
	<g>
		<path fill-rule="evenodd" clip-rule="evenodd" fill="#0F3E65" d="M75.9,20.8c-0.3,0.5-0.8,0.6-1.4,0.6c-0.6,0-1-0.4-1-1
			c0-0.5,0.2-0.8,0.6-0.9c0.4-0.1,0.8-0.2,1.2-0.2c0.5-0.1,0.6-0.1,0.6-0.4c0-0.4-0.2-0.6-0.6-0.7c-0.2,0-0.4,0-0.5,0
			c-0.3,0.1-0.6,0.2-0.6,0.6c0,0.2-0.2,0.2-0.4,0.2c-0.2,0-0.1-0.2-0.1-0.3c0.1-0.4,0.4-0.7,0.8-0.8c0.4-0.1,0.8-0.1,1.2,0
			c0.5,0.1,0.8,0.5,0.8,1.1c0,0.6,0,1.1,0,1.7c0,0.2,0,0.4,0.3,0.4c0,0,0.1,0.1,0.1,0.2c0,0.1-0.1,0.2-0.1,0.2
			C76.3,21.4,76.1,21.2,75.9,20.8z M75.9,19.5c-0.3,0.1-0.7,0.1-1,0.2c-0.2,0-0.4,0.1-0.5,0.2c-0.4,0.2-0.5,0.8-0.1,1
			c0.2,0.1,0.4,0.2,0.6,0.1C75.7,20.9,76.1,20.3,75.9,19.5z"/>
	</g>
	<g>
		<path fill-rule="evenodd" clip-rule="evenodd" fill="#EE8222" d="M41.2,20.8c-0.3,0.5-0.8,0.6-1.4,0.6c-0.7,0-1-0.4-1-1.1
			c0-0.4,0.2-0.6,0.5-0.8c0.4-0.1,0.8-0.2,1.2-0.3c0.1,0,0.1,0,0.2,0c0.2,0,0.4-0.1,0.5-0.3c0-0.3-0.1-0.6-0.3-0.7
			c-0.3-0.1-0.7-0.2-1,0c-0.2,0.1-0.3,0.3-0.4,0.5c-0.1,0.2-0.2,0.2-0.4,0.2c-0.1,0-0.1-0.2-0.1-0.3c0-0.1,0-0.2,0.1-0.2
			c0.4-0.9,2-0.8,2.4-0.2c0.1,0.2,0.2,0.5,0.2,0.7c0,0.6,0,1.2,0,1.7c0,0.2,0,0.3,0.2,0.4c0.1,0,0.1,0.1,0.1,0.2
			c0,0.1-0.1,0.1-0.2,0.2C41.5,21.3,41.4,21.2,41.2,20.8z M41.2,19.5c-0.5,0.1-1,0.2-1.4,0.3c-0.3,0.1-0.4,0.2-0.4,0.5
			c0,0.3,0.2,0.5,0.5,0.6c0.4,0.1,0.8,0,1.1-0.3C41.2,20.3,41.2,19.9,41.2,19.5z"/>
	</g>
	<g>
		<path fill-rule="evenodd" clip-rule="evenodd" fill="#EE8222" d="M59,20.1c0,0.6-0.6,1.2-1.3,1.3c-0.9,0.1-1.5-0.4-1.7-1.3
			c-0.1-0.6-0.1-1.2,0.2-1.8c0.3-0.5,0.9-0.7,1.5-0.7c0.6,0.1,1,0.4,1.2,1c0.1,0.2,0.1,0.4,0.1,0.7c0,0.2,0,0.3-0.3,0.3
			c-0.7,0-1.4,0-2.1,0c-0.3,0-0.3,0-0.3,0.3c0.1,0.8,0.7,1.1,1.4,0.9c0.3-0.1,0.5-0.3,0.6-0.6C58.6,20.1,58.8,20,59,20.1z
			 M56.5,19.2C56.5,19.2,56.5,19.3,56.5,19.2c0.7,0,1.3,0,1.9,0c0.2,0,0.2-0.1,0.2-0.3c-0.1-0.6-0.6-1-1.1-0.9
			C56.9,18.1,56.5,18.6,56.5,19.2z"/>
	</g>
	<g>
		<path fill-rule="evenodd" clip-rule="evenodd" fill="#EE8222" d="M24,18.8c0-0.7,0-1.4,0-2.1c0-0.2,0.1-0.3,0.3-0.3
			c0.8,0,1.7,0,2.5,0c0.1,0,0.2,0.1,0.3,0.2c0.1,0.2-0.1,0.3-0.3,0.3c-0.6,0-1.3,0-2,0c-0.3,0-0.4,0.1-0.4,0.3c0,0.3,0,0.7,0,1
			c0,0.3,0.1,0.3,0.3,0.3c0.6,0,1.1,0,1.7,0c0.2,0,0.3,0,0.3,0.2c0,0.2-0.1,0.2-0.3,0.2c-0.6,0-1.1,0-1.7,0c-0.2,0-0.3,0.1-0.3,0.3
			c0,0.6,0,1.1,0,1.7c0,0.2,0,0.3-0.3,0.3c-0.3,0-0.3-0.1-0.3-0.3C24,20.2,24,19.5,24,18.8z"/>
	</g>
	<g>
		<path fill-rule="evenodd" clip-rule="evenodd" fill="#EE8222" d="M33.7,18.2c0.4-0.5,1-0.6,1.6-0.5c0.4,0.1,0.7,0.4,0.7,0.8
			c0,0.9,0,1.7,0.1,2.6c0,0.2-0.1,0.2-0.3,0.2c-0.2,0-0.2-0.1-0.2-0.2c0-0.6,0-1.2,0-1.8c0-0.1,0-0.3,0-0.4
			c-0.1-0.5-0.3-0.7-0.7-0.7c-0.4,0-0.9,0.2-1,0.6c-0.1,0.2-0.1,0.4-0.1,0.6c0,0.6,0,1.1,0,1.7c0,0.2,0,0.3-0.2,0.3
			c-0.2,0-0.2-0.1-0.2-0.3c0-1,0-1.9,0-2.9c0-0.2,0-0.3,0.2-0.4C33.7,17.8,33.6,17.9,33.7,18.2C33.7,18.1,33.7,18.2,33.7,18.2z"/>
	</g>
	<g>
		<path fill-rule="evenodd" clip-rule="evenodd" fill="#EE8222" d="M45.2,18.2c0.4-0.5,0.9-0.6,1.5-0.5c0.5,0.1,0.8,0.4,0.9,1
			c0,0.8,0,1.6,0,2.4c0,0.2-0.1,0.2-0.2,0.2c-0.2,0-0.2-0.1-0.2-0.2c0-0.6,0-1.2,0-1.8c0-0.1,0-0.3,0-0.4c-0.1-0.5-0.2-0.7-0.6-0.7
			c-0.4-0.1-0.9,0.1-1.1,0.4c-0.1,0.2-0.2,0.5-0.2,0.7c0,0.6,0,1.1,0,1.7c0,0.2,0,0.3-0.3,0.3c-0.3,0-0.2-0.2-0.2-0.3
			c0-0.9,0-1.9,0-2.8c0-0.2,0-0.3,0.2-0.3c0.3,0,0.3,0.1,0.3,0.3C45.1,18.1,45.2,18.1,45.2,18.2z"/>
	</g>
	<g>
		<path fill-rule="evenodd" clip-rule="evenodd" fill="#EE8222" d="M52,17.7c0.7,0,1.2,0.4,1.4,1c0,0.1,0,0.2-0.1,0.3
			c-0.1,0-0.3-0.1-0.4-0.1c0,0,0,0,0-0.1c-0.1-0.4-0.4-0.6-0.8-0.6c-0.4,0-0.8,0.1-1,0.5c-0.4,0.6-0.4,1.2-0.1,1.8
			c0.2,0.4,0.6,0.6,1.1,0.6c0.5,0,0.7-0.3,0.9-0.8c0.1-0.2,0.2-0.3,0.4-0.2c0.2,0.1,0.1,0.2,0.1,0.3c-0.4,1.3-1.8,1.3-2.5,0.7
			c-0.8-0.7-0.8-2.2-0.1-2.9C51.1,17.8,51.5,17.7,52,17.7z"/>
	</g>
	<g>
		<path fill-rule="evenodd" clip-rule="evenodd" fill="#0F3E65" d="M68,18.9c0-0.7,0-1.4,0-2c0-0.2-0.1-0.4,0.2-0.4
			c0.3,0,0.3,0.2,0.3,0.4c0,1.2,0,2.4,0,3.6c0,0.4,0,0.4,0.4,0.4c0.7,0,1.4,0,2,0c0.1,0,0.3,0,0.3,0.2c0,0.2,0,0.2-0.2,0.2
			c-0.9,0-1.8,0-2.8,0C68,21.3,68,21.1,68,21C68,20.3,68,19.6,68,18.9z"/>
	</g>
	<g>
		<path fill-rule="evenodd" clip-rule="evenodd" fill="#3D4851" d="M63.8,20c-0.5,0-0.9-0.4-0.9-0.9c0-0.5,0.4-0.9,0.9-0.9
			c0.5,0,0.9,0.4,0.9,0.9C64.7,19.6,64.3,20,63.8,20z"/>
	</g>
	<g>
		<path fill-rule="evenodd" clip-rule="evenodd" fill="#EE8222" d="M29.7,19.5c0-0.5,0-1,0-1.5c0-0.2,0-0.3,0.3-0.3
			c0.2,0,0.2,0.1,0.2,0.3c0,1,0,2,0,3c0,0.2,0,0.3-0.2,0.3c-0.2,0-0.3-0.1-0.3-0.3C29.7,20.5,29.7,20,29.7,19.5z"/>
	</g>
	<g>
		<path fill-rule="evenodd" clip-rule="evenodd" fill="#EE8222" d="M30.2,16.8c0,0.2,0,0.4-0.2,0.4c-0.3,0-0.2-0.2-0.2-0.4
			c0-0.2,0-0.3,0.2-0.3C30.3,16.4,30.2,16.6,30.2,16.8z"/>
	</g>
	<g>
		<path fill-rule="evenodd" clip-rule="evenodd" fill="#EE8222" d="M43.7,1.5c1.3,1.2,2.6,1.3,3.9,0c0,0,0,0,0,0.1
			c0,0.2,0,0.4-0.1,0.6c-0.3,0.7-0.5,1.5-0.9,2.2c-0.5,1.2-0.8,2.4-0.9,3.7c0,0.3,0,0.6-0.1,0.9c0-0.1-0.1-0.2-0.1-0.2
			c0-2-0.6-3.8-1.5-5.6C43.8,2.7,43.7,2.1,43.7,1.5C43.6,1.6,43.6,1.5,43.7,1.5z"/>
	</g>
	<g>
		<path fill-rule="evenodd" clip-rule="evenodd" fill="#EE8222" d="M44,11.9c0.3-0.4,0.6-0.7,0.9-1.1c0.4-0.4,0.6-1,0.8-1.6
			c0,0.1,0,0.1,0,0.2c0.1,0.6,0.5,1.1,0.8,1.6c0.4,0.5,0.8,0.9,1.1,1.4c0.1,0.2,0.2,0.4,0.3,0.6c-1.6,0-3.1,0-4.6,0
			C43.3,13,43.7,12.3,44,11.9z"/>
	</g>
	<g>
		<path fill="#0F3E65" d="M49.2,14.4h-7.1c-0.1,0-0.3-0.1-0.4-0.2c-0.1-0.1-0.1-0.3,0-0.4l2.5-6.4l-2.4-6.6c0-0.1,0-0.3,0.1-0.4
			c0.1-0.1,0.2-0.2,0.4-0.2H49c0.1,0,0.3,0.1,0.4,0.2s0.1,0.3,0.1,0.4l-2.4,6.6l2.5,6.4c0.1,0.1,0,0.3,0,0.4
			C49.5,14.3,49.3,14.4,49.2,14.4z M42.7,13.5h5.8l-2.3-6c0-0.1,0-0.2,0-0.3L48.4,1h-5.5l2.2,6.2c0,0.1,0,0.2,0,0.3L42.7,13.5z"/>
	</g>
</g>
</svg>
