<?xml version="1.0" encoding="utf-8"?>
<!-- Generator: Adobe Illustrator 16.0.0, SVG Export Plug-In . SVG Version: 6.00 Build 0)  -->
<!DOCTYPE svg PUBLIC "-//W3C//DTD SVG 1.1//EN" "http://www.w3.org/Graphics/SVG/1.1/DTD/svg11.dtd">
<svg version="1.1" id="Layer_1" xmlns="http://www.w3.org/2000/svg" xmlns:xlink="http://www.w3.org/1999/xlink" x="0px" y="0px"
	 width="864px" height="864px" viewBox="0 0 864 864" enable-background="new 0 0 864 864" xml:space="preserve">
<path fill="#EF8111" d="M648,499.2c-36.854,0-70.271,14.429-95.175,37.813L460.8,468V362.592C526.215,351.197,576,294.278,576,225.6
	c0-76.877-62.323-139.2-139.2-139.2s-139.2,62.323-139.2,139.2c0,68.678,49.786,125.597,115.2,136.992v105.092l-98.966,70.991
	c-18.192-17.846-41.319-30.682-67.171-36.201c-96.432-20.582-180.72,58.801-168.72,154.022
	c7.814,62.045,57.917,112.138,119.961,119.962c95.223,12,174.605-72.288,154.023-168.729c-2.236-10.493-5.73-20.517-10.225-29.973
	l94.781-67.997l87.504,65.626c-9.64,18.94-15.188,40.312-15.188,63.016c0,76.877,62.323,139.198,139.2,139.198
	S787.2,715.277,787.2,638.4S724.877,499.2,648,499.2z M216,547.219c23.146,0,41.914,18.77,41.914,41.914
	c0,23.146-18.768,41.914-41.914,41.914s-41.914-18.769-41.914-41.914C174.086,565.979,192.854,547.219,216,547.219z M278.4,710.4
	H153.6v-18.816c0-25.719,18.048-48.384,43.776-48.384h37.258c25.718,0,43.766,22.665,43.766,48.384V710.4z M436.8,134.419
	c23.146,0,41.914,18.768,41.914,41.914s-18.769,41.914-41.914,41.914c-23.145,0-41.913-18.768-41.913-41.914
	C394.887,153.178,413.654,134.419,436.8,134.419z M374.4,297.6v-18.816c0-25.719,18.048-48.384,43.774-48.384h37.258
	c25.72,0,43.768,22.666,43.768,48.384V297.6H374.4z M648,547.219c23.146,0,41.914,18.77,41.914,41.914
	c0,23.146-18.768,41.914-41.914,41.914s-41.914-18.769-41.914-41.914C606.086,565.979,624.854,547.219,648,547.219z M710.4,710.4
	H585.6v-18.816c0-25.719,18.05-48.384,43.776-48.384h37.258c25.718,0,43.768,22.665,43.768,48.384L710.4,710.4L710.4,710.4z"/>
</svg>
