<?xml version="1.0" encoding="utf-8"?>
<!-- Generator: Adobe Illustrator 16.0.0, SVG Export Plug-In . SVG Version: 6.00 Build 0)  -->
<!DOCTYPE svg PUBLIC "-//W3C//DTD SVG 1.1//EN" "http://www.w3.org/Graphics/SVG/1.1/DTD/svg11.dtd">
<svg version="1.1" id="Layer_1" xmlns="http://www.w3.org/2000/svg" xmlns:xlink="http://www.w3.org/1999/xlink" x="0px" y="0px"
	 width="864px" height="864px" viewBox="0 0 864 864" enable-background="new 0 0 864 864" xml:space="preserve">
<path fill="#EF8111" d="M589.92,351.744c-21.6,0-39.264,17.568-39.264,39.264v26.112c0,21.696,17.664,39.36,39.264,39.36h91.68
	V351.744H589.92z M616.128,423.744c-10.848,0-19.584-8.832-19.584-19.68c0-10.85,8.736-19.584,19.584-19.584
	s19.68,8.736,19.68,19.584C635.808,414.912,626.976,423.744,616.128,423.744z M652.8,211.2H211.2c-37.114,0-67.2,30.086-67.2,67.2
	v326.4c0,26.506,21.494,48,48,48h441.6c26.506,0,48-21.494,48-48V475.68h-91.68c-32.16,0-58.464-26.312-58.464-58.464v-26.208
	c0-32.15,26.304-58.464,58.464-58.464h91.68V297.6c0-21.207-17.192-38.4-38.398-38.4H201.6c-5.28,0-9.6-4.32-9.6-9.6
	c0-5.28,4.32-9.6,9.6-9.6h441.6c31.813,0,57.6,25.786,57.6,57.6v295.2c17.376-12.19,28.8-32.352,28.8-55.2V288
	C729.6,245.587,695.213,211.2,652.8,211.2z M589.92,351.744c-21.6,0-39.264,17.568-39.264,39.264v26.112
	c0,21.696,17.664,39.36,39.264,39.36h91.68V351.744H589.92z M616.128,423.744c-10.848,0-19.584-8.832-19.584-19.68
	c0-10.85,8.736-19.584,19.584-19.584s19.68,8.736,19.68,19.584C635.808,414.912,626.976,423.744,616.128,423.744z M589.92,351.744
	c-21.6,0-39.264,17.568-39.264,39.264v26.112c0,21.696,17.664,39.36,39.264,39.36h91.68V351.744H589.92z M616.128,423.744
	c-10.848,0-19.584-8.832-19.584-19.68c0-10.85,8.736-19.584,19.584-19.584s19.68,8.736,19.68,19.584
	C635.808,414.912,626.976,423.744,616.128,423.744z"/>
</svg>
