<?xml version="1.0" encoding="utf-8"?>
<!-- Generator: Adobe Illustrator 16.0.0, SVG Export Plug-In . SVG Version: 6.00 Build 0)  -->
<!DOCTYPE svg PUBLIC "-//W3C//DTD SVG 1.1//EN" "http://www.w3.org/Graphics/SVG/1.1/DTD/svg11.dtd">
<svg version="1.1" id="Layer_1" xmlns="http://www.w3.org/2000/svg" xmlns:xlink="http://www.w3.org/1999/xlink" x="0px" y="0px"
	 width="864px" height="864px" viewBox="0 0 864 864" enable-background="new 0 0 864 864" xml:space="preserve">
<path d="M330.936,286.291c11.06,3.591,17.127,15.466,13.536,26.535c-3.591,11.059-15.466,17.126-26.534,13.536
	c-11.069-3.59-17.127-15.466-13.536-26.535S319.877,282.691,330.936,286.291z M463.925,323.29c13.526,0,24.499-10.963,24.499-24.499
	c0-13.526-10.963-24.5-24.499-24.5c-13.526,0-24.499,10.963-24.499,24.5C439.426,312.326,450.389,323.29,463.925,323.29z
	 M393.451,428.055c4.262,10.416,16.166,15.398,26.582,11.136s15.398-16.166,11.136-26.582
	c-4.262-10.416-16.166-15.398-26.582-11.137C394.171,405.734,389.188,417.639,393.451,428.055z M406.747,137.415
	c113.165,0,206.966,82.781,224.218,191.088l54.355,95.923c9.033,15.936-2.478,35.692-20.795,35.692h-36.672v119.223
	c0,33.667-31.479,58.474-64.214,50.621l-41.126-5.684V700.8c0,21.207-17.194,38.4-38.4,38.4h-124.8c-21.206,0-38.4-17.193-38.4-38.4
	V574.752c-82.857-33.85-141.264-115.21-141.264-210.25C179.649,239.078,281.323,137.415,406.747,137.415z M479.342,347.021
	c2.698-0.864,5.28-1.968,7.757-3.245l21.869,13.92l13.862-13.862l-13.92-21.869c1.286-2.477,2.381-5.059,3.245-7.757l25.276-5.616
	v-19.603l-25.276-5.616c-0.864-2.698-1.969-5.28-3.245-7.757l13.92-21.869l-13.862-13.862l-21.869,13.92
	c-2.477-1.286-5.059-2.381-7.757-3.245l-5.615-25.277h-19.604l-5.616,25.277c-2.697,0.864-5.28,1.968-7.757,3.245l-21.869-13.92
	l-13.862,13.862l13.92,21.869c-1.286,2.477-2.38,5.059-3.244,7.757l-25.277,5.616v19.603l25.277,5.616
	c0.864,2.698,1.968,5.28,3.244,7.757l-13.92,21.869l13.862,13.862l21.869-13.92c2.477,1.287,5.06,2.381,7.757,3.245l5.616,25.277
	h19.604L479.342,347.021z M358.833,451.037l21.226-3.639c1.508,1.805,3.168,3.446,4.935,4.953l-3.82,21.227l15.033,6.297
	l12.451-17.606c2.304,0.202,4.646,0.23,6.989,0.048L427.934,480l15.072-6.183l-3.639-21.226c1.806-1.507,3.447-3.168,4.954-4.935
	l21.226,3.821l6.298-15.034l-17.606-12.451c0.201-2.304,0.23-4.646,0.048-6.988l17.683-12.288l-6.172-15.091l-21.227,3.639
	c-1.507-1.805-3.168-3.447-4.934-4.954l3.82-21.226l-15.033-6.298l-12.451,17.606c-2.305-0.202-4.646-0.23-6.989-0.048
	l-12.288-17.683l-15.091,6.173l3.639,21.226c-1.805,1.517-3.446,3.177-4.954,4.944l-21.226-3.821l-6.298,15.034l17.606,12.451
	c-0.201,2.304-0.229,4.646-0.048,6.988l-17.683,12.288L358.833,451.037z M264.321,327.533l7.661,15.015l21.571-5.578
	c1.68,1.699,3.504,3.283,5.481,4.704l-2.112,22.157l16.032,5.203l11.299-19.181c2.429,0.01,4.839-0.211,7.2-0.595l14.198,17.184
	l15.015-7.661L355.09,337.2c1.698-1.68,3.283-3.504,4.703-5.482l22.157,2.112l5.203-16.032l-19.181-11.29
	c0.01-2.429-0.202-4.838-0.596-7.2l17.185-14.198l-7.661-15.014l-21.581,5.578c-1.68-1.699-3.504-3.283-5.481-4.704l2.112-22.157
	l-16.032-5.204l-11.299,19.181c-2.429-0.01-4.839,0.211-7.2,0.595l-14.188-17.184l-15.015,7.661l5.577,21.581
	c-1.699,1.68-3.283,3.504-4.704,5.481l-22.156-2.112l-5.203,16.032l19.181,11.299c-0.01,2.429,0.201,4.838,0.595,7.2
	L264.321,327.533z"/>
</svg>
