<?xml version="1.0" encoding="utf-8"?>
<!-- Generator: Adobe Illustrator 16.0.0, SVG Export Plug-In . SVG Version: 6.00 Build 0)  -->
<!DOCTYPE svg PUBLIC "-//W3C//DTD SVG 1.1//EN" "http://www.w3.org/Graphics/SVG/1.1/DTD/svg11.dtd">
<svg version="1.1" id="Layer_1" xmlns="http://www.w3.org/2000/svg" xmlns:xlink="http://www.w3.org/1999/xlink" x="0px" y="0px"
	 width="864px" height="864px" viewBox="0 0 864 864" enable-background="new 0 0 864 864" xml:space="preserve">
<path fill="#231F20" d="M604.224,337.248l-28.027,28.032c13.147,24.192,20.64,51.748,20.64,81.124
	c0,93.504-76.128,169.632-169.632,169.632S257.568,539.904,257.568,446.4c0-93.504,76.128-169.632,169.632-169.632
	c29.376,0,56.928,7.488,81.12,20.64l28.027-28.032c-31.771-19.68-69.115-31.008-109.147-31.008
	c-114.72,0-208.032,93.312-208.032,208.032c0,114.72,93.312,208.027,208.032,208.027S635.232,561.12,635.232,446.4
	C635.232,406.368,623.904,369.024,604.224,337.248z M526.368,415.2l-33.696,33.6c-1.248,35.136-30.048,63.168-65.472,63.168
	c-36.192,0-65.568-29.376-65.568-65.563c0-35.429,28.032-64.229,63.168-65.472l33.696-33.6c-9.888-3.168-20.352-4.896-31.296-4.896
	c-57.312,0-103.968,46.656-103.968,103.968c0,57.312,46.651,103.968,103.968,103.968c57.312,0,103.968-46.656,103.968-103.968
	C531.168,435.552,529.536,424.992,526.368,415.2z M698.784,283.488l-28.032,28.032c22.176,39.936,34.848,85.92,34.848,134.88
	C705.6,599.904,580.704,724.8,427.2,724.8c-153.504,0-278.4-124.896-278.4-278.396c0-153.504,124.896-278.4,278.4-278.4
	c48.96,0,94.944,12.672,134.88,34.848l28.032-28.032C542.496,146.112,486.72,129.6,427.2,129.6c-174.72,0-316.8,142.08-316.8,316.8
	c0,174.72,142.08,316.8,316.8,316.8c174.72,0,316.8-142.08,316.8-316.8C744,386.88,727.488,331.104,698.784,283.488z
	 M657.178,284.304l-36.649-4.071L439.949,460.8c-7.498,7.498-19.651,7.498-27.149,0c-7.497-7.497-7.497-19.647,0-27.146
	l180.566-180.566l-4.07-36.653l101.827-101.827l13.574,54.307l54.308,13.574L657.178,284.304z"/>
</svg>
