<svg xmlns="http://www.w3.org/2000/svg" viewBox="0 0 75 75"><path d="M43 44.24V46c0 1.66-1.34 3-3 3h-5c-1.66 0-3-1.34-3-3v-1.76L5 35.38V56c0 5.5 4.5 10 10 10h45c5.5 0 10-4.5 10-10V35.38l-27 8.86zM60 19h-9.01c.05-1.29-.16-2.69-.91-4-2-3.5-6.5-5-12.5-5s-10.5 1.5-12.5 5c-.76 1.31-.97 2.71-.92 4H15C9.5 19 5 23.5 5 29v4.28l27 8.86V40c0-1.66 1.34-3 3-3h5c1.66 0 3 1.34 3 3v2.14l27-8.86V29c0-5.5-4.5-10-10-10zm-13.03 0h-18.8c-.05-.69.03-1.4.38-2.02 1.48-2.59 6.29-2.98 9.03-2.98 2.73 0 7.54.39 9.02 2.98.35.61.42 1.32.37 2.02zM41 40v6c0 .55-.45 1-1 1h-5c-.55 0-1-.45-1-1v-6c0-.55.45-1 1-1h5c.55 0 1 .45 1 1z"/></svg>