<svg xmlns="http://www.w3.org/2000/svg" viewBox="0 0 90 90"><path d="M22.91 26.833l4.88-7.843h.01c1.4-2.19 3.84-3.65 6.63-3.65 2.797 0 5.245 1.464 6.64 3.66h10.36c1.396-2.196 3.843-3.66 6.64-3.66 2.79 0 5.23 1.46 6.63 3.65h.01l4.874 7.832c-1.556-.538-3.21-.822-4.903-.822-5.177 0-9.95 2.67-12.67 7.023H40.49C37.77 28.67 32.998 26 27.82 26c-1.7 0-3.353.292-4.91.833zM85.3 57.1c0 9.7-7.86 17.56-17.55 17.56-6.185 0-11.6-3.212-14.72-8.05-1.55 2.055-4.006 3.39-6.78 3.39s-5.23-1.335-6.78-3.39c-3.12 4.838-8.535 8.05-14.72 8.05-9.69 0-17.55-7.86-17.55-17.56 0-3.49 1.03-6.73 2.79-9.46l-.02-.01 9.383-15.08c2.22-2.243 5.243-3.55 8.466-3.55 4.38 0 8.4 2.39 10.49 6.24l.428.783H53.76l.428-.784C56.278 31.39 60.3 29 64.68 29c3.19 0 6.193 1.255 8.422 3.476L82.53 47.63l-.02.01c1.76 2.73 2.79 5.97 2.79 9.46zm-49.62 0c0-6.03-4.89-10.92-10.93-10.92S13.82 51.07 13.82 57.1c0 6.04 4.89 10.93 10.93 10.93s10.93-4.89 10.93-10.93zm14.57 4.4c0-2.21-1.79-4-4-4s-4 1.79-4 4 1.79 4 4 4 4-1.79 4-4zm28.43-4.4c0-6.03-4.89-10.92-10.93-10.92S56.82 51.07 56.82 57.1c0 6.04 4.89 10.93 10.93 10.93s10.93-4.89 10.93-10.93z"/></svg>