<svg xmlns="http://www.w3.org/2000/svg" viewBox="0 0 90 90"><path d="M67.5 52c-3.84 0-7.32 1.503-9.914 3.94L48 48.75V37.77c6.814-1.187 12-7.116 12-14.27C60 15.492 53.508 9 45.5 9S31 15.492 31 23.5c0 7.154 5.186 13.083 12 14.27v10.947l-10.31 7.395c-1.894-1.86-4.303-3.196-6.996-3.77C15.65 50.196 6.87 58.465 8.12 68.384c.813 6.463 6.032 11.68 12.495 12.496 9.92 1.25 18.188-7.53 16.044-17.575-.234-1.093-.598-2.137-1.066-3.122l9.873-7.083 9.115 6.836C53.578 61.91 53 64.136 53 66.5 53 74.508 59.492 81 67.5 81S82 74.508 82 66.5 75.508 52 67.5 52zm-45 5.002c2.41 0 4.366 1.955 4.366 4.366 0 2.41-1.955 4.366-4.366 4.366s-4.366-1.955-4.366-4.366c0-2.412 1.955-4.366 4.366-4.366zM29 74H16v-1.96c0-2.68 1.88-5.04 4.56-5.04h3.88c2.68 0 4.56 2.36 4.56 5.04V74zm16.5-59.998c2.41 0 4.366 1.955 4.366 4.366 0 2.41-1.955 4.366-4.366 4.366s-4.366-1.955-4.366-4.366c0-2.412 1.955-4.366 4.366-4.366zM39 31v-1.96c0-2.68 1.88-5.04 4.56-5.04h3.88c2.68 0 4.56 2.36 4.56 5.04V31H39zm28.5 26.002c2.41 0 4.366 1.955 4.366 4.366 0 2.41-1.955 4.366-4.366 4.366s-4.366-1.955-4.366-4.366c0-2.412 1.955-4.366 4.366-4.366zM74 74H61v-1.96c0-2.68 1.88-5.04 4.56-5.04h3.88c2.68 0 4.56 2.36 4.56 5.04V74z"/></svg>