<svg xmlns="http://www.w3.org/2000/svg" viewBox="0 0 90 90"><path d="M20 23v-7c0-1.66 1.34-3 3-3s3 1.34 3 3v7c0 1.66-1.34 3-3 3s-3-1.34-3-3zm32 3c1.66 0 3-1.34 3-3v-7c0-1.66-1.34-3-3-3s-3 1.34-3 3v7c0 1.66 1.34 3 3 3zm18 33h-3v-7c0-1.104-.896-2-2-2s-2 .896-2 2v9c0 1.104.896 2 2 2h5c1.104 0 2-.896 2-2s-.896-2-2-2zm12 1.5c0 9.39-7.61 17-17 17-6.69 0-12.47-3.88-15.24-9.5H14c-2.76 0-5-2.24-5-5V26c0-2.76 2.24-5 5-5h4v2c0 2.76 2.24 5 5 5s5-2.24 5-5v-2h19v2c0 2.76 2.24 5 5 5s5-2.24 5-5v-2h4c2.76 0 5 2.24 5 5v17.55c8.92.52 16 7.9 16 16.95zM46.08 35.2H29.83v4.49h11.28c-2.26 2.74-4.09 5.76-5.49 9.04-1.39 3.29-2.22 6.71-2.5 10.27h5.17c.02-1.59.21-3.3.56-5.13.35-1.84.85-3.65 1.5-5.44.65-1.79 1.45-3.48 2.41-5.07.97-1.59 2.07-2.92 3.32-4.01V35.2zM78 60.5c0-7.17-5.83-13-13-13s-13 5.83-13 13 5.83 13 13 13 13-5.83 13-13z"/></svg>