<svg xmlns="http://www.w3.org/2000/svg" viewBox="0 0 90 90"><path d="M84.332 33.752c-.69-.46-1.62-.273-2.08.416-.784 1.176-1.862 1.684-2.788 1.89-.008-1.746-.854-3.57-2.403-5.118-1.478-1.48-3.626-1.776-5.106-.71-1.107.8-1.98 2.57-.795 4.94.736 1.476 2.098 2.657 3.756 3.35-.314.22-.677.435-1.086.64-.9.45-1.82.718-2.71.874-2.16-4.41-6.06-8.182-11.073-10.845C58.217 33.48 53.954 36.5 49 36.5c-6.36 0-11.567-4.978-11.962-11.242-.622.06-1.234.127-1.833.205-3.757-2.433-10.73-5.428-17.705-4.963.322 2.9 2.1 6.625 4.394 9.313-4.443 2.745-7.307 6.492-8.75 10.83-1.69.742-3.516 1.213-5.557 1.35-1.492.103-2.62 1.383-2.513 2.875C5.35 48.714 6.49 55.265 11 57c.845.325 2.193.517 3.798.62 1.912 3.123 4.718 5.872 8.182 8.05-.58 2.898-1.297 5.82-2.18 8.772-.382 1.275.584 2.558 1.917 2.558h8.402c.83 0 1.588-.51 1.877-1.288.66-1.786 1.22-3.614 1.695-5.476 2.493.497 5.11.764 7.808.764 3.14 0 6.166-.36 9.016-1.022-.37 1.482-.768 2.968-1.215 4.463-.382 1.277.584 2.56 1.917 2.56h8.402c.83 0 1.588-.51 1.877-1.288 1.497-4.043 2.488-8.292 3.095-12.696C70.204 58.986 73 53.74 73 48c0-1.762-.272-3.476-.77-5.124.967-.215 1.96-.542 2.94-1.034 1.626-.812 2.65-1.748 3.287-2.654 2.59-.053 4.904-1.275 6.29-3.355.46-.69.274-1.62-.415-2.08zM24.5 41c-1.38 0-2.5-1.12-2.5-2.5s1.12-2.5 2.5-2.5 2.5 1.12 2.5 2.5-1.12 2.5-2.5 2.5zm49.342-7.17c-.305-.61-.3-1.05-.135-1.167.065-.047.164-.075.285-.075.25 0 .6.125.947.473.908.91 1.448 1.933 1.516 2.835-1.176-.39-2.15-1.14-2.614-2.066zM49 14.5c-5.523 0-10 4.477-10 10s4.477 10 10 10 10-4.477 10-10-4.477-10-10-10zm3.206 7.958c-.52.176-1.09-.105-1.266-.63-.165-.494-.772-1.07-1.94-1.07-.936 0-1.488.618-1.552 1.23-.08.76.578 1.36 1.757 1.608 2.692.563 3.48 2.384 3.336 3.77-.143 1.397-1.176 2.5-2.54 2.875v.834c0 .553-.447 1-1 1s-1-.447-1-1v-.793c-1.6-.323-2.523-1.385-2.837-2.325-.176-.524.107-1.09.63-1.266.526-.175 1.092.106 1.267.63.165.493.77 1.068 1.94 1.068.936 0 1.488-.617 1.552-1.228.08-.76-.578-1.36-1.757-1.608-2.692-.563-3.48-2.385-3.336-3.772.143-1.396 1.176-2.5 2.54-2.874v-.832c0-.553.447-1 1-1s1 .447 1 1v.792c1.6.324 2.522 1.385 2.837 2.326.176.524-.108 1.09-.63 1.266z"/></svg>