<svg xmlns="http://www.w3.org/2000/svg" viewBox="0 0 90 90"><path d="M19.378 16.35c0-4.656 3.775-8.43 8.432-8.43s8.432 3.774 8.432 8.43-3.775 8.433-8.432 8.433-8.432-3.775-8.432-8.432zm25.415 18.087c-.26-2.996-2.543-5.42-5.52-5.86l-5.95-.874-3.713 8.52-.48-4.2c-.012-.133-.124-.234-.257-.234H26.75c-.133 0-.246.102-.257.236l-.435 4.303-3.76-8.627-5.95.875c-2.975.438-5.26 2.863-5.52 5.86L9 55.594h5.838l.973-14.27 1.298 9.73-.65 9.73h1.298V82.84h7.784l1.26-22.055h1.37l1.26 22.054h7.785V60.783h1.946l-.648-9.73 1.297-9.73.972 14.27h5.838l-1.827-21.157zm-19.577-6.41c.003.778.645 1.816 1.034 2.205.39.39 1.04.39 1.56.39s1.17 0 1.56-.39c.39-.39 1.03-1.427 1.034-2.205.003-.908-1.584-1.038-2.595-1.038-1.01 0-2.597.13-2.594 1.037zM65.318 43.66c-.63-1.884-2.45-4.004-5.573-4.725v-1.32c0-1.257-1.02-2.276-2.276-2.276s-2.277 1.018-2.277 2.275v1.388c-2.698.826-4.715 3.078-5.005 5.882-.32 3.087 1.663 6.685 6.815 7.764 2.154.45 3.357 1.51 3.22 2.837-.11 1.064-1.092 2.142-2.753 2.142-2.002 0-3.217-.952-3.532-1.896-.4-1.193-1.69-1.835-2.88-1.436-1.193.398-1.837 1.688-1.438 2.88.63 1.886 2.45 4.006 5.574 4.727v1.32c0 1.257 1.02 2.276 2.276 2.276s2.276-1.018 2.276-2.275v-1.388c2.698-.826 4.714-3.078 5.005-5.88.32-3.088-1.662-6.686-6.813-7.765-2.154-.45-3.357-1.512-3.22-2.838.11-1.064 1.09-2.142 2.753-2.142 2.14 0 3.24 1.02 3.532 1.895.4 1.193 1.69 1.835 2.88 1.436 1.192-.4 1.835-1.69 1.436-2.882zM57 26.08c-4.112 0-7.98 1.037-11.363 2.858.836 1.01 1.464 2.194 1.826 3.495 2.837-1.536 6.085-2.41 9.537-2.41 11.077 0 20.057 8.98 20.057 20.057S68.077 70.138 57 70.138c-5.78 0-10.972-2.458-14.632-6.37v.016l-2.152 3.445c4.328 4.236 10.25 6.85 16.784 6.85 13.255 0 24-10.744 24-24s-10.745-24-24-24z"/></svg>