<svg xmlns="http://www.w3.org/2000/svg" viewBox="0 0 90 90"><path d="M84.265 30.752c-.69-.46-1.62-.273-2.08.416-.784 1.176-1.862 1.684-2.788 1.89-.008-1.746-.854-3.57-2.403-5.118-1.48-1.48-3.627-1.776-5.107-.71-1.107.8-1.98 2.57-.795 4.94.737 1.476 2.1 2.657 3.757 3.35-.315.22-.678.435-1.087.64-.9.45-1.82.718-2.71.874C66.753 28.258 55.563 22 42.433 22c-2.623 0-5.038.17-7.294.463-3.758-2.433-10.73-5.428-17.707-4.963.322 2.9 2.1 6.625 4.394 9.313-4.443 2.745-7.307 6.492-8.75 10.83-1.69.742-3.516 1.213-5.557 1.35-1.492.103-2.62 1.383-2.513 2.875.275 3.846 1.415 10.397 5.926 12.132.845.325 2.193.517 3.798.62 1.913 3.123 4.72 5.872 8.183 8.05-.58 2.898-1.297 5.82-2.18 8.772C20.35 72.717 21.317 74 22.65 74h8.402c.83 0 1.59-.51 1.878-1.288.66-1.786 1.22-3.614 1.695-5.476 2.492.497 5.108.764 7.808.764 3.14 0 6.166-.36 9.016-1.022-.372 1.482-.77 2.968-1.216 4.463-.383 1.277.583 2.56 1.916 2.56h8.402c.83 0 1.59-.51 1.878-1.288 1.497-4.043 2.488-8.292 3.095-12.696 4.612-4.03 7.408-9.275 7.408-15.016 0-1.762-.272-3.476-.77-5.124.967-.215 1.96-.542 2.94-1.034 1.626-.812 2.65-1.748 3.287-2.654 2.59-.053 4.904-1.275 6.29-3.355.46-.69.274-1.62-.415-2.08zM24.433 38c-1.38 0-2.5-1.12-2.5-2.5s1.12-2.5 2.5-2.5 2.5 1.12 2.5 2.5-1.12 2.5-2.5 2.5zm26.202 2.844c-1.045.35-2.18-.214-2.53-1.262-.258-.768-1.225-1.665-3.105-1.665-1.46 0-2.322.947-2.418 1.882-.12 1.164.937 2.097 2.83 2.492 4.524.948 6.267 4.11 5.986 6.82-.255 2.464-2.027 4.443-4.397 5.168v1.22c0 1.104-.895 2-2 2s-2-.896-2-2v-1.16c-2.743-.634-4.342-2.496-4.896-4.152-.35-1.048.215-2.182 1.263-2.53 1.047-.352 2.18.213 2.53 1.26.278.83 1.345 1.666 3.104 1.666 1.46 0 2.322-.947 2.42-1.882.12-1.165-.938-2.098-2.83-2.493-4.526-.95-6.268-4.11-5.987-6.822.255-2.463 2.027-4.442 4.397-5.167V33c0-1.104.896-2 2-2s2 .896 2 2v1.16c2.743.634 4.342 2.496 4.896 4.152.35 1.048-.214 2.18-1.26 2.532zm23.14-10.015c-.306-.61-.3-1.05-.136-1.167.064-.047.163-.075.284-.075.25 0 .6.125.947.473.91.91 1.45 1.933 1.518 2.835-1.175-.39-2.15-1.14-2.614-2.066z"/></svg>