<svg xmlns="http://www.w3.org/2000/svg" viewBox="0 0 90 90"><path d="M61.45 36.64c-2.25 0-4.09 1.83-4.09 4.09v2.72c0 2.26 1.84 4.1 4.09 4.1H71V36.64h-9.55zm2.73 7.5c-1.13 0-2.04-.92-2.04-2.05s.91-2.04 2.04-2.04 2.05.91 2.05 2.04-.92 2.05-2.05 2.05zM68 22H22c-3.866 0-7 3.134-7 7v34c0 2.76 2.24 5 5 5h46c2.76 0 5-2.24 5-5V49.55h-9.55c-3.35 0-6.09-2.74-6.09-6.09v-2.73c0-3.35 2.74-6.09 6.09-6.09H71V31c0-2.21-1.79-4-4-4H21c-.55 0-1-.45-1-1s.45-1 1-1h46c3.314 0 6 2.686 6 6v30.75c1.81-1.27 3-3.37 3-5.75V30c0-4.418-3.582-8-8-8zm-6.55 14.64c-2.25 0-4.09 1.83-4.09 4.09v2.72c0 2.26 1.84 4.1 4.09 4.1H71V36.64h-9.55zm2.73 7.5c-1.13 0-2.04-.92-2.04-2.05s.91-2.04 2.04-2.04 2.05.91 2.05 2.04-.92 2.05-2.05 2.05zm-2.73-7.5c-2.25 0-4.09 1.83-4.09 4.09v2.72c0 2.26 1.84 4.1 4.09 4.1H71V36.64h-9.55zm2.73 7.5c-1.13 0-2.04-.92-2.04-2.05s.91-2.04 2.04-2.04 2.05.91 2.05 2.04-.92 2.05-2.05 2.05z"/></svg>