<svg xmlns="http://www.w3.org/2000/svg" viewBox="0 0 90 90"><path d="M47.5 32v-6l-7.737-1.72c-.264-.824-.6-1.615-.992-2.374l4.26-6.695-4.242-4.242-6.695 4.26c-.76-.392-1.55-.728-2.375-.992L28 6.5h-6l-1.72 7.737c-.824.264-1.615.6-2.374.992l-6.695-4.26L6.97 15.21l4.26 6.695c-.392.76-.728 1.55-.992 2.375L2.5 26v6l7.737 1.72c.264.824.6 1.615.992 2.374L6.97 42.79l4.242 4.242 6.695-4.26c.76.392 1.55.728 2.375.992L22 51.5h6l1.72-7.737c.824-.264 1.615-.6 2.374-.992l6.695 4.26 4.242-4.242-4.26-6.695c.392-.76.728-1.55.992-2.375L47.5 32zM25 36.5c-4.142 0-7.5-3.358-7.5-7.5s3.358-7.5 7.5-7.5 7.5 3.358 7.5 7.5-3.358 7.5-7.5 7.5zm32.172 39.102l1.89-4.618-5.413-3.762c.056-.718.046-1.433-.016-2.14l5.39-3.81-1.93-4.604-6.496 1.17c-.46-.54-.963-1.05-1.515-1.512l1.115-6.497-4.618-1.892-3.762 5.414c-.718-.057-1.433-.047-2.14.015l-3.81-5.39-4.604 1.93 1.17 6.496c-.54.46-1.05.963-1.512 1.515l-6.497-1.115-1.89 4.618 5.413 3.763c-.057.718-.047 1.433.015 2.14l-5.39 3.81 1.93 4.604L31 74.567c.46.54.962 1.05 1.514 1.512L31.4 82.575l4.617 1.89 3.762-5.413c.717.057 1.432.047 2.14-.015l3.81 5.39 4.603-1.93-1.17-6.496c.54-.46 1.05-.963 1.512-1.515l6.497 1.115zm-18.738-3.627c-3.188-1.305-4.715-4.948-3.41-8.137s4.948-4.715 8.137-3.41c3.19 1.305 4.716 4.948 3.41 8.137-1.304 3.19-4.947 4.716-8.136 3.41zM86.89 27.79l-1.592-4.905-6.783.646c-.434-.604-.92-1.16-1.44-1.678l1.707-6.604-4.595-2.344-4.345 5.26c-.724-.12-1.46-.186-2.205-.182l-3.458-5.87-4.907 1.59.646 6.783c-.606.434-1.163.92-1.68 1.44l-6.604-1.707-2.344 4.595 5.26 4.345c-.12.724-.186 1.46-.182 2.205L48.5 34.82l1.59 4.906 6.784-.646c.434.605.92 1.162 1.44 1.68l-1.707 6.603 4.595 2.344 4.345-5.26c.724.12 1.46.186 2.205.182l3.458 5.87 4.906-1.59-.646-6.784c.605-.434 1.162-.92 1.68-1.44l6.603 1.707 2.344-4.595-5.26-4.345c.12-.724.186-1.46.182-2.205l5.87-3.457zM69.683 37.44c-3.387 1.1-7.024-.757-8.122-4.144-1.1-3.387.757-7.024 4.144-8.122 3.387-1.1 7.024.757 8.122 4.144s-.757 7.024-4.144 8.122z"/></svg>