<svg xmlns="http://www.w3.org/2000/svg" viewBox="0 0 90 90"><path d="M76 52.633L63.89 45.64c-.668-.384-1.5.097-1.5.867V50H60.5c-4.346 0-8.34 1.516-11.5 4.034V25h3.493c.77 0 1.25-.833.866-1.5l-6.995-12.11c-.385-.668-1.347-.668-1.732 0L37.64 23.5c-.384.667.097 1.5.867 1.5H42v15.034C38.84 37.516 34.846 36 30.5 36h-2.39v-3.493c0-.77-.832-1.25-1.5-.866L14.5 38.636c-.667.385-.667 1.347 0 1.732l12.11 6.992c.668.384 1.5-.097 1.5-.867V43h2.39C36.85 43 42 48.15 42 54.5v21.408c0 1.67 1.133 3.187 2.77 3.52C47.022 79.88 49 78.17 49 76v-7.5C49 62.15 54.15 57 60.5 57h1.89v3.493c0 .77.832 1.25 1.5.866L76 54.364c.667-.385.667-1.347 0-1.732z"/></svg>