<svg xmlns="http://www.w3.org/2000/svg" viewBox="0 0 90 90"><path d="M33.02 56.248c4.213 4.214 9.093 8.242 11.02 6.313 2.763-2.76 4.465-5.165 10.552-.273 6.087 4.894 1.412 8.155-1.263 10.83-3.088 3.088-14.595.163-25.97-11.21-11.372-11.374-14.298-22.88-11.21-25.97 2.677-2.675 5.938-7.35 10.83-1.26 4.892 6.085 2.488 7.788-.274 10.55-1.927 1.928 2.1 6.807 6.314 11.02zM77.518 27.32c0 8.393-8.596 15.196-19.2 15.196-1.06 0-2.092-.086-3.105-.216-2.885 2.953-7.292 4.388-12.298 4.762 2.05-2.05 3.517-5.025 3.977-7.55-4.708-2.77-7.773-7.19-7.773-12.19 0-8.392 8.595-15.195 19.198-15.195s19.2 6.802 19.2 15.194zm-31.2 0c0 1.658 1.344 3 3 3s3-1.342 3-3-1.342-3-3-3-3 1.344-3 3zm15 0c0-1.656-1.342-3-3-3s-3 1.344-3 3 1.344 3 3 3 3-1.342 3-3zm9 0c0-1.656-1.342-3-3-3s-3 1.344-3 3 1.344 3 3 3 3-1.342 3-3z"/></svg>