<svg xmlns="http://www.w3.org/2000/svg" viewBox="0 0 90 90"><path d="M45 16c-16.016 0-29 12.984-29 29s12.984 29 29 29 29-12.984 29-29-12.984-29-29-29zm0 53.236c-13.385 0-24.236-10.85-24.236-24.236S31.614 20.764 45 20.764 69.236 31.614 69.236 45 58.386 69.236 45 69.236zm9.23-33.147c.35 1.046-.216 2.18-1.264 2.53-1.05.348-2.182-.216-2.53-1.264-.476-1.42-2.184-3.08-5.437-3.08-2.694 0-4.29 1.812-4.477 3.6-.228 2.2 1.645 3.988 4.886 4.666 6.483 1.357 8.385 5.693 8.043 8.994-.357 3.454-3 6.184-6.454 6.958V61c0 1.104-.897 2-2 2s-2-.896-2-2v-2.436c-4.12-.663-6.452-3.326-7.23-5.653-.35-1.046.215-2.18 1.263-2.53 1.046-.352 2.18.216 2.53 1.264.476 1.42 2.184 3.08 5.437 3.08 2.693 0 4.29-1.812 4.476-3.6.228-2.2-1.645-3.988-4.886-4.666-6.484-1.357-8.386-5.693-8.044-8.994.357-3.454 3-6.184 6.454-6.958V28c0-1.104.896-2 2-2s2 .896 2 2v2.436c4.12.663 6.45 3.326 7.23 5.653z"/></svg>