<svg xmlns="http://www.w3.org/2000/svg" viewBox="0 0 90 90"><path d="M55.9 55.26c.642.898.433 2.147-.467 2.788-2.616 1.866-5.69 2.853-8.89 2.853-6.868 0-12.7-4.576-14.756-10.9H29c-1.104 0-2-.895-2-2s.896-2 2-2h2.038c-.02-.33-.05-.66-.05-1s.03-.667.05-1H29c-1.104 0-2-.895-2-2s.896-2 2-2h2.788c2.056-6.322 7.888-10.9 14.755-10.9 3.2 0 6.274.987 8.89 2.854.9.64 1.11 1.89.468 2.79-.64.896-1.89 1.11-2.788.466-1.935-1.38-4.206-2.108-6.568-2.108-4.636 0-8.632 2.833-10.47 6.9H45c1.104 0 2 .896 2 2s-.896 2-2 2h-9.963c-.027.33-.05.662-.05 1s.023.67.05 1H45c1.104 0 2 .896 2 2s-.896 2-2 2h-8.928c1.84 4.067 5.835 6.9 10.47 6.9 2.363 0 4.635-.73 6.57-2.108.9-.647 2.148-.434 2.788.465zM74 45c0 16.016-12.984 29-29 29S16 61.016 16 45s12.984-29 29-29 29 12.984 29 29zm-4.764 0c0-13.385-10.85-24.236-24.236-24.236S20.764 31.614 20.764 45 31.614 69.236 45 69.236 69.236 58.386 69.236 45z"/></svg>