<svg xmlns="http://www.w3.org/2000/svg" viewBox="0 0 90 90"><path d="M57.6 33.2L50.25 43H54c1.104 0 2 .896 2 2s-.896 2-2 2h-6.75l-.25.333V50h7c1.104 0 2 .896 2 2s-.896 2-2 2h-7v7c0 1.104-.896 2-2 2s-2-.896-2-2v-7h-7c-1.104 0-2-.896-2-2s.896-2 2-2h7v-2.667L42.75 47H36c-1.104 0-2-.896-2-2s.896-2 2-2h3.75l-7.35-9.8c-.663-.884-.484-2.138.4-2.8.887-.665 2.138-.482 2.8.4L44.75 43h.5l9.15-12.2c.663-.882 1.915-1.064 2.8-.4.884.662 1.063 1.916.4 2.8zM74 45c0 16.016-12.984 29-29 29S16 61.016 16 45s12.984-29 29-29 29 12.984 29 29zm-4.764 0c0-13.385-10.85-24.236-24.236-24.236S20.764 31.614 20.764 45 31.614 69.236 45 69.236 69.236 58.386 69.236 45z"/></svg>