<svg xmlns="http://www.w3.org/2000/svg" viewBox="0 0 90 90"><path d="M14.265 21.327c.542-.2 1.122-.327 1.735-.327h59c.613 0 1.193.126 1.735.327L50.3 46.23c-2.69 2.537-6.908 2.537-9.6 0L14.265 21.327zM79.263 65.58c.458-.755.737-1.632.737-2.58V26c0-.672-.137-1.31-.378-1.897L54.884 47.407l24.38 18.173zm-26.616-16.1c-2.053 1.76-4.596 2.65-7.147 2.65s-5.094-.89-7.147-2.65L14.043 67.6c.602.257 1.262.4 1.957.4h59c.695 0 1.355-.143 1.957-.4l-24.31-18.12zm-41.27-25.377C11.138 24.69 11 25.328 11 26v37c0 .948.28 1.825.737 2.58l24.38-18.173-24.74-23.304z"/></svg>