<svg xmlns="http://www.w3.org/2000/svg" viewBox="0 0 90 90"><path d="M73 18H18c-3.314 0-6 2.686-6 6v34c0 3.314 2.686 6 6 6h22v4h-8c-1.657 0-3 1.343-3 3v1h33v-1c0-1.657-1.343-3-3-3h-8v-4h22c3.314 0 6-2.686 6-6V24c0-3.314-2.686-6-6-6zM30.82 43.6l4.872 2.338 2.055-7.567 7.83 4.688 5.395-9.144 12.845-5.987.846 1.812-12.284 5.725-6.105 10.343-7.29-4.364-1.992 7.338-5.777-2.772-3.758 3.664-1.396-1.432 4.76-4.642zM67 56.987V55H21V30h-2.36l3.19-5.526L25.023 30H23v23h44v-2.394l5.526 3.19L67 56.987z"/></svg>