<svg xmlns="http://www.w3.org/2000/svg" viewBox="0 0 90 90"><path d="M33.975 31.72c-.185 1.784 1.003 3.98 4.89 4.794 5.844 1.224 7.56 5.095 7.256 8.038-.328 3.178-2.83 5.674-6.063 6.272v2.658c0 .828-.672 1.5-1.5 1.5s-1.5-.672-1.5-1.5v-2.62c-3.902-.508-6.096-2.96-6.812-5.097-.263-.785.16-1.635.947-1.898.787-.263 1.636.162 1.898.947.486 1.453 2.21 3.15 5.466 3.15 2.755 0 4.39-1.87 4.58-3.72.186-1.784-1.002-3.98-4.888-4.794-5.845-1.224-7.562-5.095-7.257-8.038.33-3.178 2.832-5.674 6.065-6.272v-2.658c0-.828.672-1.5 1.5-1.5s1.5.672 1.5 1.5v2.62c3.9.508 6.096 2.96 6.812 5.096.263.786-.16 1.636-.946 1.9-.79.263-1.635-.163-1.898-.947-.487-1.453-2.21-3.15-5.466-3.15-2.755 0-4.39 1.87-4.58 3.72zm43.267 45.522C76.072 78.414 74.535 79 73 79s-3.07-.586-4.242-1.758c0 0-15.282-15.298-15.403-15.448-4.276 2.73-9.35 4.317-14.8 4.317C23.337 66.11 11 53.775 11 38.557S23.337 11 38.556 11s27.556 12.337 27.556 27.556c0 5.45-1.588 10.524-4.317 14.8.15.12 15.448 15.403 15.448 15.403 2.343 2.34 2.343 6.14 0 8.482zM38.556 60.37c12.048 0 21.815-9.767 21.815-21.815S50.605 16.74 38.557 16.74 16.74 26.507 16.74 38.555 26.51 60.37 38.557 60.37z"/></svg>