<svg xmlns="http://www.w3.org/2000/svg" viewBox="0 0 90 90"><path d="M75 25H17c-2.76 0-5 2.24-5 5v30c0 2.76 2.24 5 5 5h58c2.76 0 5-2.24 5-5V30c0-2.76-2.24-5-5-5zm3 35c0 1.654-1.346 3-3 3H17c-1.654 0-3-1.346-3-3V30c0-1.654 1.346-3 3-3h58c1.654 0 3 1.346 3 3v30zm-3-31H17c-.55 0-1 .448-1 1v30c0 .552.45 1 1 1h58c.55 0 1-.448 1-1V30c0-.552-.45-1-1-1zM51.69 40.36c-.786.262-1.637-.16-1.9-.946-.363-1.088-1.67-2.36-4.158-2.36-2.063 0-3.287 1.39-3.43 2.76-.174 1.688 1.258 3.058 3.737 3.577 4.92 1.03 6.363 4.318 6.104 6.82-.275 2.66-2.337 4.755-5.016 5.305V58.5c0 .828-.67 1.5-1.5 1.5s-1.5-.672-1.5-1.5v-2.982c-3.07-.527-4.816-2.517-5.4-4.264-.264-.785.16-1.635.945-1.898.788-.262 1.635.16 1.898.947.365 1.088 1.673 2.358 4.16 2.358 2.063 0 3.287-1.387 3.43-2.758.173-1.687-1.258-3.057-3.737-3.576-4.92-1.03-6.365-4.318-6.105-6.82.268-2.592 2.232-4.646 4.81-5.26V31.5c0-.828.67-1.5 1.5-1.5s1.5.672 1.5 1.5v2.657c3.2.47 5.01 2.517 5.607 4.306.263.785-.16 1.635-.946 1.898z"/></svg>