<svg xmlns="http://www.w3.org/2000/svg" viewBox="0 0 90 90"><path d="M74.07 25.84C73.026 24.67 71.53 24 69.964 24H27.06c-1.15 0-2.262.36-3.183 1.016-.16-1.053-.314-2.06-.43-2.763C22.236 15 15.493 15 11.466 15c-.83 0-1.5.672-1.5 1.5s.67 1.5 1.5 1.5c4.817 0 8.285.34 9.02 4.747.344 2.063 1.053 6.996 1.126 7.505 0 .01.002.018.003.025 0 .006 0 .012.002.017l3.855 24.983c.26 1.814 1.415 3.31 2.967 4.104-.613.888-.975 1.962-.975 3.12 0 2.16 1.25 4.038 3.09 4.933-.07.345-.107.702-.107 1.067 0 3.032 2.467 5.5 5.5 5.5 2.512 0 4.632-1.695 5.287-4h17.427c.655 2.305 2.775 4 5.287 4 3.032 0 5.5-2.468 5.5-5.5S66.98 63 63.95 63c-2.513 0-4.633 1.695-5.288 4H41.235c-.655-2.305-2.775-4-5.287-4-1.59 0-3.02.682-4.025 1.765-.865-.393-1.458-1.26-1.458-2.265 0-1.38 1.122-2.5 2.5-2.5H66.88c2.797 0 5.146-2.096 5.462-4.862l3.087-25.013c.178-1.556-.318-3.118-1.36-4.286zM63.95 66c1.377 0 2.5 1.12 2.5 2.5s-1.123 2.5-2.5 2.5-2.5-1.12-2.5-2.5 1.12-2.5 2.5-2.5zm-28 0c1.377 0 2.5 1.12 2.5 2.5s-1.123 2.5-2.5 2.5-2.5-1.12-2.5-2.5 1.12-2.5 2.5-2.5z"/></svg>