<svg xmlns="http://www.w3.org/2000/svg" viewBox="0 0 90 90"><path d="M19.66 16.35c0-4.656 3.775-8.43 8.432-8.43s8.432 3.774 8.432 8.43-3.775 8.433-8.432 8.433-8.432-3.775-8.432-8.432zm25.414 18.087c-.26-2.996-2.543-5.42-5.52-5.86l-5.95-.874-3.713 8.52-.478-4.2c-.013-.133-.125-.234-.258-.234h-2.122c-.134 0-.247.102-.258.236l-.435 4.303-3.76-8.627-5.95.875c-2.976.438-5.26 2.863-5.52 5.86L9.28 55.594h5.84l.972-14.27 1.297 9.73-.65 9.73h1.297V82.84h7.784l1.26-22.055h1.372l1.26 22.054h7.784V60.783h1.946l-.65-9.73 1.298-9.73.973 14.27H46.9l-1.826-21.157zm-19.577-6.41c.003.778.645 1.816 1.034 2.205.39.39 1.042.39 1.56.39.52 0 1.172 0 1.56-.39.39-.39 1.032-1.427 1.035-2.205.003-.908-1.584-1.038-2.595-1.038-1.01 0-2.596.13-2.593 1.037zM57.28 26.08c-4.11 0-7.98 1.037-11.362 2.858.836 1.01 1.464 2.194 1.826 3.495 2.837-1.536 6.085-2.41 9.537-2.41 11.078 0 20.058 8.98 20.058 20.057s-8.98 20.057-20.057 20.057c-5.778 0-10.97-2.458-14.63-6.37v.016l-2.153 3.445c4.328 4.237 10.25 6.852 16.784 6.852 13.256 0 24-10.745 24-24s-10.744-24-24-24zM70 52c0-1.104-.896-2-2-2h-9V37c0-1.104-.896-2-2-2s-2 .896-2 2v13c0 2.206 1.794 4 4 4h9c1.104 0 2-.896 2-2z"/></svg>