<svg xmlns="http://www.w3.org/2000/svg" viewBox="0 0 90 90"><path d="M70.994 44.52c.562 0 1.027.465 1.007 1.027-.54 14.705-12.644 26.473-27.48 26.473-16.277 0-29.247-14.146-27.308-30.798 1.482-12.73 11.872-22.87 24.632-24.075 6.08-.574 11.783.83 16.573 3.648.484.285.624.925.322 1.398L46.477 41.446c-.848 1.33.108 3.074 1.687 3.074h22.83zM62.74 20.195L49.5 40.983c-.425.666.053 1.537.842 1.537h24.656c.56 0 1.024-.462 1.003-1.023-.327-8.96-4.946-16.82-11.856-21.6-.462-.32-1.103-.176-1.405.298z"/></svg>