<svg xmlns="http://www.w3.org/2000/svg" viewBox="0 0 90 90"><path d="M67 16h2c1.105 0 2-.895 2-2v-2c0-1.105-.895-2-2-2H22c-1.105 0-2 .895-2 2v2c0 1.105.895 2 2 2h2c0 17.8 14.19 18.494 15 29-.81 10.506-15 11.2-15 29h-2c-1.105 0-2 .895-2 2v2c0 1.105.895 2 2 2h47c1.105 0 2-.895 2-2v-2c0-1.105-.895-2-2-2h-2c0-17.8-14.19-18.494-15-29 .81-10.506 15-11.2 15-29zm-6.063 56.34c.46.66-.018 1.567-.824 1.567H30.73c-.773 0-1.262-.848-.863-1.51 3.91-6.495 8.674-11.37 14.962-16.136.384-.29.937-.26 1.295.064 6.385 5.807 10.92 10.442 14.812 16.016zM45.42 40.118L34.758 29.49s5.36 2.18 9.72 2.18 8.085-3.09 11.356-3.09S45.42 40.12 45.42 40.12z"/></svg>