<svg xmlns="http://www.w3.org/2000/svg" viewBox="0 0 90 90"><path d="M82 74v1c0 .552-.448 1-1 1H13c-2.21 0-4-1.79-4-4V15c0-.552.448-1 1-1h1c.552 0 1 .448 1 1v57c0 .552.448 1 1 1h68c.552 0 1 .448 1 1zM54.356 26.935L42.6 37.03c-.328.28-.797.32-1.166.1L28.65 29.47c-.385-.23-.88-.175-1.204.136L15.31 41.226c-.2.187-.31.448-.31.72v11.335c0 .883 1.058 1.333 1.693.722l10.703-10.294c.324-.312.816-.37 1.203-.14l14.706 8.715c.336.2.757.184 1.078-.038l11.948-8.255c.097-.067.205-.116.318-.146l23.6-6.092c.44-.112.75-.51.75-.967v-16.01c0-.662-.63-1.14-1.267-.965L54.74 26.73c-.142.04-.273.11-.384.205zm2.02 20.958l-11.798 8.24c-.32.224-.742.24-1.08.043l-14.85-8.713c-.387-.226-.876-.17-1.2.14L15.31 59.225c-.197.188-.308.45-.308.722V69c0 .552.448 1 1 1h64c.552 0 1-.448 1-1V42.75c0-.653-.617-1.13-1.25-.967L56.7 47.745c-.116.03-.225.08-.323.148z"/></svg>