<svg xmlns="http://www.w3.org/2000/svg" viewBox="0 0 90 90"><path d="M32.81 21c-.66 3.57-3.04 6.53-6.25 8h4.03c3.45 0 6.64 2.01 8.13 5.12l5.7 13.95c1.1 2.37.86 5.59-2.29 7.11-.73.36-1.52.53-2.34.53-2.08 0-4.09-1.18-4.89-2.86L32 47.29V59h16.73v9.27l-13.53 5.5c-1.02.42-1.51 1.59-1.09 2.61.31.78 1.06 1.25 1.85 1.25.25 0 .5-.05.75-.15l12.02-4.89V77c0 1.1.9 2 2 2s2-.9 2-2v-4.43l12.03 4.81c1.03.41 2.19-.09 2.6-1.11.41-1.03-.09-2.19-1.11-2.6l-13.52-5.41V59h22c2.76 0 5-2.24 5-5V21H32.81zM72 50H49v-3h23v3zm0-9H46v-3h26v3zm0-9H42v-3h30v3zm10.73-17.04v.08c0 2.187-1.773 3.96-3.96 3.96H33c0-3.153-1.34-5.992-3.474-8H78.77c2.187 0 3.96 1.773 3.96 3.96zM13 19c0-4.97 4.03-9 9-9s9 4.03 9 9-4.03 9-9 9-9-4.03-9-9zm28.263 34.38c-1.77.856-3.922-.058-4.56-1.395l-6.7-12.866L30 73.83c0 2.09-1.53 3.955-3.61 4.152C24.006 78.207 22 76.34 22 74c0 2.34-2.005 4.208-4.39 3.98-2.08-.196-3.61-2.06-3.61-4.15V53c0 1.712-1.425 3.083-3.156 2.996C9.22 55.914 8 54.46 8 52.836V38c0-3.866 3.134-7 7-7h15.595c2.698 0 5.156 1.55 6.317 3.985l5.673 13.89c.64 1.34.85 3.458-1.322 4.506zM13 19c0-4.97 4.03-9 9-9s9 4.03 9 9-4.03 9-9 9-9-4.03-9-9zm28.263 34.38c-1.77.856-3.922-.058-4.56-1.395l-6.7-12.866L30 73.83c0 2.09-1.53 3.955-3.61 4.152C24.006 78.207 22 76.34 22 74c0 2.34-2.005 4.208-4.39 3.98-2.08-.196-3.61-2.06-3.61-4.15V53c0 1.712-1.425 3.083-3.156 2.996C9.22 55.914 8 54.46 8 52.836V38c0-3.866 3.134-7 7-7h15.595c2.698 0 5.156 1.55 6.317 3.985l5.673 13.89c.64 1.34.85 3.458-1.322 4.506z"/></svg>