<svg xmlns="http://www.w3.org/2000/svg" viewBox="0 0 90 90"><path d="M51.918 43.837H34.22c-9.723 0-19.01 8.252-19.01 17.99v1.472c0 2.427 1.845 4.417 4.273 4.417H50.5c-.518-1.446-.797-3.01-.797-4.643 0-7.68 6.248-13.93 13.93-13.93.504 0 .995.027 1.473.066-3.544-3.29-8.306-5.373-13.188-5.373zm-8.85-29.186c-7.322 0-13.265 5.944-13.265 13.267s5.943 13.266 13.266 13.266 13.265-5.943 13.265-13.266S50.392 14.65 43.07 14.65zm20.564 37.146c-6.228 0-11.276 5.048-11.276 11.276s5.05 11.276 11.276 11.276S74.908 69.3 74.908 63.073c0-6.228-5.048-11.277-11.276-11.277zm6.386 9.08l-7.23 7.23c-.516.515-1.36.515-1.876 0l-3.64-3.64c-.515-.516-.515-1.36 0-1.876l.94-.938c.515-.516 1.36-.516 1.875 0l1.762 1.762 5.353-5.354c.516-.516 1.36-.516 1.876 0l.937.938c.517.516.517 1.36 0 1.877z"/></svg>