<svg xmlns="http://www.w3.org/2000/svg" viewBox="0 0 90 90"><path d="M45.365 46.25c.8 0 1.805 0 2.405-.6.6-.6 1.59-2.2 1.595-3.4.005-1.4-2.442-1.6-4-1.6-1.558 0-4.005.2-4 1.6.005 1.2.995 2.8 1.595 3.4.6.6 1.605.6 2.405.6zm33 31.5h-11l-3.5-15-1 15h-35l-1-15-3.5 15h-11l6.298-28.133c.724-3.233 3.365-5.685 6.643-6.167l11.56-1.7 5.796 13.3.67-6.635c.02-.207.192-.365.4-.365H47c.206 0 .378.156.398.36l.74 6.475 5.724-13.134 11.56 1.7c3.277.483 5.918 2.935 6.642 6.168l6.3 28.132zm-18-18l-2-4-6 4h8zm-15-48.5c-7.18 0-13 5.82-13 13s5.82 13 13 13 13-5.82 13-13-5.82-13-13-13zM51 26h-4.5c-1.38 0-2.5-1.12-2.5-2.5V16c0-.828.672-1.5 1.5-1.5s1.5.672 1.5 1.5v7h4c.828 0 1.5.672 1.5 1.5S51.828 26 51 26z"/></svg>