<svg xmlns="http://www.w3.org/2000/svg" viewBox="0 0 90 90"><path d="M73.73 20.88l-8.66 5.29.63 1.068c-4.215-1.202-12.585-3.37-17-3.37-4.18 0-6.41 1.08-9.31 2.48-.57.27-5.28 2.53-5.37 2.55l-10.12-.03-9.33 12.77 6.56 6.03c-.555 1.446-.23 2.857.65 3.87.842.982 2.097 1.526 3.59 1.24-1.002 1.9-.874 3.43.24 4.71 1.075 1.24 2.587 1.696 4.62.93-.36 1.368-.232 2.592.72 3.7.858 1 2.136 1.532 3.66 1.26l.36-.07c-.648 1.694-.354 3.05.56 4.1 1.387 1.618 3.784 1.794 5.35.41l1.42-1.228 1.37 2.57c.672 1.275 2.297 1.91 3.75 1.15 1.432-.772 1.874-2.452 1.19-3.76-.99-1.852-2.62-4.852-2.62-4.852.058-1.394-.434-1.994-1.17-2.76l1.04-.7s2.94 5.64 4 7.64c.673 1.306 2.318 1.9 3.75 1.15 1.482-.796 1.854-2.496 1.19-3.77l-4.31-8.05 1.22-.77 4.8 9.04c.723 1.37 2.404 1.865 3.75 1.16 1.475-.804 1.87-2.473 1.19-3.77l-4.99-9.392 1.27-.76s3.3 6.34 4.49 8.6c.672 1.276 2.297 1.912 3.75 1.15 1.39-.74 1.91-2.4 1.19-3.77l-3.29-6.2c2.434-1.442 3.966-3.645 5.73-6.34l4.4-2.77 1.36 2.172 9.373-4.88-11.004-17.8zM29.78 56.53c-.834.74-2.11.612-2.78-.19-.71-.79-.565-2.53.8-3.39.093-.063 7.636-6.595 7.71-6.66.798-.71 2.053-.652 2.79.2.732.833.663 2.083-.17 2.81l-8.35 7.23zm5.34 4.64c-.824.728-2.09.625-2.79-.192-.68-.79-.67-1.94.02-2.68.112-.114 6.11-5.303 6.23-5.41.815-.727 2.068-.63 2.79.19.75.878.64 2.132-.17 2.82l-6.08 5.27zm8.4 2l-3.81 3.29c-.816.723-2.08.634-2.8-.2-.743-.846-.628-2.124.18-2.812l3.81-3.32c.727-.622 1.89-.688 2.73.15.663.532.89 2.02-.11 2.89m24.93-20.41c-.144.144-.286.273-.37.4-1.29 2.01-3.188 4.514-5.115 5.517-7.61-10.42-11.86-13.828-17.376-18.736l-12.85 6.02c-.96.48-2.17.068-2.65-.94-.485-.99-.078-2.19.92-2.67l12.46-5.84c1.58-.58 3.22-.85 5.25-.85 4.238 0 14.257 2.785 18.445 3.953l6.053 10.325-4.77 2.82zM4.134 35.61l10.757-15.646 7.915 6.345-10.51 14.582-8.162-5.282zm19.024 14.78c-.75-.855-.626-2.13.17-2.81l6.83-5.94c.83-.69 2.086-.617 2.8.21.74.85.66 2.09-.17 2.82l-6.84 5.92c-.727.662-2.037.676-2.79-.2z"/></svg>