<svg xmlns="http://www.w3.org/2000/svg" viewBox="0 0 90 90"><path d="M45.434 37.266c7.18 0 13-5.82 13-13s-5.82-13-13-13-13 5.82-13 13 5.82 13 13 13zm-4.487-9.888c.15-.3.406-.522.723-.628.13-.044.262-.065.397-.065.54 0 1.015.344 1.187.854.19.57.898 1.235 2.263 1.235 1.083 0 1.724-.71 1.796-1.414.07-.676-.432-1.52-2.053-1.858-3.253-.682-4.203-2.886-4.028-4.566.172-1.66 1.37-3.018 3.034-3.485v-.933c0-.69.56-1.25 1.25-1.25s1.252.56 1.252 1.25v.89c1.925.4 3.007 1.688 3.385 2.814.22.656-.136 1.366-.79 1.585-.13.044-.263.065-.398.065-.538 0-1.014-.343-1.186-.854-.192-.57-.9-1.237-2.264-1.237-1.083 0-1.724.71-1.796 1.413-.07.676.433 1.52 2.053 1.86 3.252.68 4.203 2.885 4.03 4.565-.173 1.66-1.372 3.018-3.035 3.485v.934c0 .69-.56 1.25-1.25 1.25s-1.252-.56-1.252-1.25v-.89c-1.926-.4-3.008-1.69-3.385-2.816-.106-.313-.082-.653.067-.952zm31.19 22.255c-.725-3.233-3.366-5.685-6.644-6.167l-11.56-1.7L48.21 54.9l-.74-6.474c-.02-.205-.192-.36-.398-.36h-3.27c-.208 0-.38.157-.4.364l-.67 6.634-5.797-13.3-11.56 1.7c-3.277.483-5.918 2.935-6.642 6.168l-6.298 28.133h11l3.5-15 1 15h35l1-15 3.5 15h11l-6.3-28.132zM52.433 59.766l6-4 2 4h-8zm-7-19.1c1.558 0 4.005.2 4 1.6-.005 1.2-.995 2.8-1.595 3.4-.6.6-1.606.6-2.406.6s-1.805 0-2.405-.6c-.6-.6-1.59-2.2-1.596-3.4-.005-1.4 2.442-1.6 4-1.6z"/></svg>