<svg xmlns="http://www.w3.org/2000/svg" viewBox="0 0 90 90"><path d="M14.25 35.766c0-4.97 4.03-9 9-9s9 4.03 9 9-4.03 9-9 9-9-4.03-9-9zm23 22c0-5.523-4.477-10-10-10h-8c-5.523 0-10 4.477-10 10v4h28v-4zm21.5-22c0 4.97 4.03 9 9 9s9-4.03 9-9-4.03-9-9-9-9 4.03-9 9zm13 12h-8c-5.523 0-10 4.477-10 10v4h28v-4c0-5.523-4.477-10-10-10zm-15.645 27.72c-2.688.675-5.66 1.018-8.877 1.018-14.223 0-19.04-6.578-19.27-6.906-.77-1.132-2.312-1.436-3.454-.674-1.15.766-1.46 2.318-.693 3.467.25.373 6.275 9.114 23.418 9.114 4.233 0 8.13-.538 11.62-1.594l2.65 4.274 7.068-13.18-14.95.466 2.49 4.015zm-21.394-61.3c2.69-.676 5.662-1.02 8.878-1.02 14.223 0 19.04 6.578 19.27 6.906.483.71 1.27 1.094 2.07 1.094.477 0 .958-.136 1.384-.42 1.15-.766 1.46-2.318.693-3.467-.248-.373-6.274-9.114-23.417-9.114-4.232 0-8.13.538-11.62 1.594L29.32 5.486l-7.07 13.18L37.2 18.2l-2.49-4.014z"/></svg>