<svg xmlns="http://www.w3.org/2000/svg" viewBox="0 0 90 90"><path d="M79.77 43h-4.094C74.686 28.05 62.7 16.064 47.75 15.074V10.98c0-1.094-.886-1.98-1.98-1.98h-.04c-1.094 0-1.98.886-1.98 1.98v4.094C28.8 16.064 16.814 28.05 15.824 43H11.73c-1.094 0-1.98.886-1.98 1.98v.04c0 1.094.886 1.98 1.98 1.98h4.094c.99 14.95 12.976 26.936 27.926 27.926v4.094c0 1.094.886 1.98 1.98 1.98h.04c1.094 0 1.98-.886 1.98-1.98v-4.094C62.7 73.936 74.686 61.95 75.676 47h4.094c1.094 0 1.98-.886 1.98-1.98v-.04c0-1.094-.886-1.98-1.98-1.98zm-10.11 0h-3.512c-.945-9.71-8.69-17.454-18.4-18.4v-3.51C59.39 22.056 68.695 31.36 69.66 43zm-12.93 4h6.397c-.922 8.052-7.325 14.455-15.377 15.377V55.98c0-1.094-.886-1.98-1.98-1.98h-.04c-1.094 0-1.98.886-1.98 1.98v6.397C35.698 61.455 29.295 55.052 28.373 47h6.397c1.094 0 1.98-.886 1.98-1.98v-.04c0-1.094-.886-1.98-1.98-1.98h-6.397c.922-8.052 7.325-14.455 15.377-15.377v6.397c0 1.094.886 1.98 1.98 1.98h.04c1.094 0 1.98-.886 1.98-1.98v-6.397c8.052.922 14.455 7.325 15.377 15.377H56.73c-1.094 0-1.98.886-1.98 1.98v.04c0 1.094.886 1.98 1.98 1.98zM43.75 21.09v3.512c-9.71.944-17.454 8.688-18.4 18.398h-3.51c.966-11.64 10.27-20.944 21.91-21.91zM21.84 47h3.512c.945 9.71 8.69 17.454 18.4 18.4v3.51C32.11 67.945 22.805 58.64 21.84 47zm25.91 21.91v-3.512c9.71-.944 17.454-8.688 18.4-18.398h3.51c-.966 11.64-10.27 20.944-21.91 21.91z"/></svg>