<svg xmlns="http://www.w3.org/2000/svg" viewBox="0 0 90 90"><path d="M31.75 53c6.617 0 12-5.383 12-12s-5.383-12-12-12-12 5.383-12 12 5.383 12 12 12zm0-19c3.86 0 7 3.14 7 7s-3.14 7-7 7-7-3.14-7-7 3.14-7 7-7zm26.95-4.74c-.394 9.642-3.27 19.094-8.038 26.233C43.888 65.638 33.544 71 20.75 71c-1.38 0-2.5-1.12-2.5-2.5s1.12-2.5 2.5-2.5c24.74 0 32.248-22.107 32.94-36.74h-5.168l7.73-13.383 7.726 13.384h-5.28zm14.818 39.472c.977.977.977 2.56 0 3.535-.49.49-1.128.733-1.768.733s-1.28-.244-1.768-.732l-5.232-5.232-5.232 5.232c-.49.488-1.128.732-1.768.732s-1.28-.244-1.768-.732c-.977-.977-.977-2.56 0-3.535l5.232-5.232-5.232-5.23c-.977-.978-.977-2.56 0-3.536s2.56-.977 3.535 0l5.232 5.232 5.23-5.232c.978-.977 2.56-.977 3.536 0s.977 2.56 0 3.535l-5.23 5.23 5.232 5.232z"/></svg>