<svg xmlns="http://www.w3.org/2000/svg" viewBox="0 0 90 90"><path d="M22.75 71c-.768 0-1.535-.293-2.12-.88-1.173-1.17-1.173-3.07 0-4.24l47-47c1.17-1.173 3.07-1.173 4.24 0 1.173 1.17 1.173 3.07 0 4.24l-47 47c-.585.587-1.352.88-2.12.88zm52.5-11.5c0-7.72-6.28-14-14-14s-14 6.28-14 14 6.28 14 14 14 14-6.28 14-14zm-6 0c0 4.41-3.59 8-8 8s-8-3.59-8-8 3.59-8 8-8 8 3.59 8 8zm-24-30c0-7.72-6.28-14-14-14s-14 6.28-14 14 6.28 14 14 14 14-6.28 14-14zm-6 0c0 4.41-3.59 8-8 8s-8-3.59-8-8 3.59-8 8-8 8 3.59 8 8z"/></svg>