<svg xmlns="http://www.w3.org/2000/svg" viewBox="0 0 90 90"><path d="M45.55 44.984c-4.808 0-8.705-3.897-8.705-8.705 0-4.81 3.897-8.706 8.705-8.706s8.705 3.897 8.705 8.705c0 4.806-3.897 8.704-8.705 8.704zM32.01 57.558v3.87H59.09v-3.87c0-5.342-4.33-9.672-9.672-9.672h-7.738c-5.343 0-9.673 4.33-9.673 9.672zM75.53 29.02c-5.87-11.002-17.404-18.003-29.98-18.003-13.31 0-25.46 7.836-30.955 19.964-.57 1.258-.012 2.74 1.246 3.31 1.257.567 2.74.013 3.31-1.246 4.686-10.343 15.048-17.026 26.4-17.026 10.618 0 20.368 5.85 25.42 15.07l-4.457 2.018 12.156 8.712 1.467-14.884-4.608 2.086zm-.692 27.763c-1.235-.62-2.737-.114-3.354 1.12C66.544 67.8 56.604 73.95 45.55 73.95c-10.325 0-19.67-5.364-24.886-14.134l4.38-2.185-12.474-8.25-.91 14.928 4.522-2.256c6.077 10.475 17.135 16.9 29.367 16.9 12.962 0 24.614-7.21 30.407-18.816.618-1.236.116-2.737-1.12-3.353z"/></svg>