<svg xmlns="http://www.w3.org/2000/svg" viewBox="0 0 90 90"><path d="M36.657 13.85c0-5.097 4.132-9.228 9.228-9.228s9.228 4.132 9.228 9.228c0 5.097-4.132 9.228-9.228 9.228s-9.228-4.132-9.228-9.228zm29.245 64.353l-12.268-5.45c.555-.72.892-1.618.916-2.573l11.352-5.044 4.93 2.19 5.418-8.987-20.226 2.406 4.93 2.19-6.394 2.84V48.713c0 1.755 1.813 3.162 3.59 3.162 1.963 0 3.587-1.664 3.587-3.33V33.328c0-3.963-3.214-7.177-7.178-7.177H37.97c-3.964 0-7.178 3.214-7.178 7.178v15.213c0 1.667 1.625 3.33 3.587 3.33 1.778 0 3.59-1.406 3.59-3.16v17.08l-6.426-2.857 4.93-2.19L16.25 58.34l5.418 8.986 4.93-2.19 11.386 5.06c.027.944.36 1.83.906 2.544l-12.294 5.463-4.93-2.19L16.25 85l20.226-2.407-4.93-2.19L46.25 73.87l14.703 6.533-4.928 2.19L76.25 85l-5.42-8.987-4.928 2.19z"/></svg>