<svg xmlns="http://www.w3.org/2000/svg" viewBox="0 0 90 90"><path d="M46.25 32c-9.65 0-17.5 7.85-17.5 17.5S36.6 67 46.25 67s17.5-7.85 17.5-17.5S55.9 32 46.25 32zm3.05 19.22l-.01-.02c-.6 1.07-1.73 1.8-3.04 1.8-1.93 0-3.5-1.57-3.5-3.5 0-1.22.62-2.29 1.56-2.91l-.01-.02 11.54-6.6-6.54 11.25zm15.95-17.184l2.213-2.214c.39-.39.39-1.024 0-1.414l-2.12-2.12c-.392-.392-1.025-.392-1.415 0L61.714 30.5c-3.61-2.942-8.074-4.878-12.964-5.373V21h3c1.105 0 2-.895 2-2v-1c0-1.105-.895-2-2-2h-11c-1.105 0-2 .895-2 2v1c0 1.105.895 2 2 2h3v4.126c-4.89.496-9.353 2.432-12.964 5.374l-2.214-2.214c-.39-.39-1.024-.39-1.414 0l-2.12 2.12c-.392.392-.392 1.025 0 1.415l2.213 2.215c-3.436 4.218-5.5 9.6-5.5 15.464 0 13.53 10.97 24.5 24.5 24.5s24.5-10.97 24.5-24.5c0-5.865-2.063-11.246-5.5-15.464zM46.25 69c-10.75 0-19.5-8.75-19.5-19.5S35.5 30 46.25 30s19.5 8.75 19.5 19.5S57 69 46.25 69z"/></svg>