<svg xmlns="http://www.w3.org/2000/svg" viewBox="0 0 90 90"><path d="M15.75 54c0-4.97 4.03-9 9-9s9 4.03 9 9-4.03 9-9 9-9-4.03-9-9zm65-34v16c0 5.523-4.477 10-10 10H54.602c-2.686 3.923-8.352 5-8.352 5l1.25-5h-.25c-5.523 0-10-4.477-10-10V20c0-5.523 4.477-10 10-10h23.5c5.523 0 10 4.477 10 10zM60.21 35.46h-3.69V39h3.69v-3.54zm5.22-12.54c0-3.54-3.15-5.64-6.54-5.64-3.57 0-5.64 2.16-5.64 2.16l2.1 2.61s1.5-1.26 3.21-1.26c1.65 0 2.91 1.08 2.91 2.49 0 3.09-4.95 3.78-4.95 8.13v1.44h3.69v-1.17c0-3.24 5.22-3.81 5.22-8.76zM28.75 66h-8c-5.523 0-10 4.477-10 10v4h28v-4c0-5.523-4.477-10-10-10z"/></svg>