<svg xmlns="http://www.w3.org/2000/svg" viewBox="0 0 90 90"><path d="M59.07 12.858c-10.605 0-19.2 6.803-19.2 15.195 0 5 3.064 9.42 7.773 12.19-.46 2.525-1.927 5.5-3.977 7.55 5.006-.374 9.413-1.81 12.298-4.762 1.013.132 2.046.217 3.106.217 10.604 0 19.2-6.803 19.2-15.195s-8.597-15.194-19.2-15.194zm4.385 12.165c-.612.204-1.27-.126-1.474-.734-.254-.763-1.175-1.652-2.93-1.652-1.445 0-2.3.967-2.4 1.923-.124 1.194.862 2.128 2.638 2.5 3.61.756 4.667 3.175 4.476 5.017-.197 1.91-1.65 3.413-3.55 3.86v1.342c0 .642-.522 1.163-1.165 1.163-.644 0-1.165-.52-1.165-1.164v-1.293c-2.258-.385-3.544-1.85-3.975-3.137-.204-.61.125-1.27.734-1.474.613-.203 1.27.126 1.474.734.255.762 1.176 1.65 2.93 1.65 1.446 0 2.3-.966 2.4-1.922.125-1.193-.862-2.127-2.637-2.5-3.608-.755-4.666-3.174-4.475-5.016.198-1.91 1.65-3.413 3.55-3.86V19.12c0-.643.522-1.164 1.165-1.164s1.164.52 1.164 1.164v1.292c2.258.384 3.544 1.85 3.975 3.137.203.61-.125 1.268-.735 1.473zM54.08 73.85c-3.087 3.087-14.594.162-25.968-11.21-11.373-11.375-14.3-22.882-11.21-25.97 2.675-2.676 5.936-7.35 10.827-1.262 4.892 6.086 2.488 7.79-.274 10.55-1.928 1.93 2.1 6.807 6.313 11.022 4.212 4.214 9.092 8.242 11.02 6.313 2.762-2.76 4.464-5.166 10.55-.274 6.09 4.893 1.415 8.154-1.26 10.83z"/></svg>