<svg xmlns="http://www.w3.org/2000/svg" viewBox="0 0 90 90"><path d="M49.096 13.314c-11.788 0-21.56 8.623-23.356 19.905l-5.662 9.99c-.94 1.66.258 3.72 2.166 3.72h3.82v12.418c0 3.507 3.28 6.092 6.69 5.273l4.283-.59V72c0 2.21 1.79 4 4 4h13c2.21 0 4-1.79 4-4V58.87c8.63-3.527 14.715-12.002 14.715-21.9 0-13.066-10.592-23.656-23.656-23.656zm8.59 21.314L44.79 48.186c-.672.707-1.855.13-1.714-.834l1.358-9.283h-5.896c-.88 0-1.33-1.053-.725-1.69L50.71 22.822c.672-.707 1.855-.13 1.714.834l-1.358 9.283h5.896c.878 0 1.33 1.05.724 1.688z"/></svg>