<svg xmlns="http://www.w3.org/2000/svg" viewBox="0 0 90 90"><path d="M72.048 54.937c2.034-2.347 3-4.467 2.255-5.36-.516-.618-1.76-.53-3.362.105l-.563-2.68c1.808-2.26 2.587-4.27 1.818-5.23-.5-.622-1.582-.697-2.988-.327l-1.485-7.052c8.733-10.354 12.342-18.974 10.08-21.235s-10.88 1.35-21.234 10.082l-7.052-1.485c.37-1.406.295-2.488-.328-2.988-.958-.77-2.968.01-5.228 1.818l-2.68-.564c.634-1.6.722-2.844.104-3.36-.893-.747-3.012.22-5.36 2.254l-10.547-2.22-5.657 5.657 9.708 5.015c-.828 1.848-1.007 3.306-.324 3.876.8.67 2.583-.035 4.633-1.65l2.37 1.224c-.794 2.02-.893 3.613-.093 4.255.935.75 2.87.025 5.062-1.69l3.335 1.723c-.097.11-.195.218-.293.33-6.247 7.12-11.855 13.797-15.948 19.332l-11.277-1.3-4.243 4.242 9.97 5.66c-1.364 2.734-1.73 4.703-.778 5.654.95.952 2.92.587 5.655-.777l5.66 9.97 4.242-4.243-1.302-11.276c5.536-4.093 12.213-9.7 19.332-15.948.112-.098.22-.196.33-.294l1.722 3.335c-1.714 2.19-2.438 4.127-1.688 5.062.642.8 2.236.7 4.255-.093l1.223 2.37c-1.615 2.05-2.32 3.832-1.65 4.632.57.682 2.028.502 3.875-.325l5.014 9.708 5.657-5.657-2.222-10.55z"/></svg>